M48
; DRILL file {KiCad (5.1.10-1-10_14)} date Tuesday, March 22, 2022 at 02:39:53 PM
; FORMAT={3:3/ absolute / metric / suppress leading zeros}
; #@! TF.CreationDate,2022-03-22T14:39:53+09:00
; #@! TF.GenerationSoftware,Kicad,Pcbnew,(5.1.10-1-10_14)
FMAT,2
METRIC,TZ
T1C0.300
T2C0.500
T3C0.600
T4C0.800
T5C0.850
T6C1.000
T7C1.200
T8C3.200
T9C0.500
T10C3.200
%
G90
G05
T1
X4318Y49938
X5588Y52986
X7874Y58828
X8382Y15748
X8636Y59844
X9906Y12192
X12436Y64416
X12522Y62292
X12700Y50954
X15494Y59844
X15494Y58828
X15494Y57812
X16256Y20320
X16510Y57812
X18034Y24638
X18796Y17526
X19050Y16002
X20066Y55018
X20066Y54002
X20066Y52986
X20320Y16002
X20320Y14732
X21590Y59844
X21590Y58828
X21844Y9906
X23190Y47306
X23622Y15494
X23622Y14478
X23622Y13462
X23876Y65178
X24130Y21844
X24384Y23622
X24892Y64416
X25400Y61622
X26162Y10922
X27178Y13462
X28194Y58320
X28448Y60606
X28702Y5334
X28778Y56958
X29210Y16510
X29718Y50700
X29972Y27432
X30105Y55717
X30839Y12499
X31496Y20066
X32842Y61530
X33020Y59082
X33096Y56450
X33528Y12446
X34036Y61784
X34366Y63816
X35052Y4774
X35306Y56288
X35814Y14224
X36322Y45366
X36398Y49338
X37338Y45366
X38354Y54256
X38354Y53240
X39624Y60860
X39624Y58320
X40894Y60860
X42164Y60860
X43180Y4572
X43434Y60860
X44196Y65686
X44729Y58295
X45000Y49000
X45000Y48000
X45000Y47000
X45000Y46000
X45720Y64924
X46482Y62130
X46482Y51208
X50038Y64162
X51000Y50000
X51000Y49000
X51054Y64416
X51130Y59590
X53340Y56288
X53848Y52478
X54991Y7774
X54991Y7012
X55372Y63146
X55372Y54256
X55626Y59590
X55880Y17680
X56134Y22252
X56134Y20093
X56134Y11330
X56134Y9806
X56388Y23776
X56388Y7774
X56388Y7012
X57404Y14632
X58420Y17680
X58801Y14505
X58801Y10060
X59436Y16156
X59436Y9044
X59436Y7774
X59436Y7012
X61092Y69348
X63119Y11584
X63119Y10060
X64008Y8282
X64770Y24538
X65532Y15394
X65659Y20474
X69596Y18442
X69596Y13870
T3
X18542Y50954
X20066Y57304
X51816Y4853
X51816Y3456
X51816Y2059
X61595Y7266
X64516Y3456
X64516Y2059
X65862Y62546
T4
X21666Y69760
X26766Y68160
X34076Y24384
X34112Y69847
X34112Y67347
X36576Y24384
T5
X10427Y70109
X10427Y68109
X11716Y32428
X11716Y30428
X11938Y42572
X11938Y40572
X12427Y70109
X12427Y68109
X13716Y32428
X13716Y30428
X13938Y42572
X13938Y40572
X14427Y70109
X14427Y68109
X16427Y70109
X16427Y68109
X20416Y32428
X20416Y30428
X22300Y5302
X22300Y3302
X22416Y32428
X22416Y30428
X23698Y41058
X24300Y5302
X24300Y3302
X24416Y32428
X24416Y30428
X26198Y41058
X26416Y32428
X26416Y30428
X28698Y41058
X31198Y41058
X33698Y41058
X36198Y41058
X41148Y14192
X41148Y12192
X41942Y32004
X41942Y30004
X43148Y14192
X43148Y12192
X43942Y32004
X43942Y30004
X54000Y32000
X54000Y30000
X56000Y32000
X56000Y30000
T6
X3048Y25146
X3048Y20268
X3048Y17728
X3048Y15188
X3048Y12648
X5588Y25146
X5588Y20268
X5588Y17728
X5588Y15188
X5588Y12648
X8128Y25146
X10668Y25146
X31750Y33020
X36850Y31820
X57988Y61784
X57988Y59244
X57988Y56704
X57988Y54164
X57988Y51624
X57988Y49084
X57988Y44004
X57988Y41464
X73228Y61784
X73228Y59244
X73228Y56704
X73228Y54164
X73228Y51624
X73228Y49084
X73228Y46544
X73228Y44004
X73228Y41464
T7
X42494Y47306
X42494Y42226
T8
X4000Y69000
X71000Y5000
T9
X53680Y5750
X53680Y5650
X53680Y5550
X53680Y5450
X53680Y5350
X53680Y5250
X53680Y5150
X53680Y5050
X53680Y1950
X53680Y1850
X53680Y1750
X53680Y1650
X53680Y1550
X53680Y1450
X53680Y1350
X53680Y1250
X62320Y5750
X62320Y5650
X62320Y5600
X62320Y5550
X62320Y5450
X62320Y5350
X62320Y5250
X62320Y5150
X62320Y5050
X62320Y1950
X62320Y1850
X62320Y1750
X62320Y1650
X62320Y1550
X62320Y1450
X62320Y1350
X62320Y1250
T10
X4000Y42000
X4000Y31000
X4000Y4000
X43000Y21000
X71000Y31000
X76000Y69000
T2
G00X53680Y5750
M15
G01X53680Y5050
M16
G05
G00X53680Y1950
M15
G01X53680Y1250
M16
G05
G00X62320Y5750
M15
G01X62320Y5050
M16
G05
G00X62320Y1950
M15
G01X62320Y1250
M16
G05
T0
M30
