G04 #@! TF.GenerationSoftware,KiCad,Pcbnew,(5.1.10-1-10_14)*
G04 #@! TF.CreationDate,2022-03-22T14:27:17+09:00*
G04 #@! TF.ProjectId,EH-900,45482d39-3030-42e6-9b69-6361645f7063,rev?*
G04 #@! TF.SameCoordinates,PX5f5e100PY510ff40*
G04 #@! TF.FileFunction,Soldermask,Bot*
G04 #@! TF.FilePolarity,Negative*
%FSLAX46Y46*%
G04 Gerber Fmt 4.6, Leading zero omitted, Abs format (unit mm)*
G04 Created by KiCad (PCBNEW (5.1.10-1-10_14)) date 2022-03-22 14:27:17*
%MOMM*%
%LPD*%
G01*
G04 APERTURE LIST*
%ADD10C,0.500000*%
%ADD11O,1.000000X2.000000*%
%ADD12C,3.200000*%
%ADD13O,1.700000X1.700000*%
%ADD14R,1.700000X1.700000*%
%ADD15C,1.600000*%
%ADD16R,1.600000X1.600000*%
%ADD17C,4.000000*%
%ADD18C,5.600000*%
%ADD19C,3.600000*%
%ADD20C,2.010000*%
%ADD21O,1.200000X1.650000*%
%ADD22O,1.650000X1.200000*%
%ADD23O,1.700000X1.850000*%
%ADD24O,2.400000X2.400000*%
%ADD25C,2.400000*%
%ADD26C,1.200000*%
%ADD27C,0.600000*%
%ADD28C,0.800000*%
G04 APERTURE END LIST*
D10*
G04 #@! TO.C,J301*
X62320000Y5050000D03*
X62320000Y5750000D03*
D11*
X53680000Y5400000D03*
X62320000Y5400000D03*
X53680000Y1600000D03*
X62320000Y1600000D03*
D10*
X62320000Y5400000D03*
G04 #@! TD*
D12*
G04 #@! TO.C,REF\u002A\u002A*
X71000000Y31000000D03*
G04 #@! TD*
G04 #@! TO.C,REF\u002A\u002A*
X4000000Y42000000D03*
G04 #@! TD*
D13*
G04 #@! TO.C,CN204*
X3048000Y25146000D03*
X5588000Y25146000D03*
X8128000Y25146000D03*
D14*
X10668000Y25146000D03*
G04 #@! TD*
D13*
G04 #@! TO.C,CN201*
X5588000Y20268000D03*
X3048000Y20268000D03*
X5588000Y17728000D03*
X3048000Y17728000D03*
X5588000Y15188000D03*
X3048000Y15188000D03*
X5588000Y12648000D03*
D14*
X3048000Y12648000D03*
G04 #@! TD*
D15*
G04 #@! TO.C,C210*
X34076000Y24384000D03*
D16*
X36576000Y24384000D03*
G04 #@! TD*
D12*
G04 #@! TO.C,REF\u002A\u002A*
X76000000Y69000000D03*
G04 #@! TD*
D17*
G04 #@! TO.C,REF\u002A\u002A*
X71000000Y5000000D03*
D18*
X71000000Y5000000D03*
G04 #@! TD*
D19*
G04 #@! TO.C,REF\u002A\u002A*
X4000000Y69000000D03*
D18*
X4000000Y69000000D03*
G04 #@! TD*
D15*
G04 #@! TO.C,F401*
X26766000Y68160000D03*
X21666000Y69760000D03*
G04 #@! TD*
D20*
G04 #@! TO.C,F201*
X36850000Y31820000D03*
X31750000Y33020000D03*
G04 #@! TD*
D21*
G04 #@! TO.C,CN401*
X13938000Y40572000D03*
X11938000Y40572000D03*
X13938000Y42572000D03*
G36*
G01*
X11338000Y41996999D02*
X11338000Y43147001D01*
G75*
G02*
X11587999Y43397000I249999J0D01*
G01*
X12288001Y43397000D01*
G75*
G02*
X12538000Y43147001I0J-249999D01*
G01*
X12538000Y41996999D01*
G75*
G02*
X12288001Y41747000I-249999J0D01*
G01*
X11587999Y41747000D01*
G75*
G02*
X11338000Y41996999I0J249999D01*
G01*
G37*
G04 #@! TD*
G04 #@! TO.C,CN301*
X56000000Y30000000D03*
X54000000Y30000000D03*
X56000000Y32000000D03*
G36*
G01*
X53400000Y31424999D02*
X53400000Y32575001D01*
G75*
G02*
X53649999Y32825000I249999J0D01*
G01*
X54350001Y32825000D01*
G75*
G02*
X54600000Y32575001I0J-249999D01*
G01*
X54600000Y31424999D01*
G75*
G02*
X54350001Y31175000I-249999J0D01*
G01*
X53649999Y31175000D01*
G75*
G02*
X53400000Y31424999I0J249999D01*
G01*
G37*
G04 #@! TD*
D22*
G04 #@! TO.C,CN207*
X43148000Y14192000D03*
X43148000Y12192000D03*
X41148000Y14192000D03*
G36*
G01*
X41723001Y11592000D02*
X40572999Y11592000D01*
G75*
G02*
X40323000Y11841999I0J249999D01*
G01*
X40323000Y12542001D01*
G75*
G02*
X40572999Y12792000I249999J0D01*
G01*
X41723001Y12792000D01*
G75*
G02*
X41973000Y12542001I0J-249999D01*
G01*
X41973000Y11841999D01*
G75*
G02*
X41723001Y11592000I-249999J0D01*
G01*
G37*
G04 #@! TD*
G04 #@! TO.C,CN206*
X41942000Y30004000D03*
X41942000Y32004000D03*
X43942000Y30004000D03*
G36*
G01*
X43366999Y32604000D02*
X44517001Y32604000D01*
G75*
G02*
X44767000Y32354001I0J-249999D01*
G01*
X44767000Y31653999D01*
G75*
G02*
X44517001Y31404000I-249999J0D01*
G01*
X43366999Y31404000D01*
G75*
G02*
X43117000Y31653999I0J249999D01*
G01*
X43117000Y32354001D01*
G75*
G02*
X43366999Y32604000I249999J0D01*
G01*
G37*
G04 #@! TD*
G04 #@! TO.C,CN203*
X24300000Y5302000D03*
X24300000Y3302000D03*
X22300000Y5302000D03*
G36*
G01*
X22875001Y2702000D02*
X21724999Y2702000D01*
G75*
G02*
X21475000Y2951999I0J249999D01*
G01*
X21475000Y3652001D01*
G75*
G02*
X21724999Y3902000I249999J0D01*
G01*
X22875001Y3902000D01*
G75*
G02*
X23125000Y3652001I0J-249999D01*
G01*
X23125000Y2951999D01*
G75*
G02*
X22875001Y2702000I-249999J0D01*
G01*
G37*
G04 #@! TD*
D21*
G04 #@! TO.C,CN202*
X11716000Y32428000D03*
X13716000Y32428000D03*
X11716000Y30428000D03*
G36*
G01*
X14316000Y31003001D02*
X14316000Y29852999D01*
G75*
G02*
X14066001Y29603000I-249999J0D01*
G01*
X13365999Y29603000D01*
G75*
G02*
X13116000Y29852999I0J249999D01*
G01*
X13116000Y31003001D01*
G75*
G02*
X13365999Y31253000I249999J0D01*
G01*
X14066001Y31253000D01*
G75*
G02*
X14316000Y31003001I0J-249999D01*
G01*
G37*
G04 #@! TD*
D12*
G04 #@! TO.C,REF\u002A\u002A*
X43000000Y21000000D03*
G04 #@! TD*
G04 #@! TO.C,REF\u002A\u002A*
X4000000Y4000000D03*
G04 #@! TD*
G04 #@! TO.C,REF\u002A\u002A*
X4000000Y31000000D03*
G04 #@! TD*
D23*
G04 #@! TO.C,CN403*
X36198000Y41058000D03*
X33698000Y41058000D03*
X31198000Y41058000D03*
X28698000Y41058000D03*
X26198000Y41058000D03*
G36*
G01*
X22848000Y40383000D02*
X22848000Y41733000D01*
G75*
G02*
X23098000Y41983000I250000J0D01*
G01*
X24298000Y41983000D01*
G75*
G02*
X24548000Y41733000I0J-250000D01*
G01*
X24548000Y40383000D01*
G75*
G02*
X24298000Y40133000I-250000J0D01*
G01*
X23098000Y40133000D01*
G75*
G02*
X22848000Y40383000I0J250000D01*
G01*
G37*
G04 #@! TD*
D24*
G04 #@! TO.C,R419*
X42494000Y42226000D03*
D25*
X42494000Y47306000D03*
G04 #@! TD*
D13*
G04 #@! TO.C,U409*
X57988000Y41464000D03*
X57988000Y44004000D03*
X57988000Y49084000D03*
X57988000Y51624000D03*
X57988000Y54164000D03*
X57988000Y56704000D03*
X57988000Y59244000D03*
X57988000Y61784000D03*
X73228000Y54164000D03*
X73228000Y56704000D03*
X73228000Y61784000D03*
X73228000Y49084000D03*
X73228000Y46544000D03*
X73228000Y59244000D03*
X73228000Y51624000D03*
X73228000Y44004000D03*
D14*
X73228000Y41464000D03*
G04 #@! TD*
D21*
G04 #@! TO.C,CN402*
X10427000Y70109000D03*
X12427000Y70109000D03*
X14427000Y70109000D03*
X16427000Y70109000D03*
X10427000Y68109000D03*
X12427000Y68109000D03*
X14427000Y68109000D03*
G36*
G01*
X17027000Y68684001D02*
X17027000Y67533999D01*
G75*
G02*
X16777001Y67284000I-249999J0D01*
G01*
X16076999Y67284000D01*
G75*
G02*
X15827000Y67533999I0J249999D01*
G01*
X15827000Y68684001D01*
G75*
G02*
X16076999Y68934000I249999J0D01*
G01*
X16777001Y68934000D01*
G75*
G02*
X17027000Y68684001I0J-249999D01*
G01*
G37*
G04 #@! TD*
D15*
G04 #@! TO.C,C410*
X34112000Y69847000D03*
D16*
X34112000Y67347000D03*
G04 #@! TD*
D21*
G04 #@! TO.C,CN205*
X20416000Y32428000D03*
X22416000Y32428000D03*
X24416000Y32428000D03*
X26416000Y32428000D03*
X20416000Y30428000D03*
X22416000Y30428000D03*
X24416000Y30428000D03*
G36*
G01*
X27016000Y31003001D02*
X27016000Y29852999D01*
G75*
G02*
X26766001Y29603000I-249999J0D01*
G01*
X26065999Y29603000D01*
G75*
G02*
X25816000Y29852999I0J249999D01*
G01*
X25816000Y31003001D01*
G75*
G02*
X26065999Y31253000I249999J0D01*
G01*
X26766001Y31253000D01*
G75*
G02*
X27016000Y31003001I0J-249999D01*
G01*
G37*
G04 #@! TD*
D26*
X64516000Y3456000D03*
X51816000Y3456000D03*
X51816000Y4853000D03*
X51816000Y2059000D03*
X64516000Y2059000D03*
X61595000Y7266000D03*
D27*
X56134000Y11330000D03*
X56134000Y9806000D03*
X19050000Y16002000D03*
X8382000Y15748000D03*
D28*
X16256000Y20320000D03*
X26162000Y10922000D03*
X18034000Y24638000D03*
X24384000Y23622000D03*
X9906000Y12192000D03*
X31496000Y20066000D03*
X30838627Y12498627D03*
X29210000Y16510000D03*
D27*
X18796000Y17526000D03*
X20320000Y14732000D03*
X20320000Y16002000D03*
D28*
X29972000Y27432000D03*
X43180000Y4572000D03*
X35814000Y14224000D03*
D27*
X27178000Y13462000D03*
X23622000Y13462000D03*
X21844000Y9906000D03*
X28702000Y5334000D03*
X23622000Y15494000D03*
X35052000Y4774000D03*
X23622000Y14478000D03*
X33528000Y12446000D03*
X24130000Y21844000D03*
X28778000Y56958000D03*
X33096000Y56450000D03*
X34366000Y63816000D03*
X15494000Y59844000D03*
X15494000Y58828000D03*
X15494000Y57812000D03*
X16510000Y57812000D03*
X39624000Y60860000D03*
X40894000Y60860000D03*
X42164000Y60860000D03*
X43434000Y60860000D03*
X21590000Y59844000D03*
X21590000Y58828000D03*
X20066000Y55018000D03*
X20066000Y54002000D03*
X20066000Y52986000D03*
X33020000Y59082000D03*
X29718000Y50700000D03*
X38354000Y54256000D03*
X38354000Y53240000D03*
X36322000Y45366000D03*
X37338000Y45366000D03*
X23190000Y47306000D03*
X36398000Y49338000D03*
X30104798Y55717112D03*
D26*
X20066000Y57304000D03*
D27*
X61092012Y69347988D03*
X44196000Y65686000D03*
X23876000Y65178000D03*
X7874000Y58828000D03*
X8636000Y59844000D03*
X24892000Y64416000D03*
X46482000Y62130000D03*
X45720000Y64924000D03*
X12436000Y64416000D03*
X5588000Y52986000D03*
X28194000Y58320000D03*
X35306000Y56288000D03*
X53848000Y52478000D03*
X32842000Y61530000D03*
X28448000Y60606000D03*
X46482000Y51208000D03*
X39624000Y58320000D03*
D26*
X65862000Y62546000D03*
D27*
X51000000Y49000000D03*
X51000000Y50000000D03*
X45000000Y46000000D03*
X45000000Y47000000D03*
X45000000Y48000000D03*
X45000000Y49000000D03*
X53340000Y56288000D03*
X55372000Y63146000D03*
X51054000Y64416000D03*
X51130000Y59590000D03*
X55626000Y59590000D03*
X55372000Y54256000D03*
X12522000Y62292000D03*
X34036000Y61784000D03*
X25400000Y61622000D03*
X44728812Y58295188D03*
X50038000Y64162000D03*
X12700000Y50954000D03*
D26*
X18542000Y50954000D03*
D27*
X4317988Y49938000D03*
X63119000Y11584000D03*
X63119000Y10060000D03*
X69596000Y13870000D03*
X69596000Y18442000D03*
X64770000Y24538000D03*
X65659000Y20474000D03*
X64008000Y8282000D03*
D28*
X56388000Y7774000D03*
X56388000Y7012000D03*
X59436000Y7012000D03*
X59436000Y7774000D03*
X54991000Y7774000D03*
X54991000Y7012000D03*
D27*
X56388000Y23776000D03*
X55880000Y17680000D03*
X56134000Y22252000D03*
X56134000Y20093000D03*
X58420000Y17680000D03*
X58801000Y10060000D03*
X58801000Y14505000D03*
X59436000Y9044000D03*
X59436000Y16156000D03*
X65532000Y15394000D03*
X57404000Y14632000D03*
M02*
