M48
; DRILL file {KiCad (5.1.10-1-10_14)} date Thursday, May 12, 2022 at 09:45:19 AM
; FORMAT={3:3/ absolute / metric / suppress leading zeros}
; #@! TF.CreationDate,2022-05-12T09:45:19+09:00
; #@! TF.GenerationSoftware,Kicad,Pcbnew,(5.1.10-1-10_14)
FMAT,2
METRIC,TZ
T1C0.300
T2C0.500
T3C0.600
T4C0.762
T5C0.800
T6C0.850
T7C1.000
T8C1.200
T9C3.200
T10C0.500
T11C3.200
%
G90
G05
T1
X4318Y49938
X5588Y52986
X7862Y58697
X8382Y15748
X8610Y59969
X9906Y12192
X12436Y64416
X12522Y62292
X12700Y50954
X15494Y59844
X15494Y58828
X15494Y57812
X16256Y20320
X16510Y57812
X16510Y45620
X17780Y45620
X18034Y24638
X18796Y17526
X19050Y45620
X19050Y16002
X20066Y55018
X20066Y54002
X20066Y52986
X20320Y16002
X20320Y14732
X21590Y59844
X21590Y58828
X21844Y9906
X23368Y47474
X23622Y15494
X23622Y14478
X23622Y13462
X23876Y65178
X24130Y21844
X24384Y23622
X24892Y64416
X25146Y52478
X25400Y61622
X26162Y10922
X26416Y52986
X27178Y13462
X28194Y58320
X28448Y60606
X28702Y5334
X28778Y56958
X29210Y16510
X29718Y50700
X29718Y49430
X29718Y48160
X29972Y27432
X30105Y55717
X30839Y12499
X31496Y20066
X32842Y61530
X33020Y59082
X33096Y56450
X33528Y12446
X33782Y62130
X34290Y50446
X34366Y63816
X35052Y4774
X35306Y56288
X35560Y63816
X35814Y14314
X36322Y45366
X36830Y63816
X37338Y45366
X37592Y54256
X37592Y53240
X39624Y60860
X39624Y58320
X40894Y60860
X42164Y60860
X43180Y4572
X43434Y60860
X44196Y65686
X44835Y58443
X45000Y49000
X45000Y48000
X45000Y47000
X45000Y46000
X45720Y64924
X46228Y62130
X46482Y51208
X50038Y64162
X51000Y50000
X51000Y49000
X51054Y64416
X51130Y59590
X53340Y56288
X53848Y52478
X55372Y63146
X55372Y54256
X55372Y21236
X55372Y20220
X55372Y19204
X55626Y59590
X56134Y11330
X56134Y9806
X56388Y22633
X56388Y20093
X56388Y17426
X56409Y14865
X57531Y6758
X57747Y13019
X57912Y25300
X58550Y6755
X58801Y13616
X58928Y17426
X58928Y24538
X59436Y21744
X59436Y20728
X59436Y19712
X59436Y18696
X59436Y15940
X61092Y69348
X63119Y11584
X63119Y10060
X64008Y8282
X64770Y24538
X65532Y20474
X65532Y15394
X69596Y18442
X69596Y13870
X79756Y14632
X80772Y24792
X80772Y21744
X80772Y18696
X80772Y1424
X81788Y1424
X82804Y1424
X83820Y1424
X84836Y1424
X85852Y1424
X86868Y1424
X87884Y1424
X88900Y1424
X98044Y1424
X99060Y1424
X100076Y1424
X101092Y1424
X102108Y1424
X103124Y1424
T3
X18542Y50954
X19558Y57304
X51816Y4853
X51816Y3456
X51816Y2059
X61595Y7266
X64516Y3456
X64516Y2059
X65862Y62546
T4
X84074Y14560
X84074Y10060
X84074Y7770
X84074Y5480
X88174Y16410
X88174Y3710
X90424Y16410
X90424Y3710
X92674Y16410
X92674Y3710
X96774Y14560
X96774Y10060
X96774Y7810
X96774Y5560
T5
X21666Y69760
X26766Y68160
X34076Y24384
X34112Y69847
X34112Y67347
X36576Y24384
T6
X10427Y70109
X10427Y68109
X11716Y32428
X11716Y30428
X11938Y42572
X11938Y40572
X12427Y70109
X12427Y68109
X13716Y32428
X13716Y30428
X13938Y42572
X13938Y40572
X14427Y70109
X14427Y68109
X16427Y70109
X16427Y68109
X20416Y32428
X20416Y30428
X22300Y5302
X22300Y3302
X22416Y32428
X22416Y30428
X23698Y41058
X24300Y5302
X24300Y3302
X24416Y32428
X24416Y30428
X26198Y41058
X26416Y32428
X26416Y30428
X28698Y41058
X31198Y41058
X33698Y41058
X36198Y41058
X41148Y14192
X41148Y12192
X41942Y32004
X41942Y30004
X43148Y14192
X43148Y12192
X43942Y32004
X43942Y30004
X53848Y31872
X53848Y29872
X55848Y31872
X55848Y29872
X81788Y32412
X81788Y30412
X83788Y32412
X83788Y30412
X85788Y32412
X85788Y30412
X100108Y32634
X100108Y30634
X102108Y32634
X102108Y30634
T7
X3048Y25146
X3048Y20268
X3048Y17728
X3048Y15188
X3048Y12648
X5588Y25146
X5588Y20268
X5588Y17728
X5588Y15188
X5588Y12648
X8128Y25146
X10668Y25146
X31750Y33020
X36850Y31820
X57988Y61784
X57988Y59244
X57988Y56704
X57988Y54164
X57988Y51624
X57988Y49084
X57988Y44004
X57988Y41464
X73228Y61784
X73228Y59244
X73228Y56704
X73228Y54164
X73228Y51624
X73228Y49084
X73228Y46544
X73228Y44004
X73228Y41464
T8
X42494Y47306
X42494Y42226
T9
X4000Y69000
X71000Y5000
T10
X53680Y5750
X53680Y5650
X53680Y5550
X53680Y5450
X53680Y5350
X53680Y5250
X53680Y5150
X53680Y5050
X53680Y1950
X53680Y1850
X53680Y1750
X53680Y1650
X53680Y1550
X53680Y1450
X53680Y1350
X53680Y1250
X62320Y5750
X62320Y5650
X62320Y5600
X62320Y5550
X62320Y5450
X62320Y5350
X62320Y5250
X62320Y5150
X62320Y5050
X62320Y1950
X62320Y1850
X62320Y1750
X62320Y1650
X62320Y1550
X62320Y1450
X62320Y1350
X62320Y1250
T11
X4000Y42000
X4000Y31000
X4000Y4000
X43000Y21000
X71000Y31000
X76000Y69000
X100000Y21000
T2
G00X53680Y5750
M15
G01X53680Y5050
M16
G05
G00X53680Y1950
M15
G01X53680Y1250
M16
G05
G00X62320Y5750
M15
G01X62320Y5050
M16
G05
G00X62320Y1950
M15
G01X62320Y1250
M16
G05
T0
M30
