G04 #@! TF.GenerationSoftware,KiCad,Pcbnew,(6.0.11-0)*
G04 #@! TF.CreationDate,2023-06-08T14:13:11+09:00*
G04 #@! TF.ProjectId,EH-900,45482d39-3030-42e6-9b69-6361645f7063,rev?*
G04 #@! TF.SameCoordinates,PX5f5e100PY510ff40*
G04 #@! TF.FileFunction,Paste,Top*
G04 #@! TF.FilePolarity,Positive*
%FSLAX46Y46*%
G04 Gerber Fmt 4.6, Leading zero omitted, Abs format (unit mm)*
G04 Created by KiCad (PCBNEW (6.0.11-0)) date 2023-06-08 14:13:11*
%MOMM*%
%LPD*%
G01*
G04 APERTURE LIST*
G04 Aperture macros list*
%AMRoundRect*
0 Rectangle with rounded corners*
0 $1 Rounding radius*
0 $2 $3 $4 $5 $6 $7 $8 $9 X,Y pos of 4 corners*
0 Add a 4 corners polygon primitive as box body*
4,1,4,$2,$3,$4,$5,$6,$7,$8,$9,$2,$3,0*
0 Add four circle primitives for the rounded corners*
1,1,$1+$1,$2,$3*
1,1,$1+$1,$4,$5*
1,1,$1+$1,$6,$7*
1,1,$1+$1,$8,$9*
0 Add four rect primitives between the rounded corners*
20,1,$1+$1,$2,$3,$4,$5,0*
20,1,$1+$1,$4,$5,$6,$7,0*
20,1,$1+$1,$6,$7,$8,$9,0*
20,1,$1+$1,$8,$9,$2,$3,0*%
G04 Aperture macros list end*
%ADD10R,0.700000X1.150000*%
%ADD11R,0.800000X1.150000*%
%ADD12R,0.900000X1.150000*%
%ADD13RoundRect,0.150000X0.725000X0.150000X-0.725000X0.150000X-0.725000X-0.150000X0.725000X-0.150000X0*%
%ADD14RoundRect,0.237500X0.250000X0.237500X-0.250000X0.237500X-0.250000X-0.237500X0.250000X-0.237500X0*%
%ADD15RoundRect,0.237500X0.237500X-0.250000X0.237500X0.250000X-0.237500X0.250000X-0.237500X-0.250000X0*%
%ADD16R,1.145000X1.145000*%
%ADD17R,4.190000X1.905000*%
%ADD18R,1.905000X4.190000*%
%ADD19R,0.900000X0.800000*%
%ADD20RoundRect,0.249997X0.412503X0.650003X-0.412503X0.650003X-0.412503X-0.650003X0.412503X-0.650003X0*%
%ADD21RoundRect,0.237500X0.237500X-0.300000X0.237500X0.300000X-0.237500X0.300000X-0.237500X-0.300000X0*%
%ADD22RoundRect,0.250000X0.275000X0.275000X-0.275000X0.275000X-0.275000X-0.275000X0.275000X-0.275000X0*%
%ADD23RoundRect,0.062500X0.062500X0.350000X-0.062500X0.350000X-0.062500X-0.350000X0.062500X-0.350000X0*%
%ADD24RoundRect,0.062500X0.350000X0.062500X-0.350000X0.062500X-0.350000X-0.062500X0.350000X-0.062500X0*%
%ADD25RoundRect,0.160000X0.160000X-0.197500X0.160000X0.197500X-0.160000X0.197500X-0.160000X-0.197500X0*%
%ADD26RoundRect,0.237500X0.287500X0.237500X-0.287500X0.237500X-0.287500X-0.237500X0.287500X-0.237500X0*%
%ADD27RoundRect,0.160000X-0.197500X-0.160000X0.197500X-0.160000X0.197500X0.160000X-0.197500X0.160000X0*%
%ADD28RoundRect,0.160000X-0.160000X0.197500X-0.160000X-0.197500X0.160000X-0.197500X0.160000X0.197500X0*%
%ADD29RoundRect,0.237500X-0.250000X-0.237500X0.250000X-0.237500X0.250000X0.237500X-0.250000X0.237500X0*%
%ADD30R,1.500000X0.450000*%
%ADD31R,1.100000X1.400000*%
%ADD32RoundRect,0.250000X-0.337500X-0.475000X0.337500X-0.475000X0.337500X0.475000X-0.337500X0.475000X0*%
%ADD33RoundRect,0.155000X-0.212500X-0.155000X0.212500X-0.155000X0.212500X0.155000X-0.212500X0.155000X0*%
%ADD34RoundRect,0.249997X-0.412503X-1.100003X0.412503X-1.100003X0.412503X1.100003X-0.412503X1.100003X0*%
%ADD35RoundRect,0.237500X-0.300000X-0.237500X0.300000X-0.237500X0.300000X0.237500X-0.300000X0.237500X0*%
%ADD36R,1.560000X0.650000*%
%ADD37RoundRect,0.075000X0.075000X-0.650000X0.075000X0.650000X-0.075000X0.650000X-0.075000X-0.650000X0*%
%ADD38RoundRect,0.250000X0.475000X-0.337500X0.475000X0.337500X-0.475000X0.337500X-0.475000X-0.337500X0*%
%ADD39RoundRect,0.155000X-0.155000X0.212500X-0.155000X-0.212500X0.155000X-0.212500X0.155000X0.212500X0*%
%ADD40RoundRect,0.155000X0.212500X0.155000X-0.212500X0.155000X-0.212500X-0.155000X0.212500X-0.155000X0*%
%ADD41RoundRect,0.160000X0.197500X0.160000X-0.197500X0.160000X-0.197500X-0.160000X0.197500X-0.160000X0*%
%ADD42R,1.800000X2.100000*%
%ADD43RoundRect,0.155000X0.155000X-0.212500X0.155000X0.212500X-0.155000X0.212500X-0.155000X-0.212500X0*%
%ADD44R,1.800000X2.250000*%
%ADD45RoundRect,0.250000X0.337500X0.475000X-0.337500X0.475000X-0.337500X-0.475000X0.337500X-0.475000X0*%
%ADD46R,0.700000X0.450000*%
%ADD47R,0.450000X0.700000*%
%ADD48RoundRect,0.100000X0.712500X0.100000X-0.712500X0.100000X-0.712500X-0.100000X0.712500X-0.100000X0*%
%ADD49R,1.100000X0.400000*%
%ADD50R,1.000000X0.800000*%
%ADD51RoundRect,0.237500X-0.237500X0.250000X-0.237500X-0.250000X0.237500X-0.250000X0.237500X0.250000X0*%
%ADD52RoundRect,0.249999X-0.400001X-1.075001X0.400001X-1.075001X0.400001X1.075001X-0.400001X1.075001X0*%
%ADD53RoundRect,0.112500X-0.112500X0.737500X-0.112500X-0.737500X0.112500X-0.737500X0.112500X0.737500X0*%
%ADD54RoundRect,0.075000X0.650000X0.075000X-0.650000X0.075000X-0.650000X-0.075000X0.650000X-0.075000X0*%
%ADD55RoundRect,0.150000X-0.800000X-0.150000X0.800000X-0.150000X0.800000X0.150000X-0.800000X0.150000X0*%
%ADD56R,0.650000X1.560000*%
%ADD57RoundRect,0.047500X0.427500X-0.577500X0.427500X0.577500X-0.427500X0.577500X-0.427500X-0.577500X0*%
%ADD58RoundRect,0.047500X0.577500X0.427500X-0.577500X0.427500X-0.577500X-0.427500X0.577500X-0.427500X0*%
%ADD59RoundRect,0.100000X0.100000X-0.637500X0.100000X0.637500X-0.100000X0.637500X-0.100000X-0.637500X0*%
%ADD60R,0.800000X0.900000*%
%ADD61RoundRect,0.125000X-0.125000X-0.625000X0.125000X-0.625000X0.125000X0.625000X-0.125000X0.625000X0*%
%ADD62RoundRect,0.125000X-0.625000X-0.125000X0.625000X-0.125000X0.625000X0.125000X-0.625000X0.125000X0*%
%ADD63RoundRect,0.218750X0.218750X0.256250X-0.218750X0.256250X-0.218750X-0.256250X0.218750X-0.256250X0*%
%ADD64RoundRect,0.237500X-0.237500X0.287500X-0.237500X-0.287500X0.237500X-0.287500X0.237500X0.287500X0*%
G04 APERTURE END LIST*
D10*
G04 #@! TO.C,J301*
X58500000Y5405000D03*
X57500000Y5405000D03*
D11*
X56480000Y5405000D03*
X59520000Y5405000D03*
D12*
X55250000Y5405000D03*
X60750000Y5405000D03*
G04 #@! TD*
D13*
G04 #@! TO.C,Q301*
X52797000Y18823000D03*
X52797000Y20093000D03*
X52797000Y21363000D03*
X52797000Y22633000D03*
X57947000Y22633000D03*
X57947000Y21363000D03*
X57947000Y20093000D03*
X57947000Y18823000D03*
G04 #@! TD*
D14*
G04 #@! TO.C,R320*
X90019500Y1424000D03*
X91844500Y1424000D03*
G04 #@! TD*
G04 #@! TO.C,R319*
X93575500Y1424000D03*
X95400500Y1424000D03*
G04 #@! TD*
D15*
G04 #@! TO.C,R318*
X81026000Y12496500D03*
X81026000Y10671500D03*
G04 #@! TD*
G04 #@! TO.C,R317*
X81026000Y16560500D03*
X81026000Y14735500D03*
G04 #@! TD*
D16*
G04 #@! TO.C,U302*
X85854000Y10060000D03*
D17*
X86994000Y14630000D03*
X91564000Y14630000D03*
D18*
X94994000Y13490000D03*
D16*
X94994000Y10060000D03*
X94994000Y5490000D03*
X90424000Y5490000D03*
X88134000Y5490000D03*
X85854000Y5490000D03*
X85854000Y7770000D03*
X94994000Y7770000D03*
X92714000Y5490000D03*
G04 #@! TD*
D19*
G04 #@! TO.C,D403*
X9160000Y46890000D03*
X11160000Y47840000D03*
X11160000Y45940000D03*
G04 #@! TD*
D20*
G04 #@! TO.C,C312*
X90131500Y19712000D03*
X93256500Y19712000D03*
G04 #@! TD*
D21*
G04 #@! TO.C,C311*
X81026000Y8636500D03*
X81026000Y6911500D03*
G04 #@! TD*
D20*
G04 #@! TO.C,C310*
X82511500Y24792000D03*
X85636500Y24792000D03*
G04 #@! TD*
G04 #@! TO.C,C309*
X82511500Y18696000D03*
X85636500Y18696000D03*
G04 #@! TD*
G04 #@! TO.C,C308*
X82511500Y21744000D03*
X85636500Y21744000D03*
G04 #@! TD*
D22*
G04 #@! TO.C,U301*
X61834000Y15790000D03*
X61834000Y14490000D03*
X63134000Y15790000D03*
X63134000Y14490000D03*
D23*
X63734000Y13202500D03*
X63234000Y13202500D03*
X62734000Y13202500D03*
X62234000Y13202500D03*
X61734000Y13202500D03*
X61234000Y13202500D03*
D24*
X60546500Y13890000D03*
X60546500Y14390000D03*
X60546500Y14890000D03*
X60546500Y15390000D03*
X60546500Y15890000D03*
X60546500Y16390000D03*
D23*
X61234000Y17077500D03*
X61734000Y17077500D03*
X62234000Y17077500D03*
X62734000Y17077500D03*
X63234000Y17077500D03*
X63734000Y17077500D03*
D24*
X64421500Y16390000D03*
X64421500Y15890000D03*
X64421500Y15390000D03*
X64421500Y14890000D03*
X64421500Y14390000D03*
X64421500Y13890000D03*
G04 #@! TD*
D25*
G04 #@! TO.C,R305*
X64516000Y6212500D03*
X64516000Y5017500D03*
G04 #@! TD*
D26*
G04 #@! TO.C,D302*
X66689000Y20474000D03*
X68439000Y20474000D03*
G04 #@! TD*
D27*
G04 #@! TO.C,R316*
X71717500Y20474000D03*
X70522500Y20474000D03*
G04 #@! TD*
D28*
G04 #@! TO.C,R315*
X66802000Y22416500D03*
X66802000Y23611500D03*
G04 #@! TD*
G04 #@! TO.C,R314*
X58166000Y15050500D03*
X58166000Y16245500D03*
G04 #@! TD*
D25*
G04 #@! TO.C,R313*
X63500000Y21325500D03*
X63500000Y20130500D03*
G04 #@! TD*
G04 #@! TO.C,R312*
X64770000Y23611500D03*
X64770000Y22416500D03*
G04 #@! TD*
D27*
G04 #@! TO.C,R311*
X55207500Y13870000D03*
X54012500Y13870000D03*
G04 #@! TD*
G04 #@! TO.C,R310*
X57747500Y13870000D03*
X56552500Y13870000D03*
G04 #@! TD*
D29*
G04 #@! TO.C,R309*
X68476500Y11838000D03*
X66651500Y11838000D03*
G04 #@! TD*
D14*
G04 #@! TO.C,R308*
X66651500Y13870000D03*
X68476500Y13870000D03*
G04 #@! TD*
G04 #@! TO.C,R307*
X70715500Y11838000D03*
X72540500Y11838000D03*
G04 #@! TD*
D29*
G04 #@! TO.C,R306*
X72540500Y13870000D03*
X70715500Y13870000D03*
G04 #@! TD*
G04 #@! TO.C,R304*
X68476500Y16410000D03*
X66651500Y16410000D03*
G04 #@! TD*
D14*
G04 #@! TO.C,R303*
X66651500Y18442000D03*
X68476500Y18442000D03*
G04 #@! TD*
G04 #@! TO.C,R302*
X70715500Y16410000D03*
X72540500Y16410000D03*
G04 #@! TD*
D29*
G04 #@! TO.C,R301*
X72540500Y18442000D03*
X70715500Y18442000D03*
G04 #@! TD*
D30*
G04 #@! TO.C,Q302*
X71688000Y23014000D03*
X69028000Y22364000D03*
X69028000Y23664000D03*
G04 #@! TD*
D31*
G04 #@! TO.C,D301*
X60960000Y19178000D03*
X60960000Y22278000D03*
G04 #@! TD*
D32*
G04 #@! TO.C,C307*
X56409500Y25300000D03*
X54334500Y25300000D03*
G04 #@! TD*
D21*
G04 #@! TO.C,C306*
X64516000Y11176500D03*
X64516000Y9451500D03*
G04 #@! TD*
D32*
G04 #@! TO.C,C305*
X56409500Y16156000D03*
X54334500Y16156000D03*
G04 #@! TD*
D33*
G04 #@! TO.C,C304*
X62035500Y11584000D03*
X60900500Y11584000D03*
G04 #@! TD*
G04 #@! TO.C,C303*
X62035500Y10187000D03*
X60900500Y10187000D03*
G04 #@! TD*
D34*
G04 #@! TO.C,C302*
X57442500Y10568000D03*
X54317500Y10568000D03*
G04 #@! TD*
D35*
G04 #@! TO.C,C301*
X62584500Y8536000D03*
X60859500Y8536000D03*
G04 #@! TD*
D36*
G04 #@! TO.C,U406*
X47672000Y62130000D03*
X47672000Y61180000D03*
X47672000Y63080000D03*
X50372000Y63080000D03*
X50372000Y62130000D03*
X50372000Y61180000D03*
G04 #@! TD*
D37*
G04 #@! TO.C,U403*
X25238000Y63070000D03*
X25738000Y63070000D03*
X26238000Y63070000D03*
X26738000Y63070000D03*
X27238000Y63070000D03*
X27238000Y58670000D03*
X26738000Y58670000D03*
X26238000Y58670000D03*
X25738000Y58670000D03*
X25238000Y58670000D03*
G04 #@! TD*
D38*
G04 #@! TO.C,C411*
X77292000Y44025500D03*
X77292000Y41950500D03*
G04 #@! TD*
D39*
G04 #@! TO.C,C405*
X16002000Y48354500D03*
X16002000Y49489500D03*
G04 #@! TD*
D14*
G04 #@! TO.C,R421*
X48185500Y44614000D03*
X50010500Y44614000D03*
G04 #@! TD*
D39*
G04 #@! TO.C,C209*
X31496000Y8830500D03*
X31496000Y9965500D03*
G04 #@! TD*
G04 #@! TO.C,C208*
X28194000Y8830500D03*
X28194000Y9965500D03*
G04 #@! TD*
G04 #@! TO.C,C206*
X14986000Y13910500D03*
X14986000Y15045500D03*
G04 #@! TD*
D40*
G04 #@! TO.C,C205*
X24832500Y9398000D03*
X25967500Y9398000D03*
G04 #@! TD*
D39*
G04 #@! TO.C,C204*
X16256000Y21784500D03*
X16256000Y22919500D03*
G04 #@! TD*
D40*
G04 #@! TO.C,C203*
X10100500Y9652000D03*
X11235500Y9652000D03*
G04 #@! TD*
D33*
G04 #@! TO.C,C202*
X13013500Y14224000D03*
X11878500Y14224000D03*
G04 #@! TD*
G04 #@! TO.C,C201*
X10600500Y22352000D03*
X9465500Y22352000D03*
G04 #@! TD*
D25*
G04 #@! TO.C,R217*
X32512000Y14313500D03*
X32512000Y13118500D03*
G04 #@! TD*
G04 #@! TO.C,R216*
X34544000Y14313500D03*
X34544000Y13118500D03*
G04 #@! TD*
D27*
G04 #@! TO.C,R215*
X42253500Y8636000D03*
X41058500Y8636000D03*
G04 #@! TD*
D25*
G04 #@! TO.C,R214*
X37084000Y14313500D03*
X37084000Y13118500D03*
G04 #@! TD*
D41*
G04 #@! TO.C,R213*
X36994500Y11430000D03*
X38189500Y11430000D03*
G04 #@! TD*
G04 #@! TO.C,R212*
X39534500Y2234000D03*
X40729500Y2234000D03*
G04 #@! TD*
D28*
G04 #@! TO.C,R211*
X19050000Y3720500D03*
X19050000Y4915500D03*
G04 #@! TD*
D25*
G04 #@! TO.C,R210*
X27940000Y3391500D03*
X27940000Y2196500D03*
G04 #@! TD*
D28*
G04 #@! TO.C,R209*
X28194000Y6260500D03*
X28194000Y7455500D03*
G04 #@! TD*
D27*
G04 #@! TO.C,R207*
X30952500Y5334000D03*
X29757500Y5334000D03*
G04 #@! TD*
G04 #@! TO.C,R205*
X29553500Y15240000D03*
X28358500Y15240000D03*
G04 #@! TD*
G04 #@! TO.C,R208*
X30950500Y6858000D03*
X29755500Y6858000D03*
G04 #@! TD*
D25*
G04 #@! TO.C,R206*
X29718000Y9995500D03*
X29718000Y8800500D03*
G04 #@! TD*
D27*
G04 #@! TO.C,R204*
X19139500Y22098000D03*
X17944500Y22098000D03*
G04 #@! TD*
G04 #@! TO.C,R203*
X23203500Y23622000D03*
X22008500Y23622000D03*
G04 #@! TD*
D28*
G04 #@! TO.C,R202*
X14986000Y16420500D03*
X14986000Y17615500D03*
G04 #@! TD*
D41*
G04 #@! TO.C,R201*
X17944500Y23622000D03*
X19139500Y23622000D03*
G04 #@! TD*
D42*
G04 #@! TO.C,Y201*
X12530000Y19686000D03*
X12530000Y16786000D03*
X10330000Y16786000D03*
X10330000Y19686000D03*
G04 #@! TD*
D39*
G04 #@! TO.C,C212*
X27940000Y17720500D03*
X27940000Y18855500D03*
G04 #@! TD*
D43*
G04 #@! TO.C,C407*
X12700000Y49997500D03*
X12700000Y48862500D03*
G04 #@! TD*
G04 #@! TO.C,C409*
X46990000Y57363500D03*
X46990000Y56228500D03*
G04 #@! TD*
D40*
G04 #@! TO.C,C408*
X48454500Y65178000D03*
X49589500Y65178000D03*
G04 #@! TD*
D39*
G04 #@! TO.C,C412*
X13716000Y61562500D03*
X13716000Y62697500D03*
G04 #@! TD*
D33*
G04 #@! TO.C,C406*
X27567500Y64832000D03*
X26432500Y64832000D03*
G04 #@! TD*
D40*
G04 #@! TO.C,C402*
X30750500Y57568000D03*
X31885500Y57568000D03*
G04 #@! TD*
D44*
G04 #@! TO.C,SW201*
X10492000Y2147000D03*
X10492000Y6997000D03*
X13892000Y6997000D03*
X13892000Y2147000D03*
G04 #@! TD*
D32*
G04 #@! TO.C,C213*
X32279500Y18288000D03*
X30204500Y18288000D03*
G04 #@! TD*
D45*
G04 #@! TO.C,C211*
X23854500Y26416000D03*
X25929500Y26416000D03*
G04 #@! TD*
D15*
G04 #@! TO.C,R424*
X42164000Y53644500D03*
X42164000Y51819500D03*
G04 #@! TD*
D29*
G04 #@! TO.C,R426*
X54252500Y62130000D03*
X52427500Y62130000D03*
G04 #@! TD*
D46*
G04 #@! TO.C,Q401*
X54086000Y54256000D03*
X52086000Y53606000D03*
X52086000Y54906000D03*
G04 #@! TD*
D47*
G04 #@! TO.C,Q202*
X30226000Y1667000D03*
X29576000Y3667000D03*
X30876000Y3667000D03*
G04 #@! TD*
G04 #@! TO.C,Q201*
X28956000Y13446000D03*
X29606000Y11446000D03*
X28306000Y11446000D03*
G04 #@! TD*
D35*
G04 #@! TO.C,C401*
X37260500Y51726000D03*
X35535500Y51726000D03*
G04 #@! TD*
D48*
G04 #@! TO.C,U408*
X49195500Y46931000D03*
X49195500Y47581000D03*
X49195500Y48231000D03*
X49195500Y48881000D03*
X53420500Y48881000D03*
X53420500Y48231000D03*
X53420500Y47581000D03*
X53420500Y46931000D03*
G04 #@! TD*
D49*
G04 #@! TO.C,U401*
X31868000Y55739000D03*
X31868000Y55089000D03*
X31868000Y54439000D03*
X31868000Y53789000D03*
X27568000Y53789000D03*
X27568000Y54439000D03*
X27568000Y55089000D03*
X27568000Y55739000D03*
G04 #@! TD*
D50*
G04 #@! TO.C,D402*
X35198000Y48424000D03*
X37598000Y49374000D03*
X37598000Y47474000D03*
G04 #@! TD*
G04 #@! TO.C,D401*
X24390000Y48424000D03*
X21990000Y47474000D03*
X21990000Y49374000D03*
G04 #@! TD*
D14*
G04 #@! TO.C,R403*
X26595500Y47662000D03*
X28420500Y47662000D03*
G04 #@! TD*
D29*
G04 #@! TO.C,R401*
X32992500Y47662000D03*
X31167500Y47662000D03*
G04 #@! TD*
G04 #@! TO.C,R425*
X36980500Y58320000D03*
X35155500Y58320000D03*
G04 #@! TD*
G04 #@! TO.C,R423*
X36980500Y61114000D03*
X35155500Y61114000D03*
G04 #@! TD*
G04 #@! TO.C,R422*
X7008500Y47906000D03*
X5183500Y47906000D03*
G04 #@! TD*
D51*
G04 #@! TO.C,R418*
X44704000Y51819500D03*
X44704000Y53644500D03*
G04 #@! TD*
D15*
G04 #@! TO.C,R417*
X49022000Y55676500D03*
X49022000Y53851500D03*
G04 #@! TD*
D14*
G04 #@! TO.C,R416*
X52427500Y64416000D03*
X54252500Y64416000D03*
G04 #@! TD*
D29*
G04 #@! TO.C,R414*
X31392500Y59590000D03*
X29567500Y59590000D03*
G04 #@! TD*
D14*
G04 #@! TO.C,R413*
X47855500Y51208000D03*
X49680500Y51208000D03*
G04 #@! TD*
D29*
G04 #@! TO.C,R412*
X31392500Y63654000D03*
X29567500Y63654000D03*
G04 #@! TD*
D14*
G04 #@! TO.C,R411*
X29567500Y61622000D03*
X31392500Y61622000D03*
G04 #@! TD*
D29*
G04 #@! TO.C,R410*
X25118500Y53758000D03*
X23293500Y53758000D03*
G04 #@! TD*
D51*
G04 #@! TO.C,R409*
X36322000Y53851500D03*
X36322000Y55676500D03*
G04 #@! TD*
G04 #@! TO.C,R408*
X34290000Y53851500D03*
X34290000Y55676500D03*
G04 #@! TD*
D29*
G04 #@! TO.C,R407*
X25118500Y55790000D03*
X23293500Y55790000D03*
G04 #@! TD*
G04 #@! TO.C,R406*
X32992500Y51726000D03*
X31167500Y51726000D03*
G04 #@! TD*
D14*
G04 #@! TO.C,R405*
X26595500Y51726000D03*
X28420500Y51726000D03*
G04 #@! TD*
G04 #@! TO.C,R404*
X26595500Y49694000D03*
X28420500Y49694000D03*
G04 #@! TD*
G04 #@! TO.C,R402*
X31167500Y49694000D03*
X32992500Y49694000D03*
G04 #@! TD*
G04 #@! TO.C,R415*
X52427500Y59590000D03*
X54252500Y59590000D03*
G04 #@! TD*
G04 #@! TO.C,R420*
X52427500Y57558000D03*
X54252500Y57558000D03*
G04 #@! TD*
D15*
G04 #@! TO.C,R431*
X3048000Y51612500D03*
X3048000Y49787500D03*
G04 #@! TD*
G04 #@! TO.C,R430*
X12700000Y54152500D03*
X12700000Y52327500D03*
G04 #@! TD*
D29*
G04 #@! TO.C,R429*
X53744500Y51208000D03*
X51919500Y51208000D03*
G04 #@! TD*
G04 #@! TO.C,R428*
X54178000Y44614000D03*
X52353000Y44614000D03*
G04 #@! TD*
D21*
G04 #@! TO.C,C413*
X46736000Y48768500D03*
X46736000Y47043500D03*
G04 #@! TD*
D52*
G04 #@! TO.C,R427*
X52680000Y41566000D03*
X49580000Y41566000D03*
G04 #@! TD*
D53*
G04 #@! TO.C,U407*
X44835000Y56244000D03*
X44185000Y56244000D03*
X43535000Y56244000D03*
X42885000Y56244000D03*
X42235000Y56244000D03*
X41585000Y56244000D03*
X40935000Y56244000D03*
X40285000Y56244000D03*
X39635000Y56244000D03*
X38985000Y56244000D03*
X38985000Y63444000D03*
X39635000Y63444000D03*
X40285000Y63444000D03*
X40935000Y63444000D03*
X41585000Y63444000D03*
X42235000Y63444000D03*
X42885000Y63444000D03*
X43535000Y63444000D03*
X44185000Y63444000D03*
X44835000Y63444000D03*
G04 #@! TD*
D54*
G04 #@! TO.C,U405*
X5674000Y49954000D03*
X5674000Y50454000D03*
X5674000Y50954000D03*
X5674000Y51454000D03*
X5674000Y51954000D03*
X10074000Y51954000D03*
X10074000Y51454000D03*
X10074000Y50954000D03*
X10074000Y50454000D03*
X10074000Y49954000D03*
G04 #@! TD*
D55*
G04 #@! TO.C,U402*
X10358000Y62511000D03*
X10358000Y61241000D03*
X10358000Y59971000D03*
X10358000Y58701000D03*
X3358000Y58701000D03*
X3358000Y59971000D03*
X3358000Y61241000D03*
X3358000Y62511000D03*
G04 #@! TD*
D56*
G04 #@! TO.C,U404*
X18476000Y52906000D03*
X16576000Y52906000D03*
X16576000Y55606000D03*
X17526000Y55606000D03*
X18476000Y55606000D03*
G04 #@! TD*
D57*
G04 #@! TO.C,L402*
X19542000Y59247000D03*
X19542000Y63997000D03*
X17542000Y63997000D03*
X17542000Y59247000D03*
G04 #@! TD*
D58*
G04 #@! TO.C,L401*
X68237000Y69388000D03*
X63487000Y69388000D03*
X63487000Y67388000D03*
X68237000Y67388000D03*
G04 #@! TD*
D59*
G04 #@! TO.C,U203*
X33610000Y8958500D03*
X34260000Y8958500D03*
X34910000Y8958500D03*
X35560000Y8958500D03*
X36210000Y8958500D03*
X36860000Y8958500D03*
X37510000Y8958500D03*
X37510000Y3233500D03*
X36860000Y3233500D03*
X36210000Y3233500D03*
X35560000Y3233500D03*
X34910000Y3233500D03*
X34260000Y3233500D03*
X33610000Y3233500D03*
G04 #@! TD*
D60*
G04 #@! TO.C,D201*
X40894000Y6588000D03*
X41844000Y4588000D03*
X39944000Y4588000D03*
G04 #@! TD*
D56*
G04 #@! TO.C,U204*
X29906000Y21002000D03*
X28006000Y21002000D03*
X28006000Y23702000D03*
X28956000Y23702000D03*
X29906000Y23702000D03*
G04 #@! TD*
D61*
G04 #@! TO.C,U201*
X18536000Y19923000D03*
X19336000Y19923000D03*
X20136000Y19923000D03*
X20936000Y19923000D03*
X21736000Y19923000D03*
X22536000Y19923000D03*
X23336000Y19923000D03*
X24136000Y19923000D03*
D62*
X25511000Y18548000D03*
X25511000Y17748000D03*
X25511000Y16948000D03*
X25511000Y16148000D03*
X25511000Y15348000D03*
X25511000Y14548000D03*
X25511000Y13748000D03*
X25511000Y12948000D03*
D61*
X24136000Y11573000D03*
X23336000Y11573000D03*
X22536000Y11573000D03*
X21736000Y11573000D03*
X20936000Y11573000D03*
X20136000Y11573000D03*
X19336000Y11573000D03*
X18536000Y11573000D03*
D62*
X17161000Y12948000D03*
X17161000Y13748000D03*
X17161000Y14548000D03*
X17161000Y15348000D03*
X17161000Y16148000D03*
X17161000Y16948000D03*
X17161000Y17748000D03*
X17161000Y18548000D03*
G04 #@! TD*
D63*
G04 #@! TO.C,L201*
X11404500Y12192000D03*
X12979500Y12192000D03*
G04 #@! TD*
D64*
G04 #@! TO.C,C404*
X18542000Y47539000D03*
X18542000Y49289000D03*
G04 #@! TD*
D26*
G04 #@! TO.C,C403*
X22315000Y51726000D03*
X24065000Y51726000D03*
G04 #@! TD*
M02*
