G04 #@! TF.GenerationSoftware,KiCad,Pcbnew,(5.1.10-1-10_14)*
G04 #@! TF.CreationDate,2022-05-12T09:45:16+09:00*
G04 #@! TF.ProjectId,EH-900,45482d39-3030-42e6-9b69-6361645f7063,rev?*
G04 #@! TF.SameCoordinates,PX5f5e100PY510ff40*
G04 #@! TF.FileFunction,Soldermask,Top*
G04 #@! TF.FilePolarity,Negative*
%FSLAX46Y46*%
G04 Gerber Fmt 4.6, Leading zero omitted, Abs format (unit mm)*
G04 Created by KiCad (PCBNEW (5.1.10-1-10_14)) date 2022-05-12 09:45:16*
%MOMM*%
%LPD*%
G01*
G04 APERTURE LIST*
%ADD10C,0.500000*%
%ADD11R,0.700000X1.150000*%
%ADD12R,0.800000X1.150000*%
%ADD13R,0.900000X1.150000*%
%ADD14O,1.000000X2.000000*%
%ADD15C,1.524000*%
%ADD16R,1.145000X1.145000*%
%ADD17R,4.190000X1.905000*%
%ADD18R,1.905000X4.190000*%
%ADD19O,1.200000X1.650000*%
%ADD20R,0.900000X0.800000*%
%ADD21C,3.200000*%
%ADD22R,2.600000X2.600000*%
%ADD23R,1.500000X0.450000*%
%ADD24R,1.100000X1.400000*%
%ADD25R,1.560000X0.650000*%
%ADD26O,1.700000X1.700000*%
%ADD27R,1.700000X1.700000*%
%ADD28C,1.600000*%
%ADD29R,1.600000X1.600000*%
%ADD30C,4.000000*%
%ADD31C,5.600000*%
%ADD32C,3.600000*%
%ADD33C,2.010000*%
%ADD34O,1.650000X1.200000*%
%ADD35R,1.800000X2.100000*%
%ADD36R,1.800000X2.250000*%
%ADD37O,1.700000X1.850000*%
%ADD38R,0.700000X0.450000*%
%ADD39R,0.450000X0.700000*%
%ADD40R,1.100000X0.400000*%
%ADD41R,1.000000X0.800000*%
%ADD42O,2.400000X2.400000*%
%ADD43C,2.400000*%
%ADD44R,0.650000X1.560000*%
%ADD45R,0.800000X0.900000*%
%ADD46C,1.200000*%
%ADD47C,0.600000*%
%ADD48C,0.800000*%
G04 APERTURE END LIST*
G04 #@! TO.C,R320*
G36*
G01*
X90507000Y1661500D02*
X90507000Y1186500D01*
G75*
G02*
X90269500Y949000I-237500J0D01*
G01*
X89769500Y949000D01*
G75*
G02*
X89532000Y1186500I0J237500D01*
G01*
X89532000Y1661500D01*
G75*
G02*
X89769500Y1899000I237500J0D01*
G01*
X90269500Y1899000D01*
G75*
G02*
X90507000Y1661500I0J-237500D01*
G01*
G37*
G36*
G01*
X92332000Y1661500D02*
X92332000Y1186500D01*
G75*
G02*
X92094500Y949000I-237500J0D01*
G01*
X91594500Y949000D01*
G75*
G02*
X91357000Y1186500I0J237500D01*
G01*
X91357000Y1661500D01*
G75*
G02*
X91594500Y1899000I237500J0D01*
G01*
X92094500Y1899000D01*
G75*
G02*
X92332000Y1661500I0J-237500D01*
G01*
G37*
G04 #@! TD*
G04 #@! TO.C,R319*
G36*
G01*
X94063000Y1661500D02*
X94063000Y1186500D01*
G75*
G02*
X93825500Y949000I-237500J0D01*
G01*
X93325500Y949000D01*
G75*
G02*
X93088000Y1186500I0J237500D01*
G01*
X93088000Y1661500D01*
G75*
G02*
X93325500Y1899000I237500J0D01*
G01*
X93825500Y1899000D01*
G75*
G02*
X94063000Y1661500I0J-237500D01*
G01*
G37*
G36*
G01*
X95888000Y1661500D02*
X95888000Y1186500D01*
G75*
G02*
X95650500Y949000I-237500J0D01*
G01*
X95150500Y949000D01*
G75*
G02*
X94913000Y1186500I0J237500D01*
G01*
X94913000Y1661500D01*
G75*
G02*
X95150500Y1899000I237500J0D01*
G01*
X95650500Y1899000D01*
G75*
G02*
X95888000Y1661500I0J-237500D01*
G01*
G37*
G04 #@! TD*
G04 #@! TO.C,R318*
G36*
G01*
X81263500Y12009000D02*
X80788500Y12009000D01*
G75*
G02*
X80551000Y12246500I0J237500D01*
G01*
X80551000Y12746500D01*
G75*
G02*
X80788500Y12984000I237500J0D01*
G01*
X81263500Y12984000D01*
G75*
G02*
X81501000Y12746500I0J-237500D01*
G01*
X81501000Y12246500D01*
G75*
G02*
X81263500Y12009000I-237500J0D01*
G01*
G37*
G36*
G01*
X81263500Y10184000D02*
X80788500Y10184000D01*
G75*
G02*
X80551000Y10421500I0J237500D01*
G01*
X80551000Y10921500D01*
G75*
G02*
X80788500Y11159000I237500J0D01*
G01*
X81263500Y11159000D01*
G75*
G02*
X81501000Y10921500I0J-237500D01*
G01*
X81501000Y10421500D01*
G75*
G02*
X81263500Y10184000I-237500J0D01*
G01*
G37*
G04 #@! TD*
G04 #@! TO.C,R317*
G36*
G01*
X81263500Y16073000D02*
X80788500Y16073000D01*
G75*
G02*
X80551000Y16310500I0J237500D01*
G01*
X80551000Y16810500D01*
G75*
G02*
X80788500Y17048000I237500J0D01*
G01*
X81263500Y17048000D01*
G75*
G02*
X81501000Y16810500I0J-237500D01*
G01*
X81501000Y16310500D01*
G75*
G02*
X81263500Y16073000I-237500J0D01*
G01*
G37*
G36*
G01*
X81263500Y14248000D02*
X80788500Y14248000D01*
G75*
G02*
X80551000Y14485500I0J237500D01*
G01*
X80551000Y14985500D01*
G75*
G02*
X80788500Y15223000I237500J0D01*
G01*
X81263500Y15223000D01*
G75*
G02*
X81501000Y14985500I0J-237500D01*
G01*
X81501000Y14485500D01*
G75*
G02*
X81263500Y14248000I-237500J0D01*
G01*
G37*
G04 #@! TD*
D10*
G04 #@! TO.C,J301*
X53680000Y5550000D03*
X53680000Y5650000D03*
X53680000Y5250000D03*
X53680000Y5150000D03*
X53680000Y5050000D03*
X53680000Y5750000D03*
X53680000Y5350000D03*
X53680000Y5450000D03*
X53680000Y1250000D03*
X53680000Y1950000D03*
X53680000Y1550000D03*
X53680000Y1650000D03*
X53680000Y1850000D03*
X53680000Y1450000D03*
X53680000Y1350000D03*
X53680000Y1750000D03*
X62320000Y1250000D03*
X62320000Y1950000D03*
X62320000Y1550000D03*
X62320000Y1650000D03*
X62320000Y1850000D03*
X62320000Y1450000D03*
X62320000Y1350000D03*
X62320000Y1750000D03*
X62320000Y5050000D03*
X62320000Y5150000D03*
X62320000Y5250000D03*
X62320000Y5550000D03*
X62320000Y5600000D03*
X62320000Y5650000D03*
X62320000Y5350000D03*
X62320000Y5750000D03*
D11*
X58500000Y5405000D03*
X57500000Y5405000D03*
D12*
X56480000Y5405000D03*
X59520000Y5405000D03*
D13*
X55250000Y5405000D03*
X60750000Y5405000D03*
D14*
X53680000Y5400000D03*
X62320000Y5400000D03*
X53680000Y1600000D03*
X62320000Y1600000D03*
D10*
X62320000Y5450000D03*
G04 #@! TD*
D15*
G04 #@! TO.C,U302*
X84074000Y14560000D03*
X96774000Y14560000D03*
X88174000Y16410000D03*
X92674000Y16410000D03*
D16*
X85854000Y10060000D03*
D17*
X86994000Y14630000D03*
X91564000Y14630000D03*
D18*
X94994000Y13490000D03*
D16*
X94994000Y10060000D03*
X94994000Y5490000D03*
X90424000Y5490000D03*
X88134000Y5490000D03*
X85854000Y5490000D03*
X85854000Y7770000D03*
X94994000Y7770000D03*
X92714000Y5490000D03*
D15*
X84074000Y10060000D03*
X84074000Y7770000D03*
X84074000Y5480000D03*
X96774000Y10060000D03*
X96774000Y7810000D03*
X96774000Y5560000D03*
X88174000Y3710000D03*
X90424000Y3710000D03*
X92674000Y3710000D03*
X90424000Y16410000D03*
G04 #@! TD*
G04 #@! TO.C,CN301*
G36*
G01*
X53248000Y31296999D02*
X53248000Y32447001D01*
G75*
G02*
X53497999Y32697000I249999J0D01*
G01*
X54198001Y32697000D01*
G75*
G02*
X54448000Y32447001I0J-249999D01*
G01*
X54448000Y31296999D01*
G75*
G02*
X54198001Y31047000I-249999J0D01*
G01*
X53497999Y31047000D01*
G75*
G02*
X53248000Y31296999I0J249999D01*
G01*
G37*
D19*
X55848000Y31872000D03*
X53848000Y29872000D03*
X55848000Y29872000D03*
G04 #@! TD*
G04 #@! TO.C,CN304*
X100108000Y32634000D03*
X102108000Y32634000D03*
X100108000Y30634000D03*
G36*
G01*
X102708000Y31209001D02*
X102708000Y30058999D01*
G75*
G02*
X102458001Y29809000I-249999J0D01*
G01*
X101757999Y29809000D01*
G75*
G02*
X101508000Y30058999I0J249999D01*
G01*
X101508000Y31209001D01*
G75*
G02*
X101757999Y31459000I249999J0D01*
G01*
X102458001Y31459000D01*
G75*
G02*
X102708000Y31209001I0J-249999D01*
G01*
G37*
G04 #@! TD*
G04 #@! TO.C,CN302*
X85788000Y30412000D03*
X83788000Y30412000D03*
X81788000Y30412000D03*
X85788000Y32412000D03*
X83788000Y32412000D03*
G36*
G01*
X81188000Y31836999D02*
X81188000Y32987001D01*
G75*
G02*
X81437999Y33237000I249999J0D01*
G01*
X82138001Y33237000D01*
G75*
G02*
X82388000Y32987001I0J-249999D01*
G01*
X82388000Y31836999D01*
G75*
G02*
X82138001Y31587000I-249999J0D01*
G01*
X81437999Y31587000D01*
G75*
G02*
X81188000Y31836999I0J249999D01*
G01*
G37*
G04 #@! TD*
D20*
G04 #@! TO.C,D403*
X9160000Y46890000D03*
X11160000Y47840000D03*
X11160000Y45940000D03*
G04 #@! TD*
D21*
G04 #@! TO.C,REF\u002A\u002A*
X100000000Y21000000D03*
G04 #@! TD*
G04 #@! TO.C,C312*
G36*
G01*
X90794000Y20362003D02*
X90794000Y19061997D01*
G75*
G02*
X90544003Y18812000I-249997J0D01*
G01*
X89718997Y18812000D01*
G75*
G02*
X89469000Y19061997I0J249997D01*
G01*
X89469000Y20362003D01*
G75*
G02*
X89718997Y20612000I249997J0D01*
G01*
X90544003Y20612000D01*
G75*
G02*
X90794000Y20362003I0J-249997D01*
G01*
G37*
G36*
G01*
X93919000Y20362003D02*
X93919000Y19061997D01*
G75*
G02*
X93669003Y18812000I-249997J0D01*
G01*
X92843997Y18812000D01*
G75*
G02*
X92594000Y19061997I0J249997D01*
G01*
X92594000Y20362003D01*
G75*
G02*
X92843997Y20612000I249997J0D01*
G01*
X93669003Y20612000D01*
G75*
G02*
X93919000Y20362003I0J-249997D01*
G01*
G37*
G04 #@! TD*
G04 #@! TO.C,C311*
G36*
G01*
X81263500Y8099000D02*
X80788500Y8099000D01*
G75*
G02*
X80551000Y8336500I0J237500D01*
G01*
X80551000Y8936500D01*
G75*
G02*
X80788500Y9174000I237500J0D01*
G01*
X81263500Y9174000D01*
G75*
G02*
X81501000Y8936500I0J-237500D01*
G01*
X81501000Y8336500D01*
G75*
G02*
X81263500Y8099000I-237500J0D01*
G01*
G37*
G36*
G01*
X81263500Y6374000D02*
X80788500Y6374000D01*
G75*
G02*
X80551000Y6611500I0J237500D01*
G01*
X80551000Y7211500D01*
G75*
G02*
X80788500Y7449000I237500J0D01*
G01*
X81263500Y7449000D01*
G75*
G02*
X81501000Y7211500I0J-237500D01*
G01*
X81501000Y6611500D01*
G75*
G02*
X81263500Y6374000I-237500J0D01*
G01*
G37*
G04 #@! TD*
G04 #@! TO.C,C310*
G36*
G01*
X83174000Y25442003D02*
X83174000Y24141997D01*
G75*
G02*
X82924003Y23892000I-249997J0D01*
G01*
X82098997Y23892000D01*
G75*
G02*
X81849000Y24141997I0J249997D01*
G01*
X81849000Y25442003D01*
G75*
G02*
X82098997Y25692000I249997J0D01*
G01*
X82924003Y25692000D01*
G75*
G02*
X83174000Y25442003I0J-249997D01*
G01*
G37*
G36*
G01*
X86299000Y25442003D02*
X86299000Y24141997D01*
G75*
G02*
X86049003Y23892000I-249997J0D01*
G01*
X85223997Y23892000D01*
G75*
G02*
X84974000Y24141997I0J249997D01*
G01*
X84974000Y25442003D01*
G75*
G02*
X85223997Y25692000I249997J0D01*
G01*
X86049003Y25692000D01*
G75*
G02*
X86299000Y25442003I0J-249997D01*
G01*
G37*
G04 #@! TD*
G04 #@! TO.C,C309*
G36*
G01*
X83174000Y19346003D02*
X83174000Y18045997D01*
G75*
G02*
X82924003Y17796000I-249997J0D01*
G01*
X82098997Y17796000D01*
G75*
G02*
X81849000Y18045997I0J249997D01*
G01*
X81849000Y19346003D01*
G75*
G02*
X82098997Y19596000I249997J0D01*
G01*
X82924003Y19596000D01*
G75*
G02*
X83174000Y19346003I0J-249997D01*
G01*
G37*
G36*
G01*
X86299000Y19346003D02*
X86299000Y18045997D01*
G75*
G02*
X86049003Y17796000I-249997J0D01*
G01*
X85223997Y17796000D01*
G75*
G02*
X84974000Y18045997I0J249997D01*
G01*
X84974000Y19346003D01*
G75*
G02*
X85223997Y19596000I249997J0D01*
G01*
X86049003Y19596000D01*
G75*
G02*
X86299000Y19346003I0J-249997D01*
G01*
G37*
G04 #@! TD*
G04 #@! TO.C,C308*
G36*
G01*
X83174000Y22394003D02*
X83174000Y21093997D01*
G75*
G02*
X82924003Y20844000I-249997J0D01*
G01*
X82098997Y20844000D01*
G75*
G02*
X81849000Y21093997I0J249997D01*
G01*
X81849000Y22394003D01*
G75*
G02*
X82098997Y22644000I249997J0D01*
G01*
X82924003Y22644000D01*
G75*
G02*
X83174000Y22394003I0J-249997D01*
G01*
G37*
G36*
G01*
X86299000Y22394003D02*
X86299000Y21093997D01*
G75*
G02*
X86049003Y20844000I-249997J0D01*
G01*
X85223997Y20844000D01*
G75*
G02*
X84974000Y21093997I0J249997D01*
G01*
X84974000Y22394003D01*
G75*
G02*
X85223997Y22644000I249997J0D01*
G01*
X86049003Y22644000D01*
G75*
G02*
X86299000Y22394003I0J-249997D01*
G01*
G37*
G04 #@! TD*
D22*
G04 #@! TO.C,U301*
X62484000Y15140000D03*
G36*
G01*
X63859000Y13552500D02*
X63859000Y12852500D01*
G75*
G02*
X63796500Y12790000I-62500J0D01*
G01*
X63671500Y12790000D01*
G75*
G02*
X63609000Y12852500I0J62500D01*
G01*
X63609000Y13552500D01*
G75*
G02*
X63671500Y13615000I62500J0D01*
G01*
X63796500Y13615000D01*
G75*
G02*
X63859000Y13552500I0J-62500D01*
G01*
G37*
G36*
G01*
X63359000Y13552500D02*
X63359000Y12852500D01*
G75*
G02*
X63296500Y12790000I-62500J0D01*
G01*
X63171500Y12790000D01*
G75*
G02*
X63109000Y12852500I0J62500D01*
G01*
X63109000Y13552500D01*
G75*
G02*
X63171500Y13615000I62500J0D01*
G01*
X63296500Y13615000D01*
G75*
G02*
X63359000Y13552500I0J-62500D01*
G01*
G37*
G36*
G01*
X62859000Y13552500D02*
X62859000Y12852500D01*
G75*
G02*
X62796500Y12790000I-62500J0D01*
G01*
X62671500Y12790000D01*
G75*
G02*
X62609000Y12852500I0J62500D01*
G01*
X62609000Y13552500D01*
G75*
G02*
X62671500Y13615000I62500J0D01*
G01*
X62796500Y13615000D01*
G75*
G02*
X62859000Y13552500I0J-62500D01*
G01*
G37*
G36*
G01*
X62359000Y13552500D02*
X62359000Y12852500D01*
G75*
G02*
X62296500Y12790000I-62500J0D01*
G01*
X62171500Y12790000D01*
G75*
G02*
X62109000Y12852500I0J62500D01*
G01*
X62109000Y13552500D01*
G75*
G02*
X62171500Y13615000I62500J0D01*
G01*
X62296500Y13615000D01*
G75*
G02*
X62359000Y13552500I0J-62500D01*
G01*
G37*
G36*
G01*
X61859000Y13552500D02*
X61859000Y12852500D01*
G75*
G02*
X61796500Y12790000I-62500J0D01*
G01*
X61671500Y12790000D01*
G75*
G02*
X61609000Y12852500I0J62500D01*
G01*
X61609000Y13552500D01*
G75*
G02*
X61671500Y13615000I62500J0D01*
G01*
X61796500Y13615000D01*
G75*
G02*
X61859000Y13552500I0J-62500D01*
G01*
G37*
G36*
G01*
X61359000Y13552500D02*
X61359000Y12852500D01*
G75*
G02*
X61296500Y12790000I-62500J0D01*
G01*
X61171500Y12790000D01*
G75*
G02*
X61109000Y12852500I0J62500D01*
G01*
X61109000Y13552500D01*
G75*
G02*
X61171500Y13615000I62500J0D01*
G01*
X61296500Y13615000D01*
G75*
G02*
X61359000Y13552500I0J-62500D01*
G01*
G37*
G36*
G01*
X60959000Y13952500D02*
X60959000Y13827500D01*
G75*
G02*
X60896500Y13765000I-62500J0D01*
G01*
X60196500Y13765000D01*
G75*
G02*
X60134000Y13827500I0J62500D01*
G01*
X60134000Y13952500D01*
G75*
G02*
X60196500Y14015000I62500J0D01*
G01*
X60896500Y14015000D01*
G75*
G02*
X60959000Y13952500I0J-62500D01*
G01*
G37*
G36*
G01*
X60959000Y14452500D02*
X60959000Y14327500D01*
G75*
G02*
X60896500Y14265000I-62500J0D01*
G01*
X60196500Y14265000D01*
G75*
G02*
X60134000Y14327500I0J62500D01*
G01*
X60134000Y14452500D01*
G75*
G02*
X60196500Y14515000I62500J0D01*
G01*
X60896500Y14515000D01*
G75*
G02*
X60959000Y14452500I0J-62500D01*
G01*
G37*
G36*
G01*
X60959000Y14952500D02*
X60959000Y14827500D01*
G75*
G02*
X60896500Y14765000I-62500J0D01*
G01*
X60196500Y14765000D01*
G75*
G02*
X60134000Y14827500I0J62500D01*
G01*
X60134000Y14952500D01*
G75*
G02*
X60196500Y15015000I62500J0D01*
G01*
X60896500Y15015000D01*
G75*
G02*
X60959000Y14952500I0J-62500D01*
G01*
G37*
G36*
G01*
X60959000Y15452500D02*
X60959000Y15327500D01*
G75*
G02*
X60896500Y15265000I-62500J0D01*
G01*
X60196500Y15265000D01*
G75*
G02*
X60134000Y15327500I0J62500D01*
G01*
X60134000Y15452500D01*
G75*
G02*
X60196500Y15515000I62500J0D01*
G01*
X60896500Y15515000D01*
G75*
G02*
X60959000Y15452500I0J-62500D01*
G01*
G37*
G36*
G01*
X60959000Y15952500D02*
X60959000Y15827500D01*
G75*
G02*
X60896500Y15765000I-62500J0D01*
G01*
X60196500Y15765000D01*
G75*
G02*
X60134000Y15827500I0J62500D01*
G01*
X60134000Y15952500D01*
G75*
G02*
X60196500Y16015000I62500J0D01*
G01*
X60896500Y16015000D01*
G75*
G02*
X60959000Y15952500I0J-62500D01*
G01*
G37*
G36*
G01*
X60959000Y16452500D02*
X60959000Y16327500D01*
G75*
G02*
X60896500Y16265000I-62500J0D01*
G01*
X60196500Y16265000D01*
G75*
G02*
X60134000Y16327500I0J62500D01*
G01*
X60134000Y16452500D01*
G75*
G02*
X60196500Y16515000I62500J0D01*
G01*
X60896500Y16515000D01*
G75*
G02*
X60959000Y16452500I0J-62500D01*
G01*
G37*
G36*
G01*
X61359000Y17427500D02*
X61359000Y16727500D01*
G75*
G02*
X61296500Y16665000I-62500J0D01*
G01*
X61171500Y16665000D01*
G75*
G02*
X61109000Y16727500I0J62500D01*
G01*
X61109000Y17427500D01*
G75*
G02*
X61171500Y17490000I62500J0D01*
G01*
X61296500Y17490000D01*
G75*
G02*
X61359000Y17427500I0J-62500D01*
G01*
G37*
G36*
G01*
X61859000Y17427500D02*
X61859000Y16727500D01*
G75*
G02*
X61796500Y16665000I-62500J0D01*
G01*
X61671500Y16665000D01*
G75*
G02*
X61609000Y16727500I0J62500D01*
G01*
X61609000Y17427500D01*
G75*
G02*
X61671500Y17490000I62500J0D01*
G01*
X61796500Y17490000D01*
G75*
G02*
X61859000Y17427500I0J-62500D01*
G01*
G37*
G36*
G01*
X62359000Y17427500D02*
X62359000Y16727500D01*
G75*
G02*
X62296500Y16665000I-62500J0D01*
G01*
X62171500Y16665000D01*
G75*
G02*
X62109000Y16727500I0J62500D01*
G01*
X62109000Y17427500D01*
G75*
G02*
X62171500Y17490000I62500J0D01*
G01*
X62296500Y17490000D01*
G75*
G02*
X62359000Y17427500I0J-62500D01*
G01*
G37*
G36*
G01*
X62859000Y17427500D02*
X62859000Y16727500D01*
G75*
G02*
X62796500Y16665000I-62500J0D01*
G01*
X62671500Y16665000D01*
G75*
G02*
X62609000Y16727500I0J62500D01*
G01*
X62609000Y17427500D01*
G75*
G02*
X62671500Y17490000I62500J0D01*
G01*
X62796500Y17490000D01*
G75*
G02*
X62859000Y17427500I0J-62500D01*
G01*
G37*
G36*
G01*
X63359000Y17427500D02*
X63359000Y16727500D01*
G75*
G02*
X63296500Y16665000I-62500J0D01*
G01*
X63171500Y16665000D01*
G75*
G02*
X63109000Y16727500I0J62500D01*
G01*
X63109000Y17427500D01*
G75*
G02*
X63171500Y17490000I62500J0D01*
G01*
X63296500Y17490000D01*
G75*
G02*
X63359000Y17427500I0J-62500D01*
G01*
G37*
G36*
G01*
X63859000Y17427500D02*
X63859000Y16727500D01*
G75*
G02*
X63796500Y16665000I-62500J0D01*
G01*
X63671500Y16665000D01*
G75*
G02*
X63609000Y16727500I0J62500D01*
G01*
X63609000Y17427500D01*
G75*
G02*
X63671500Y17490000I62500J0D01*
G01*
X63796500Y17490000D01*
G75*
G02*
X63859000Y17427500I0J-62500D01*
G01*
G37*
G36*
G01*
X64834000Y16452500D02*
X64834000Y16327500D01*
G75*
G02*
X64771500Y16265000I-62500J0D01*
G01*
X64071500Y16265000D01*
G75*
G02*
X64009000Y16327500I0J62500D01*
G01*
X64009000Y16452500D01*
G75*
G02*
X64071500Y16515000I62500J0D01*
G01*
X64771500Y16515000D01*
G75*
G02*
X64834000Y16452500I0J-62500D01*
G01*
G37*
G36*
G01*
X64834000Y15952500D02*
X64834000Y15827500D01*
G75*
G02*
X64771500Y15765000I-62500J0D01*
G01*
X64071500Y15765000D01*
G75*
G02*
X64009000Y15827500I0J62500D01*
G01*
X64009000Y15952500D01*
G75*
G02*
X64071500Y16015000I62500J0D01*
G01*
X64771500Y16015000D01*
G75*
G02*
X64834000Y15952500I0J-62500D01*
G01*
G37*
G36*
G01*
X64834000Y15452500D02*
X64834000Y15327500D01*
G75*
G02*
X64771500Y15265000I-62500J0D01*
G01*
X64071500Y15265000D01*
G75*
G02*
X64009000Y15327500I0J62500D01*
G01*
X64009000Y15452500D01*
G75*
G02*
X64071500Y15515000I62500J0D01*
G01*
X64771500Y15515000D01*
G75*
G02*
X64834000Y15452500I0J-62500D01*
G01*
G37*
G36*
G01*
X64834000Y14952500D02*
X64834000Y14827500D01*
G75*
G02*
X64771500Y14765000I-62500J0D01*
G01*
X64071500Y14765000D01*
G75*
G02*
X64009000Y14827500I0J62500D01*
G01*
X64009000Y14952500D01*
G75*
G02*
X64071500Y15015000I62500J0D01*
G01*
X64771500Y15015000D01*
G75*
G02*
X64834000Y14952500I0J-62500D01*
G01*
G37*
G36*
G01*
X64834000Y14452500D02*
X64834000Y14327500D01*
G75*
G02*
X64771500Y14265000I-62500J0D01*
G01*
X64071500Y14265000D01*
G75*
G02*
X64009000Y14327500I0J62500D01*
G01*
X64009000Y14452500D01*
G75*
G02*
X64071500Y14515000I62500J0D01*
G01*
X64771500Y14515000D01*
G75*
G02*
X64834000Y14452500I0J-62500D01*
G01*
G37*
G36*
G01*
X64834000Y13952500D02*
X64834000Y13827500D01*
G75*
G02*
X64771500Y13765000I-62500J0D01*
G01*
X64071500Y13765000D01*
G75*
G02*
X64009000Y13827500I0J62500D01*
G01*
X64009000Y13952500D01*
G75*
G02*
X64071500Y14015000I62500J0D01*
G01*
X64771500Y14015000D01*
G75*
G02*
X64834000Y13952500I0J-62500D01*
G01*
G37*
G04 #@! TD*
D21*
G04 #@! TO.C,REF\u002A\u002A*
X71000000Y31000000D03*
G04 #@! TD*
G04 #@! TO.C,R305*
G36*
G01*
X64676000Y5855000D02*
X64356000Y5855000D01*
G75*
G02*
X64196000Y6015000I0J160000D01*
G01*
X64196000Y6410000D01*
G75*
G02*
X64356000Y6570000I160000J0D01*
G01*
X64676000Y6570000D01*
G75*
G02*
X64836000Y6410000I0J-160000D01*
G01*
X64836000Y6015000D01*
G75*
G02*
X64676000Y5855000I-160000J0D01*
G01*
G37*
G36*
G01*
X64676000Y4660000D02*
X64356000Y4660000D01*
G75*
G02*
X64196000Y4820000I0J160000D01*
G01*
X64196000Y5215000D01*
G75*
G02*
X64356000Y5375000I160000J0D01*
G01*
X64676000Y5375000D01*
G75*
G02*
X64836000Y5215000I0J-160000D01*
G01*
X64836000Y4820000D01*
G75*
G02*
X64676000Y4660000I-160000J0D01*
G01*
G37*
G04 #@! TD*
G04 #@! TO.C,D302*
G36*
G01*
X67214000Y20711500D02*
X67214000Y20236500D01*
G75*
G02*
X66976500Y19999000I-237500J0D01*
G01*
X66401500Y19999000D01*
G75*
G02*
X66164000Y20236500I0J237500D01*
G01*
X66164000Y20711500D01*
G75*
G02*
X66401500Y20949000I237500J0D01*
G01*
X66976500Y20949000D01*
G75*
G02*
X67214000Y20711500I0J-237500D01*
G01*
G37*
G36*
G01*
X68964000Y20711500D02*
X68964000Y20236500D01*
G75*
G02*
X68726500Y19999000I-237500J0D01*
G01*
X68151500Y19999000D01*
G75*
G02*
X67914000Y20236500I0J237500D01*
G01*
X67914000Y20711500D01*
G75*
G02*
X68151500Y20949000I237500J0D01*
G01*
X68726500Y20949000D01*
G75*
G02*
X68964000Y20711500I0J-237500D01*
G01*
G37*
G04 #@! TD*
G04 #@! TO.C,R316*
G36*
G01*
X71360000Y20314000D02*
X71360000Y20634000D01*
G75*
G02*
X71520000Y20794000I160000J0D01*
G01*
X71915000Y20794000D01*
G75*
G02*
X72075000Y20634000I0J-160000D01*
G01*
X72075000Y20314000D01*
G75*
G02*
X71915000Y20154000I-160000J0D01*
G01*
X71520000Y20154000D01*
G75*
G02*
X71360000Y20314000I0J160000D01*
G01*
G37*
G36*
G01*
X70165000Y20314000D02*
X70165000Y20634000D01*
G75*
G02*
X70325000Y20794000I160000J0D01*
G01*
X70720000Y20794000D01*
G75*
G02*
X70880000Y20634000I0J-160000D01*
G01*
X70880000Y20314000D01*
G75*
G02*
X70720000Y20154000I-160000J0D01*
G01*
X70325000Y20154000D01*
G75*
G02*
X70165000Y20314000I0J160000D01*
G01*
G37*
G04 #@! TD*
G04 #@! TO.C,R315*
G36*
G01*
X66642000Y22774000D02*
X66962000Y22774000D01*
G75*
G02*
X67122000Y22614000I0J-160000D01*
G01*
X67122000Y22219000D01*
G75*
G02*
X66962000Y22059000I-160000J0D01*
G01*
X66642000Y22059000D01*
G75*
G02*
X66482000Y22219000I0J160000D01*
G01*
X66482000Y22614000D01*
G75*
G02*
X66642000Y22774000I160000J0D01*
G01*
G37*
G36*
G01*
X66642000Y23969000D02*
X66962000Y23969000D01*
G75*
G02*
X67122000Y23809000I0J-160000D01*
G01*
X67122000Y23414000D01*
G75*
G02*
X66962000Y23254000I-160000J0D01*
G01*
X66642000Y23254000D01*
G75*
G02*
X66482000Y23414000I0J160000D01*
G01*
X66482000Y23809000D01*
G75*
G02*
X66642000Y23969000I160000J0D01*
G01*
G37*
G04 #@! TD*
G04 #@! TO.C,R314*
G36*
G01*
X58006000Y15408000D02*
X58326000Y15408000D01*
G75*
G02*
X58486000Y15248000I0J-160000D01*
G01*
X58486000Y14853000D01*
G75*
G02*
X58326000Y14693000I-160000J0D01*
G01*
X58006000Y14693000D01*
G75*
G02*
X57846000Y14853000I0J160000D01*
G01*
X57846000Y15248000D01*
G75*
G02*
X58006000Y15408000I160000J0D01*
G01*
G37*
G36*
G01*
X58006000Y16603000D02*
X58326000Y16603000D01*
G75*
G02*
X58486000Y16443000I0J-160000D01*
G01*
X58486000Y16048000D01*
G75*
G02*
X58326000Y15888000I-160000J0D01*
G01*
X58006000Y15888000D01*
G75*
G02*
X57846000Y16048000I0J160000D01*
G01*
X57846000Y16443000D01*
G75*
G02*
X58006000Y16603000I160000J0D01*
G01*
G37*
G04 #@! TD*
G04 #@! TO.C,R313*
G36*
G01*
X63660000Y20968000D02*
X63340000Y20968000D01*
G75*
G02*
X63180000Y21128000I0J160000D01*
G01*
X63180000Y21523000D01*
G75*
G02*
X63340000Y21683000I160000J0D01*
G01*
X63660000Y21683000D01*
G75*
G02*
X63820000Y21523000I0J-160000D01*
G01*
X63820000Y21128000D01*
G75*
G02*
X63660000Y20968000I-160000J0D01*
G01*
G37*
G36*
G01*
X63660000Y19773000D02*
X63340000Y19773000D01*
G75*
G02*
X63180000Y19933000I0J160000D01*
G01*
X63180000Y20328000D01*
G75*
G02*
X63340000Y20488000I160000J0D01*
G01*
X63660000Y20488000D01*
G75*
G02*
X63820000Y20328000I0J-160000D01*
G01*
X63820000Y19933000D01*
G75*
G02*
X63660000Y19773000I-160000J0D01*
G01*
G37*
G04 #@! TD*
G04 #@! TO.C,R312*
G36*
G01*
X64930000Y23254000D02*
X64610000Y23254000D01*
G75*
G02*
X64450000Y23414000I0J160000D01*
G01*
X64450000Y23809000D01*
G75*
G02*
X64610000Y23969000I160000J0D01*
G01*
X64930000Y23969000D01*
G75*
G02*
X65090000Y23809000I0J-160000D01*
G01*
X65090000Y23414000D01*
G75*
G02*
X64930000Y23254000I-160000J0D01*
G01*
G37*
G36*
G01*
X64930000Y22059000D02*
X64610000Y22059000D01*
G75*
G02*
X64450000Y22219000I0J160000D01*
G01*
X64450000Y22614000D01*
G75*
G02*
X64610000Y22774000I160000J0D01*
G01*
X64930000Y22774000D01*
G75*
G02*
X65090000Y22614000I0J-160000D01*
G01*
X65090000Y22219000D01*
G75*
G02*
X64930000Y22059000I-160000J0D01*
G01*
G37*
G04 #@! TD*
G04 #@! TO.C,R311*
G36*
G01*
X54850000Y13710000D02*
X54850000Y14030000D01*
G75*
G02*
X55010000Y14190000I160000J0D01*
G01*
X55405000Y14190000D01*
G75*
G02*
X55565000Y14030000I0J-160000D01*
G01*
X55565000Y13710000D01*
G75*
G02*
X55405000Y13550000I-160000J0D01*
G01*
X55010000Y13550000D01*
G75*
G02*
X54850000Y13710000I0J160000D01*
G01*
G37*
G36*
G01*
X53655000Y13710000D02*
X53655000Y14030000D01*
G75*
G02*
X53815000Y14190000I160000J0D01*
G01*
X54210000Y14190000D01*
G75*
G02*
X54370000Y14030000I0J-160000D01*
G01*
X54370000Y13710000D01*
G75*
G02*
X54210000Y13550000I-160000J0D01*
G01*
X53815000Y13550000D01*
G75*
G02*
X53655000Y13710000I0J160000D01*
G01*
G37*
G04 #@! TD*
G04 #@! TO.C,R310*
G36*
G01*
X57390000Y13710000D02*
X57390000Y14030000D01*
G75*
G02*
X57550000Y14190000I160000J0D01*
G01*
X57945000Y14190000D01*
G75*
G02*
X58105000Y14030000I0J-160000D01*
G01*
X58105000Y13710000D01*
G75*
G02*
X57945000Y13550000I-160000J0D01*
G01*
X57550000Y13550000D01*
G75*
G02*
X57390000Y13710000I0J160000D01*
G01*
G37*
G36*
G01*
X56195000Y13710000D02*
X56195000Y14030000D01*
G75*
G02*
X56355000Y14190000I160000J0D01*
G01*
X56750000Y14190000D01*
G75*
G02*
X56910000Y14030000I0J-160000D01*
G01*
X56910000Y13710000D01*
G75*
G02*
X56750000Y13550000I-160000J0D01*
G01*
X56355000Y13550000D01*
G75*
G02*
X56195000Y13710000I0J160000D01*
G01*
G37*
G04 #@! TD*
G04 #@! TO.C,R309*
G36*
G01*
X67989000Y11600500D02*
X67989000Y12075500D01*
G75*
G02*
X68226500Y12313000I237500J0D01*
G01*
X68726500Y12313000D01*
G75*
G02*
X68964000Y12075500I0J-237500D01*
G01*
X68964000Y11600500D01*
G75*
G02*
X68726500Y11363000I-237500J0D01*
G01*
X68226500Y11363000D01*
G75*
G02*
X67989000Y11600500I0J237500D01*
G01*
G37*
G36*
G01*
X66164000Y11600500D02*
X66164000Y12075500D01*
G75*
G02*
X66401500Y12313000I237500J0D01*
G01*
X66901500Y12313000D01*
G75*
G02*
X67139000Y12075500I0J-237500D01*
G01*
X67139000Y11600500D01*
G75*
G02*
X66901500Y11363000I-237500J0D01*
G01*
X66401500Y11363000D01*
G75*
G02*
X66164000Y11600500I0J237500D01*
G01*
G37*
G04 #@! TD*
G04 #@! TO.C,R308*
G36*
G01*
X67139000Y14107500D02*
X67139000Y13632500D01*
G75*
G02*
X66901500Y13395000I-237500J0D01*
G01*
X66401500Y13395000D01*
G75*
G02*
X66164000Y13632500I0J237500D01*
G01*
X66164000Y14107500D01*
G75*
G02*
X66401500Y14345000I237500J0D01*
G01*
X66901500Y14345000D01*
G75*
G02*
X67139000Y14107500I0J-237500D01*
G01*
G37*
G36*
G01*
X68964000Y14107500D02*
X68964000Y13632500D01*
G75*
G02*
X68726500Y13395000I-237500J0D01*
G01*
X68226500Y13395000D01*
G75*
G02*
X67989000Y13632500I0J237500D01*
G01*
X67989000Y14107500D01*
G75*
G02*
X68226500Y14345000I237500J0D01*
G01*
X68726500Y14345000D01*
G75*
G02*
X68964000Y14107500I0J-237500D01*
G01*
G37*
G04 #@! TD*
G04 #@! TO.C,R307*
G36*
G01*
X71203000Y12075500D02*
X71203000Y11600500D01*
G75*
G02*
X70965500Y11363000I-237500J0D01*
G01*
X70465500Y11363000D01*
G75*
G02*
X70228000Y11600500I0J237500D01*
G01*
X70228000Y12075500D01*
G75*
G02*
X70465500Y12313000I237500J0D01*
G01*
X70965500Y12313000D01*
G75*
G02*
X71203000Y12075500I0J-237500D01*
G01*
G37*
G36*
G01*
X73028000Y12075500D02*
X73028000Y11600500D01*
G75*
G02*
X72790500Y11363000I-237500J0D01*
G01*
X72290500Y11363000D01*
G75*
G02*
X72053000Y11600500I0J237500D01*
G01*
X72053000Y12075500D01*
G75*
G02*
X72290500Y12313000I237500J0D01*
G01*
X72790500Y12313000D01*
G75*
G02*
X73028000Y12075500I0J-237500D01*
G01*
G37*
G04 #@! TD*
G04 #@! TO.C,R306*
G36*
G01*
X72053000Y13632500D02*
X72053000Y14107500D01*
G75*
G02*
X72290500Y14345000I237500J0D01*
G01*
X72790500Y14345000D01*
G75*
G02*
X73028000Y14107500I0J-237500D01*
G01*
X73028000Y13632500D01*
G75*
G02*
X72790500Y13395000I-237500J0D01*
G01*
X72290500Y13395000D01*
G75*
G02*
X72053000Y13632500I0J237500D01*
G01*
G37*
G36*
G01*
X70228000Y13632500D02*
X70228000Y14107500D01*
G75*
G02*
X70465500Y14345000I237500J0D01*
G01*
X70965500Y14345000D01*
G75*
G02*
X71203000Y14107500I0J-237500D01*
G01*
X71203000Y13632500D01*
G75*
G02*
X70965500Y13395000I-237500J0D01*
G01*
X70465500Y13395000D01*
G75*
G02*
X70228000Y13632500I0J237500D01*
G01*
G37*
G04 #@! TD*
G04 #@! TO.C,R304*
G36*
G01*
X67989000Y16172500D02*
X67989000Y16647500D01*
G75*
G02*
X68226500Y16885000I237500J0D01*
G01*
X68726500Y16885000D01*
G75*
G02*
X68964000Y16647500I0J-237500D01*
G01*
X68964000Y16172500D01*
G75*
G02*
X68726500Y15935000I-237500J0D01*
G01*
X68226500Y15935000D01*
G75*
G02*
X67989000Y16172500I0J237500D01*
G01*
G37*
G36*
G01*
X66164000Y16172500D02*
X66164000Y16647500D01*
G75*
G02*
X66401500Y16885000I237500J0D01*
G01*
X66901500Y16885000D01*
G75*
G02*
X67139000Y16647500I0J-237500D01*
G01*
X67139000Y16172500D01*
G75*
G02*
X66901500Y15935000I-237500J0D01*
G01*
X66401500Y15935000D01*
G75*
G02*
X66164000Y16172500I0J237500D01*
G01*
G37*
G04 #@! TD*
G04 #@! TO.C,R303*
G36*
G01*
X67139000Y18679500D02*
X67139000Y18204500D01*
G75*
G02*
X66901500Y17967000I-237500J0D01*
G01*
X66401500Y17967000D01*
G75*
G02*
X66164000Y18204500I0J237500D01*
G01*
X66164000Y18679500D01*
G75*
G02*
X66401500Y18917000I237500J0D01*
G01*
X66901500Y18917000D01*
G75*
G02*
X67139000Y18679500I0J-237500D01*
G01*
G37*
G36*
G01*
X68964000Y18679500D02*
X68964000Y18204500D01*
G75*
G02*
X68726500Y17967000I-237500J0D01*
G01*
X68226500Y17967000D01*
G75*
G02*
X67989000Y18204500I0J237500D01*
G01*
X67989000Y18679500D01*
G75*
G02*
X68226500Y18917000I237500J0D01*
G01*
X68726500Y18917000D01*
G75*
G02*
X68964000Y18679500I0J-237500D01*
G01*
G37*
G04 #@! TD*
G04 #@! TO.C,R302*
G36*
G01*
X71203000Y16647500D02*
X71203000Y16172500D01*
G75*
G02*
X70965500Y15935000I-237500J0D01*
G01*
X70465500Y15935000D01*
G75*
G02*
X70228000Y16172500I0J237500D01*
G01*
X70228000Y16647500D01*
G75*
G02*
X70465500Y16885000I237500J0D01*
G01*
X70965500Y16885000D01*
G75*
G02*
X71203000Y16647500I0J-237500D01*
G01*
G37*
G36*
G01*
X73028000Y16647500D02*
X73028000Y16172500D01*
G75*
G02*
X72790500Y15935000I-237500J0D01*
G01*
X72290500Y15935000D01*
G75*
G02*
X72053000Y16172500I0J237500D01*
G01*
X72053000Y16647500D01*
G75*
G02*
X72290500Y16885000I237500J0D01*
G01*
X72790500Y16885000D01*
G75*
G02*
X73028000Y16647500I0J-237500D01*
G01*
G37*
G04 #@! TD*
G04 #@! TO.C,R301*
G36*
G01*
X72053000Y18204500D02*
X72053000Y18679500D01*
G75*
G02*
X72290500Y18917000I237500J0D01*
G01*
X72790500Y18917000D01*
G75*
G02*
X73028000Y18679500I0J-237500D01*
G01*
X73028000Y18204500D01*
G75*
G02*
X72790500Y17967000I-237500J0D01*
G01*
X72290500Y17967000D01*
G75*
G02*
X72053000Y18204500I0J237500D01*
G01*
G37*
G36*
G01*
X70228000Y18204500D02*
X70228000Y18679500D01*
G75*
G02*
X70465500Y18917000I237500J0D01*
G01*
X70965500Y18917000D01*
G75*
G02*
X71203000Y18679500I0J-237500D01*
G01*
X71203000Y18204500D01*
G75*
G02*
X70965500Y17967000I-237500J0D01*
G01*
X70465500Y17967000D01*
G75*
G02*
X70228000Y18204500I0J237500D01*
G01*
G37*
G04 #@! TD*
D23*
G04 #@! TO.C,Q302*
X71688000Y23014000D03*
X69028000Y22364000D03*
X69028000Y23664000D03*
G04 #@! TD*
G04 #@! TO.C,Q301*
G36*
G01*
X53672000Y18973000D02*
X53672000Y18673000D01*
G75*
G02*
X53522000Y18523000I-150000J0D01*
G01*
X52072000Y18523000D01*
G75*
G02*
X51922000Y18673000I0J150000D01*
G01*
X51922000Y18973000D01*
G75*
G02*
X52072000Y19123000I150000J0D01*
G01*
X53522000Y19123000D01*
G75*
G02*
X53672000Y18973000I0J-150000D01*
G01*
G37*
G36*
G01*
X53672000Y20243000D02*
X53672000Y19943000D01*
G75*
G02*
X53522000Y19793000I-150000J0D01*
G01*
X52072000Y19793000D01*
G75*
G02*
X51922000Y19943000I0J150000D01*
G01*
X51922000Y20243000D01*
G75*
G02*
X52072000Y20393000I150000J0D01*
G01*
X53522000Y20393000D01*
G75*
G02*
X53672000Y20243000I0J-150000D01*
G01*
G37*
G36*
G01*
X53672000Y21513000D02*
X53672000Y21213000D01*
G75*
G02*
X53522000Y21063000I-150000J0D01*
G01*
X52072000Y21063000D01*
G75*
G02*
X51922000Y21213000I0J150000D01*
G01*
X51922000Y21513000D01*
G75*
G02*
X52072000Y21663000I150000J0D01*
G01*
X53522000Y21663000D01*
G75*
G02*
X53672000Y21513000I0J-150000D01*
G01*
G37*
G36*
G01*
X53672000Y22783000D02*
X53672000Y22483000D01*
G75*
G02*
X53522000Y22333000I-150000J0D01*
G01*
X52072000Y22333000D01*
G75*
G02*
X51922000Y22483000I0J150000D01*
G01*
X51922000Y22783000D01*
G75*
G02*
X52072000Y22933000I150000J0D01*
G01*
X53522000Y22933000D01*
G75*
G02*
X53672000Y22783000I0J-150000D01*
G01*
G37*
G36*
G01*
X58822000Y22783000D02*
X58822000Y22483000D01*
G75*
G02*
X58672000Y22333000I-150000J0D01*
G01*
X57222000Y22333000D01*
G75*
G02*
X57072000Y22483000I0J150000D01*
G01*
X57072000Y22783000D01*
G75*
G02*
X57222000Y22933000I150000J0D01*
G01*
X58672000Y22933000D01*
G75*
G02*
X58822000Y22783000I0J-150000D01*
G01*
G37*
G36*
G01*
X58822000Y21513000D02*
X58822000Y21213000D01*
G75*
G02*
X58672000Y21063000I-150000J0D01*
G01*
X57222000Y21063000D01*
G75*
G02*
X57072000Y21213000I0J150000D01*
G01*
X57072000Y21513000D01*
G75*
G02*
X57222000Y21663000I150000J0D01*
G01*
X58672000Y21663000D01*
G75*
G02*
X58822000Y21513000I0J-150000D01*
G01*
G37*
G36*
G01*
X58822000Y20243000D02*
X58822000Y19943000D01*
G75*
G02*
X58672000Y19793000I-150000J0D01*
G01*
X57222000Y19793000D01*
G75*
G02*
X57072000Y19943000I0J150000D01*
G01*
X57072000Y20243000D01*
G75*
G02*
X57222000Y20393000I150000J0D01*
G01*
X58672000Y20393000D01*
G75*
G02*
X58822000Y20243000I0J-150000D01*
G01*
G37*
G36*
G01*
X58822000Y18973000D02*
X58822000Y18673000D01*
G75*
G02*
X58672000Y18523000I-150000J0D01*
G01*
X57222000Y18523000D01*
G75*
G02*
X57072000Y18673000I0J150000D01*
G01*
X57072000Y18973000D01*
G75*
G02*
X57222000Y19123000I150000J0D01*
G01*
X58672000Y19123000D01*
G75*
G02*
X58822000Y18973000I0J-150000D01*
G01*
G37*
G04 #@! TD*
D24*
G04 #@! TO.C,D301*
X60960000Y19178000D03*
X60960000Y22278000D03*
G04 #@! TD*
G04 #@! TO.C,C307*
G36*
G01*
X55822000Y24825000D02*
X55822000Y25775000D01*
G75*
G02*
X56072000Y26025000I250000J0D01*
G01*
X56747000Y26025000D01*
G75*
G02*
X56997000Y25775000I0J-250000D01*
G01*
X56997000Y24825000D01*
G75*
G02*
X56747000Y24575000I-250000J0D01*
G01*
X56072000Y24575000D01*
G75*
G02*
X55822000Y24825000I0J250000D01*
G01*
G37*
G36*
G01*
X53747000Y24825000D02*
X53747000Y25775000D01*
G75*
G02*
X53997000Y26025000I250000J0D01*
G01*
X54672000Y26025000D01*
G75*
G02*
X54922000Y25775000I0J-250000D01*
G01*
X54922000Y24825000D01*
G75*
G02*
X54672000Y24575000I-250000J0D01*
G01*
X53997000Y24575000D01*
G75*
G02*
X53747000Y24825000I0J250000D01*
G01*
G37*
G04 #@! TD*
G04 #@! TO.C,C306*
G36*
G01*
X64753500Y10639000D02*
X64278500Y10639000D01*
G75*
G02*
X64041000Y10876500I0J237500D01*
G01*
X64041000Y11476500D01*
G75*
G02*
X64278500Y11714000I237500J0D01*
G01*
X64753500Y11714000D01*
G75*
G02*
X64991000Y11476500I0J-237500D01*
G01*
X64991000Y10876500D01*
G75*
G02*
X64753500Y10639000I-237500J0D01*
G01*
G37*
G36*
G01*
X64753500Y8914000D02*
X64278500Y8914000D01*
G75*
G02*
X64041000Y9151500I0J237500D01*
G01*
X64041000Y9751500D01*
G75*
G02*
X64278500Y9989000I237500J0D01*
G01*
X64753500Y9989000D01*
G75*
G02*
X64991000Y9751500I0J-237500D01*
G01*
X64991000Y9151500D01*
G75*
G02*
X64753500Y8914000I-237500J0D01*
G01*
G37*
G04 #@! TD*
G04 #@! TO.C,C305*
G36*
G01*
X55822000Y15681000D02*
X55822000Y16631000D01*
G75*
G02*
X56072000Y16881000I250000J0D01*
G01*
X56747000Y16881000D01*
G75*
G02*
X56997000Y16631000I0J-250000D01*
G01*
X56997000Y15681000D01*
G75*
G02*
X56747000Y15431000I-250000J0D01*
G01*
X56072000Y15431000D01*
G75*
G02*
X55822000Y15681000I0J250000D01*
G01*
G37*
G36*
G01*
X53747000Y15681000D02*
X53747000Y16631000D01*
G75*
G02*
X53997000Y16881000I250000J0D01*
G01*
X54672000Y16881000D01*
G75*
G02*
X54922000Y16631000I0J-250000D01*
G01*
X54922000Y15681000D01*
G75*
G02*
X54672000Y15431000I-250000J0D01*
G01*
X53997000Y15431000D01*
G75*
G02*
X53747000Y15681000I0J250000D01*
G01*
G37*
G04 #@! TD*
G04 #@! TO.C,C304*
G36*
G01*
X61668000Y11429000D02*
X61668000Y11739000D01*
G75*
G02*
X61823000Y11894000I155000J0D01*
G01*
X62248000Y11894000D01*
G75*
G02*
X62403000Y11739000I0J-155000D01*
G01*
X62403000Y11429000D01*
G75*
G02*
X62248000Y11274000I-155000J0D01*
G01*
X61823000Y11274000D01*
G75*
G02*
X61668000Y11429000I0J155000D01*
G01*
G37*
G36*
G01*
X60533000Y11429000D02*
X60533000Y11739000D01*
G75*
G02*
X60688000Y11894000I155000J0D01*
G01*
X61113000Y11894000D01*
G75*
G02*
X61268000Y11739000I0J-155000D01*
G01*
X61268000Y11429000D01*
G75*
G02*
X61113000Y11274000I-155000J0D01*
G01*
X60688000Y11274000D01*
G75*
G02*
X60533000Y11429000I0J155000D01*
G01*
G37*
G04 #@! TD*
G04 #@! TO.C,C303*
G36*
G01*
X61668000Y10032000D02*
X61668000Y10342000D01*
G75*
G02*
X61823000Y10497000I155000J0D01*
G01*
X62248000Y10497000D01*
G75*
G02*
X62403000Y10342000I0J-155000D01*
G01*
X62403000Y10032000D01*
G75*
G02*
X62248000Y9877000I-155000J0D01*
G01*
X61823000Y9877000D01*
G75*
G02*
X61668000Y10032000I0J155000D01*
G01*
G37*
G36*
G01*
X60533000Y10032000D02*
X60533000Y10342000D01*
G75*
G02*
X60688000Y10497000I155000J0D01*
G01*
X61113000Y10497000D01*
G75*
G02*
X61268000Y10342000I0J-155000D01*
G01*
X61268000Y10032000D01*
G75*
G02*
X61113000Y9877000I-155000J0D01*
G01*
X60688000Y9877000D01*
G75*
G02*
X60533000Y10032000I0J155000D01*
G01*
G37*
G04 #@! TD*
G04 #@! TO.C,C302*
G36*
G01*
X56780000Y9467997D02*
X56780000Y11668003D01*
G75*
G02*
X57029997Y11918000I249997J0D01*
G01*
X57855003Y11918000D01*
G75*
G02*
X58105000Y11668003I0J-249997D01*
G01*
X58105000Y9467997D01*
G75*
G02*
X57855003Y9218000I-249997J0D01*
G01*
X57029997Y9218000D01*
G75*
G02*
X56780000Y9467997I0J249997D01*
G01*
G37*
G36*
G01*
X53655000Y9467997D02*
X53655000Y11668003D01*
G75*
G02*
X53904997Y11918000I249997J0D01*
G01*
X54730003Y11918000D01*
G75*
G02*
X54980000Y11668003I0J-249997D01*
G01*
X54980000Y9467997D01*
G75*
G02*
X54730003Y9218000I-249997J0D01*
G01*
X53904997Y9218000D01*
G75*
G02*
X53655000Y9467997I0J249997D01*
G01*
G37*
G04 #@! TD*
G04 #@! TO.C,C301*
G36*
G01*
X62047000Y8298500D02*
X62047000Y8773500D01*
G75*
G02*
X62284500Y9011000I237500J0D01*
G01*
X62884500Y9011000D01*
G75*
G02*
X63122000Y8773500I0J-237500D01*
G01*
X63122000Y8298500D01*
G75*
G02*
X62884500Y8061000I-237500J0D01*
G01*
X62284500Y8061000D01*
G75*
G02*
X62047000Y8298500I0J237500D01*
G01*
G37*
G36*
G01*
X60322000Y8298500D02*
X60322000Y8773500D01*
G75*
G02*
X60559500Y9011000I237500J0D01*
G01*
X61159500Y9011000D01*
G75*
G02*
X61397000Y8773500I0J-237500D01*
G01*
X61397000Y8298500D01*
G75*
G02*
X61159500Y8061000I-237500J0D01*
G01*
X60559500Y8061000D01*
G75*
G02*
X60322000Y8298500I0J237500D01*
G01*
G37*
G04 #@! TD*
D25*
G04 #@! TO.C,U406*
X47672000Y62130000D03*
X47672000Y61180000D03*
X47672000Y63080000D03*
X50372000Y63080000D03*
X50372000Y62130000D03*
X50372000Y61180000D03*
G04 #@! TD*
G04 #@! TO.C,U403*
G36*
G01*
X25313000Y62345000D02*
X25163000Y62345000D01*
G75*
G02*
X25088000Y62420000I0J75000D01*
G01*
X25088000Y63720000D01*
G75*
G02*
X25163000Y63795000I75000J0D01*
G01*
X25313000Y63795000D01*
G75*
G02*
X25388000Y63720000I0J-75000D01*
G01*
X25388000Y62420000D01*
G75*
G02*
X25313000Y62345000I-75000J0D01*
G01*
G37*
G36*
G01*
X25813000Y62345000D02*
X25663000Y62345000D01*
G75*
G02*
X25588000Y62420000I0J75000D01*
G01*
X25588000Y63720000D01*
G75*
G02*
X25663000Y63795000I75000J0D01*
G01*
X25813000Y63795000D01*
G75*
G02*
X25888000Y63720000I0J-75000D01*
G01*
X25888000Y62420000D01*
G75*
G02*
X25813000Y62345000I-75000J0D01*
G01*
G37*
G36*
G01*
X26313000Y62345000D02*
X26163000Y62345000D01*
G75*
G02*
X26088000Y62420000I0J75000D01*
G01*
X26088000Y63720000D01*
G75*
G02*
X26163000Y63795000I75000J0D01*
G01*
X26313000Y63795000D01*
G75*
G02*
X26388000Y63720000I0J-75000D01*
G01*
X26388000Y62420000D01*
G75*
G02*
X26313000Y62345000I-75000J0D01*
G01*
G37*
G36*
G01*
X26813000Y62345000D02*
X26663000Y62345000D01*
G75*
G02*
X26588000Y62420000I0J75000D01*
G01*
X26588000Y63720000D01*
G75*
G02*
X26663000Y63795000I75000J0D01*
G01*
X26813000Y63795000D01*
G75*
G02*
X26888000Y63720000I0J-75000D01*
G01*
X26888000Y62420000D01*
G75*
G02*
X26813000Y62345000I-75000J0D01*
G01*
G37*
G36*
G01*
X27313000Y62345000D02*
X27163000Y62345000D01*
G75*
G02*
X27088000Y62420000I0J75000D01*
G01*
X27088000Y63720000D01*
G75*
G02*
X27163000Y63795000I75000J0D01*
G01*
X27313000Y63795000D01*
G75*
G02*
X27388000Y63720000I0J-75000D01*
G01*
X27388000Y62420000D01*
G75*
G02*
X27313000Y62345000I-75000J0D01*
G01*
G37*
G36*
G01*
X27313000Y57945000D02*
X27163000Y57945000D01*
G75*
G02*
X27088000Y58020000I0J75000D01*
G01*
X27088000Y59320000D01*
G75*
G02*
X27163000Y59395000I75000J0D01*
G01*
X27313000Y59395000D01*
G75*
G02*
X27388000Y59320000I0J-75000D01*
G01*
X27388000Y58020000D01*
G75*
G02*
X27313000Y57945000I-75000J0D01*
G01*
G37*
G36*
G01*
X26813000Y57945000D02*
X26663000Y57945000D01*
G75*
G02*
X26588000Y58020000I0J75000D01*
G01*
X26588000Y59320000D01*
G75*
G02*
X26663000Y59395000I75000J0D01*
G01*
X26813000Y59395000D01*
G75*
G02*
X26888000Y59320000I0J-75000D01*
G01*
X26888000Y58020000D01*
G75*
G02*
X26813000Y57945000I-75000J0D01*
G01*
G37*
G36*
G01*
X26313000Y57945000D02*
X26163000Y57945000D01*
G75*
G02*
X26088000Y58020000I0J75000D01*
G01*
X26088000Y59320000D01*
G75*
G02*
X26163000Y59395000I75000J0D01*
G01*
X26313000Y59395000D01*
G75*
G02*
X26388000Y59320000I0J-75000D01*
G01*
X26388000Y58020000D01*
G75*
G02*
X26313000Y57945000I-75000J0D01*
G01*
G37*
G36*
G01*
X25813000Y57945000D02*
X25663000Y57945000D01*
G75*
G02*
X25588000Y58020000I0J75000D01*
G01*
X25588000Y59320000D01*
G75*
G02*
X25663000Y59395000I75000J0D01*
G01*
X25813000Y59395000D01*
G75*
G02*
X25888000Y59320000I0J-75000D01*
G01*
X25888000Y58020000D01*
G75*
G02*
X25813000Y57945000I-75000J0D01*
G01*
G37*
G36*
G01*
X25313000Y57945000D02*
X25163000Y57945000D01*
G75*
G02*
X25088000Y58020000I0J75000D01*
G01*
X25088000Y59320000D01*
G75*
G02*
X25163000Y59395000I75000J0D01*
G01*
X25313000Y59395000D01*
G75*
G02*
X25388000Y59320000I0J-75000D01*
G01*
X25388000Y58020000D01*
G75*
G02*
X25313000Y57945000I-75000J0D01*
G01*
G37*
G04 #@! TD*
G04 #@! TO.C,C411*
G36*
G01*
X77767000Y43438000D02*
X76817000Y43438000D01*
G75*
G02*
X76567000Y43688000I0J250000D01*
G01*
X76567000Y44363000D01*
G75*
G02*
X76817000Y44613000I250000J0D01*
G01*
X77767000Y44613000D01*
G75*
G02*
X78017000Y44363000I0J-250000D01*
G01*
X78017000Y43688000D01*
G75*
G02*
X77767000Y43438000I-250000J0D01*
G01*
G37*
G36*
G01*
X77767000Y41363000D02*
X76817000Y41363000D01*
G75*
G02*
X76567000Y41613000I0J250000D01*
G01*
X76567000Y42288000D01*
G75*
G02*
X76817000Y42538000I250000J0D01*
G01*
X77767000Y42538000D01*
G75*
G02*
X78017000Y42288000I0J-250000D01*
G01*
X78017000Y41613000D01*
G75*
G02*
X77767000Y41363000I-250000J0D01*
G01*
G37*
G04 #@! TD*
G04 #@! TO.C,C405*
G36*
G01*
X15847000Y48722000D02*
X16157000Y48722000D01*
G75*
G02*
X16312000Y48567000I0J-155000D01*
G01*
X16312000Y48142000D01*
G75*
G02*
X16157000Y47987000I-155000J0D01*
G01*
X15847000Y47987000D01*
G75*
G02*
X15692000Y48142000I0J155000D01*
G01*
X15692000Y48567000D01*
G75*
G02*
X15847000Y48722000I155000J0D01*
G01*
G37*
G36*
G01*
X15847000Y49857000D02*
X16157000Y49857000D01*
G75*
G02*
X16312000Y49702000I0J-155000D01*
G01*
X16312000Y49277000D01*
G75*
G02*
X16157000Y49122000I-155000J0D01*
G01*
X15847000Y49122000D01*
G75*
G02*
X15692000Y49277000I0J155000D01*
G01*
X15692000Y49702000D01*
G75*
G02*
X15847000Y49857000I155000J0D01*
G01*
G37*
G04 #@! TD*
D21*
G04 #@! TO.C,REF\u002A\u002A*
X4000000Y42000000D03*
G04 #@! TD*
G04 #@! TO.C,R421*
G36*
G01*
X48673000Y44851500D02*
X48673000Y44376500D01*
G75*
G02*
X48435500Y44139000I-237500J0D01*
G01*
X47935500Y44139000D01*
G75*
G02*
X47698000Y44376500I0J237500D01*
G01*
X47698000Y44851500D01*
G75*
G02*
X47935500Y45089000I237500J0D01*
G01*
X48435500Y45089000D01*
G75*
G02*
X48673000Y44851500I0J-237500D01*
G01*
G37*
G36*
G01*
X50498000Y44851500D02*
X50498000Y44376500D01*
G75*
G02*
X50260500Y44139000I-237500J0D01*
G01*
X49760500Y44139000D01*
G75*
G02*
X49523000Y44376500I0J237500D01*
G01*
X49523000Y44851500D01*
G75*
G02*
X49760500Y45089000I237500J0D01*
G01*
X50260500Y45089000D01*
G75*
G02*
X50498000Y44851500I0J-237500D01*
G01*
G37*
G04 #@! TD*
D26*
G04 #@! TO.C,CN204*
X3048000Y25146000D03*
X5588000Y25146000D03*
X8128000Y25146000D03*
D27*
X10668000Y25146000D03*
G04 #@! TD*
D26*
G04 #@! TO.C,CN201*
X5588000Y20268000D03*
X3048000Y20268000D03*
X5588000Y17728000D03*
X3048000Y17728000D03*
X5588000Y15188000D03*
X3048000Y15188000D03*
X5588000Y12648000D03*
D27*
X3048000Y12648000D03*
G04 #@! TD*
D28*
G04 #@! TO.C,C210*
X34076000Y24384000D03*
D29*
X36576000Y24384000D03*
G04 #@! TD*
D21*
G04 #@! TO.C,REF\u002A\u002A*
X76000000Y69000000D03*
G04 #@! TD*
D30*
G04 #@! TO.C,REF\u002A\u002A*
X71000000Y5000000D03*
D31*
X71000000Y5000000D03*
G04 #@! TD*
D32*
G04 #@! TO.C,REF\u002A\u002A*
X4000000Y69000000D03*
D31*
X4000000Y69000000D03*
G04 #@! TD*
D28*
G04 #@! TO.C,F401*
X26766000Y68160000D03*
X21666000Y69760000D03*
G04 #@! TD*
D33*
G04 #@! TO.C,F201*
X36850000Y31820000D03*
X31750000Y33020000D03*
G04 #@! TD*
G04 #@! TO.C,C209*
G36*
G01*
X31341000Y9198000D02*
X31651000Y9198000D01*
G75*
G02*
X31806000Y9043000I0J-155000D01*
G01*
X31806000Y8618000D01*
G75*
G02*
X31651000Y8463000I-155000J0D01*
G01*
X31341000Y8463000D01*
G75*
G02*
X31186000Y8618000I0J155000D01*
G01*
X31186000Y9043000D01*
G75*
G02*
X31341000Y9198000I155000J0D01*
G01*
G37*
G36*
G01*
X31341000Y10333000D02*
X31651000Y10333000D01*
G75*
G02*
X31806000Y10178000I0J-155000D01*
G01*
X31806000Y9753000D01*
G75*
G02*
X31651000Y9598000I-155000J0D01*
G01*
X31341000Y9598000D01*
G75*
G02*
X31186000Y9753000I0J155000D01*
G01*
X31186000Y10178000D01*
G75*
G02*
X31341000Y10333000I155000J0D01*
G01*
G37*
G04 #@! TD*
G04 #@! TO.C,C208*
G36*
G01*
X28039000Y9198000D02*
X28349000Y9198000D01*
G75*
G02*
X28504000Y9043000I0J-155000D01*
G01*
X28504000Y8618000D01*
G75*
G02*
X28349000Y8463000I-155000J0D01*
G01*
X28039000Y8463000D01*
G75*
G02*
X27884000Y8618000I0J155000D01*
G01*
X27884000Y9043000D01*
G75*
G02*
X28039000Y9198000I155000J0D01*
G01*
G37*
G36*
G01*
X28039000Y10333000D02*
X28349000Y10333000D01*
G75*
G02*
X28504000Y10178000I0J-155000D01*
G01*
X28504000Y9753000D01*
G75*
G02*
X28349000Y9598000I-155000J0D01*
G01*
X28039000Y9598000D01*
G75*
G02*
X27884000Y9753000I0J155000D01*
G01*
X27884000Y10178000D01*
G75*
G02*
X28039000Y10333000I155000J0D01*
G01*
G37*
G04 #@! TD*
G04 #@! TO.C,C206*
G36*
G01*
X14831000Y14278000D02*
X15141000Y14278000D01*
G75*
G02*
X15296000Y14123000I0J-155000D01*
G01*
X15296000Y13698000D01*
G75*
G02*
X15141000Y13543000I-155000J0D01*
G01*
X14831000Y13543000D01*
G75*
G02*
X14676000Y13698000I0J155000D01*
G01*
X14676000Y14123000D01*
G75*
G02*
X14831000Y14278000I155000J0D01*
G01*
G37*
G36*
G01*
X14831000Y15413000D02*
X15141000Y15413000D01*
G75*
G02*
X15296000Y15258000I0J-155000D01*
G01*
X15296000Y14833000D01*
G75*
G02*
X15141000Y14678000I-155000J0D01*
G01*
X14831000Y14678000D01*
G75*
G02*
X14676000Y14833000I0J155000D01*
G01*
X14676000Y15258000D01*
G75*
G02*
X14831000Y15413000I155000J0D01*
G01*
G37*
G04 #@! TD*
G04 #@! TO.C,C205*
G36*
G01*
X25200000Y9553000D02*
X25200000Y9243000D01*
G75*
G02*
X25045000Y9088000I-155000J0D01*
G01*
X24620000Y9088000D01*
G75*
G02*
X24465000Y9243000I0J155000D01*
G01*
X24465000Y9553000D01*
G75*
G02*
X24620000Y9708000I155000J0D01*
G01*
X25045000Y9708000D01*
G75*
G02*
X25200000Y9553000I0J-155000D01*
G01*
G37*
G36*
G01*
X26335000Y9553000D02*
X26335000Y9243000D01*
G75*
G02*
X26180000Y9088000I-155000J0D01*
G01*
X25755000Y9088000D01*
G75*
G02*
X25600000Y9243000I0J155000D01*
G01*
X25600000Y9553000D01*
G75*
G02*
X25755000Y9708000I155000J0D01*
G01*
X26180000Y9708000D01*
G75*
G02*
X26335000Y9553000I0J-155000D01*
G01*
G37*
G04 #@! TD*
G04 #@! TO.C,C204*
G36*
G01*
X16101000Y22152000D02*
X16411000Y22152000D01*
G75*
G02*
X16566000Y21997000I0J-155000D01*
G01*
X16566000Y21572000D01*
G75*
G02*
X16411000Y21417000I-155000J0D01*
G01*
X16101000Y21417000D01*
G75*
G02*
X15946000Y21572000I0J155000D01*
G01*
X15946000Y21997000D01*
G75*
G02*
X16101000Y22152000I155000J0D01*
G01*
G37*
G36*
G01*
X16101000Y23287000D02*
X16411000Y23287000D01*
G75*
G02*
X16566000Y23132000I0J-155000D01*
G01*
X16566000Y22707000D01*
G75*
G02*
X16411000Y22552000I-155000J0D01*
G01*
X16101000Y22552000D01*
G75*
G02*
X15946000Y22707000I0J155000D01*
G01*
X15946000Y23132000D01*
G75*
G02*
X16101000Y23287000I155000J0D01*
G01*
G37*
G04 #@! TD*
G04 #@! TO.C,C203*
G36*
G01*
X10468000Y9807000D02*
X10468000Y9497000D01*
G75*
G02*
X10313000Y9342000I-155000J0D01*
G01*
X9888000Y9342000D01*
G75*
G02*
X9733000Y9497000I0J155000D01*
G01*
X9733000Y9807000D01*
G75*
G02*
X9888000Y9962000I155000J0D01*
G01*
X10313000Y9962000D01*
G75*
G02*
X10468000Y9807000I0J-155000D01*
G01*
G37*
G36*
G01*
X11603000Y9807000D02*
X11603000Y9497000D01*
G75*
G02*
X11448000Y9342000I-155000J0D01*
G01*
X11023000Y9342000D01*
G75*
G02*
X10868000Y9497000I0J155000D01*
G01*
X10868000Y9807000D01*
G75*
G02*
X11023000Y9962000I155000J0D01*
G01*
X11448000Y9962000D01*
G75*
G02*
X11603000Y9807000I0J-155000D01*
G01*
G37*
G04 #@! TD*
G04 #@! TO.C,C202*
G36*
G01*
X12646000Y14069000D02*
X12646000Y14379000D01*
G75*
G02*
X12801000Y14534000I155000J0D01*
G01*
X13226000Y14534000D01*
G75*
G02*
X13381000Y14379000I0J-155000D01*
G01*
X13381000Y14069000D01*
G75*
G02*
X13226000Y13914000I-155000J0D01*
G01*
X12801000Y13914000D01*
G75*
G02*
X12646000Y14069000I0J155000D01*
G01*
G37*
G36*
G01*
X11511000Y14069000D02*
X11511000Y14379000D01*
G75*
G02*
X11666000Y14534000I155000J0D01*
G01*
X12091000Y14534000D01*
G75*
G02*
X12246000Y14379000I0J-155000D01*
G01*
X12246000Y14069000D01*
G75*
G02*
X12091000Y13914000I-155000J0D01*
G01*
X11666000Y13914000D01*
G75*
G02*
X11511000Y14069000I0J155000D01*
G01*
G37*
G04 #@! TD*
G04 #@! TO.C,C201*
G36*
G01*
X10233000Y22197000D02*
X10233000Y22507000D01*
G75*
G02*
X10388000Y22662000I155000J0D01*
G01*
X10813000Y22662000D01*
G75*
G02*
X10968000Y22507000I0J-155000D01*
G01*
X10968000Y22197000D01*
G75*
G02*
X10813000Y22042000I-155000J0D01*
G01*
X10388000Y22042000D01*
G75*
G02*
X10233000Y22197000I0J155000D01*
G01*
G37*
G36*
G01*
X9098000Y22197000D02*
X9098000Y22507000D01*
G75*
G02*
X9253000Y22662000I155000J0D01*
G01*
X9678000Y22662000D01*
G75*
G02*
X9833000Y22507000I0J-155000D01*
G01*
X9833000Y22197000D01*
G75*
G02*
X9678000Y22042000I-155000J0D01*
G01*
X9253000Y22042000D01*
G75*
G02*
X9098000Y22197000I0J155000D01*
G01*
G37*
G04 #@! TD*
G04 #@! TO.C,R217*
G36*
G01*
X32672000Y13956000D02*
X32352000Y13956000D01*
G75*
G02*
X32192000Y14116000I0J160000D01*
G01*
X32192000Y14511000D01*
G75*
G02*
X32352000Y14671000I160000J0D01*
G01*
X32672000Y14671000D01*
G75*
G02*
X32832000Y14511000I0J-160000D01*
G01*
X32832000Y14116000D01*
G75*
G02*
X32672000Y13956000I-160000J0D01*
G01*
G37*
G36*
G01*
X32672000Y12761000D02*
X32352000Y12761000D01*
G75*
G02*
X32192000Y12921000I0J160000D01*
G01*
X32192000Y13316000D01*
G75*
G02*
X32352000Y13476000I160000J0D01*
G01*
X32672000Y13476000D01*
G75*
G02*
X32832000Y13316000I0J-160000D01*
G01*
X32832000Y12921000D01*
G75*
G02*
X32672000Y12761000I-160000J0D01*
G01*
G37*
G04 #@! TD*
G04 #@! TO.C,R216*
G36*
G01*
X34704000Y13956000D02*
X34384000Y13956000D01*
G75*
G02*
X34224000Y14116000I0J160000D01*
G01*
X34224000Y14511000D01*
G75*
G02*
X34384000Y14671000I160000J0D01*
G01*
X34704000Y14671000D01*
G75*
G02*
X34864000Y14511000I0J-160000D01*
G01*
X34864000Y14116000D01*
G75*
G02*
X34704000Y13956000I-160000J0D01*
G01*
G37*
G36*
G01*
X34704000Y12761000D02*
X34384000Y12761000D01*
G75*
G02*
X34224000Y12921000I0J160000D01*
G01*
X34224000Y13316000D01*
G75*
G02*
X34384000Y13476000I160000J0D01*
G01*
X34704000Y13476000D01*
G75*
G02*
X34864000Y13316000I0J-160000D01*
G01*
X34864000Y12921000D01*
G75*
G02*
X34704000Y12761000I-160000J0D01*
G01*
G37*
G04 #@! TD*
G04 #@! TO.C,R215*
G36*
G01*
X41896000Y8476000D02*
X41896000Y8796000D01*
G75*
G02*
X42056000Y8956000I160000J0D01*
G01*
X42451000Y8956000D01*
G75*
G02*
X42611000Y8796000I0J-160000D01*
G01*
X42611000Y8476000D01*
G75*
G02*
X42451000Y8316000I-160000J0D01*
G01*
X42056000Y8316000D01*
G75*
G02*
X41896000Y8476000I0J160000D01*
G01*
G37*
G36*
G01*
X40701000Y8476000D02*
X40701000Y8796000D01*
G75*
G02*
X40861000Y8956000I160000J0D01*
G01*
X41256000Y8956000D01*
G75*
G02*
X41416000Y8796000I0J-160000D01*
G01*
X41416000Y8476000D01*
G75*
G02*
X41256000Y8316000I-160000J0D01*
G01*
X40861000Y8316000D01*
G75*
G02*
X40701000Y8476000I0J160000D01*
G01*
G37*
G04 #@! TD*
G04 #@! TO.C,R214*
G36*
G01*
X37244000Y13956000D02*
X36924000Y13956000D01*
G75*
G02*
X36764000Y14116000I0J160000D01*
G01*
X36764000Y14511000D01*
G75*
G02*
X36924000Y14671000I160000J0D01*
G01*
X37244000Y14671000D01*
G75*
G02*
X37404000Y14511000I0J-160000D01*
G01*
X37404000Y14116000D01*
G75*
G02*
X37244000Y13956000I-160000J0D01*
G01*
G37*
G36*
G01*
X37244000Y12761000D02*
X36924000Y12761000D01*
G75*
G02*
X36764000Y12921000I0J160000D01*
G01*
X36764000Y13316000D01*
G75*
G02*
X36924000Y13476000I160000J0D01*
G01*
X37244000Y13476000D01*
G75*
G02*
X37404000Y13316000I0J-160000D01*
G01*
X37404000Y12921000D01*
G75*
G02*
X37244000Y12761000I-160000J0D01*
G01*
G37*
G04 #@! TD*
G04 #@! TO.C,R213*
G36*
G01*
X37352000Y11590000D02*
X37352000Y11270000D01*
G75*
G02*
X37192000Y11110000I-160000J0D01*
G01*
X36797000Y11110000D01*
G75*
G02*
X36637000Y11270000I0J160000D01*
G01*
X36637000Y11590000D01*
G75*
G02*
X36797000Y11750000I160000J0D01*
G01*
X37192000Y11750000D01*
G75*
G02*
X37352000Y11590000I0J-160000D01*
G01*
G37*
G36*
G01*
X38547000Y11590000D02*
X38547000Y11270000D01*
G75*
G02*
X38387000Y11110000I-160000J0D01*
G01*
X37992000Y11110000D01*
G75*
G02*
X37832000Y11270000I0J160000D01*
G01*
X37832000Y11590000D01*
G75*
G02*
X37992000Y11750000I160000J0D01*
G01*
X38387000Y11750000D01*
G75*
G02*
X38547000Y11590000I0J-160000D01*
G01*
G37*
G04 #@! TD*
G04 #@! TO.C,R212*
G36*
G01*
X39892000Y2394000D02*
X39892000Y2074000D01*
G75*
G02*
X39732000Y1914000I-160000J0D01*
G01*
X39337000Y1914000D01*
G75*
G02*
X39177000Y2074000I0J160000D01*
G01*
X39177000Y2394000D01*
G75*
G02*
X39337000Y2554000I160000J0D01*
G01*
X39732000Y2554000D01*
G75*
G02*
X39892000Y2394000I0J-160000D01*
G01*
G37*
G36*
G01*
X41087000Y2394000D02*
X41087000Y2074000D01*
G75*
G02*
X40927000Y1914000I-160000J0D01*
G01*
X40532000Y1914000D01*
G75*
G02*
X40372000Y2074000I0J160000D01*
G01*
X40372000Y2394000D01*
G75*
G02*
X40532000Y2554000I160000J0D01*
G01*
X40927000Y2554000D01*
G75*
G02*
X41087000Y2394000I0J-160000D01*
G01*
G37*
G04 #@! TD*
G04 #@! TO.C,R211*
G36*
G01*
X18890000Y4078000D02*
X19210000Y4078000D01*
G75*
G02*
X19370000Y3918000I0J-160000D01*
G01*
X19370000Y3523000D01*
G75*
G02*
X19210000Y3363000I-160000J0D01*
G01*
X18890000Y3363000D01*
G75*
G02*
X18730000Y3523000I0J160000D01*
G01*
X18730000Y3918000D01*
G75*
G02*
X18890000Y4078000I160000J0D01*
G01*
G37*
G36*
G01*
X18890000Y5273000D02*
X19210000Y5273000D01*
G75*
G02*
X19370000Y5113000I0J-160000D01*
G01*
X19370000Y4718000D01*
G75*
G02*
X19210000Y4558000I-160000J0D01*
G01*
X18890000Y4558000D01*
G75*
G02*
X18730000Y4718000I0J160000D01*
G01*
X18730000Y5113000D01*
G75*
G02*
X18890000Y5273000I160000J0D01*
G01*
G37*
G04 #@! TD*
G04 #@! TO.C,R210*
G36*
G01*
X28100000Y3034000D02*
X27780000Y3034000D01*
G75*
G02*
X27620000Y3194000I0J160000D01*
G01*
X27620000Y3589000D01*
G75*
G02*
X27780000Y3749000I160000J0D01*
G01*
X28100000Y3749000D01*
G75*
G02*
X28260000Y3589000I0J-160000D01*
G01*
X28260000Y3194000D01*
G75*
G02*
X28100000Y3034000I-160000J0D01*
G01*
G37*
G36*
G01*
X28100000Y1839000D02*
X27780000Y1839000D01*
G75*
G02*
X27620000Y1999000I0J160000D01*
G01*
X27620000Y2394000D01*
G75*
G02*
X27780000Y2554000I160000J0D01*
G01*
X28100000Y2554000D01*
G75*
G02*
X28260000Y2394000I0J-160000D01*
G01*
X28260000Y1999000D01*
G75*
G02*
X28100000Y1839000I-160000J0D01*
G01*
G37*
G04 #@! TD*
G04 #@! TO.C,R209*
G36*
G01*
X28034000Y6618000D02*
X28354000Y6618000D01*
G75*
G02*
X28514000Y6458000I0J-160000D01*
G01*
X28514000Y6063000D01*
G75*
G02*
X28354000Y5903000I-160000J0D01*
G01*
X28034000Y5903000D01*
G75*
G02*
X27874000Y6063000I0J160000D01*
G01*
X27874000Y6458000D01*
G75*
G02*
X28034000Y6618000I160000J0D01*
G01*
G37*
G36*
G01*
X28034000Y7813000D02*
X28354000Y7813000D01*
G75*
G02*
X28514000Y7653000I0J-160000D01*
G01*
X28514000Y7258000D01*
G75*
G02*
X28354000Y7098000I-160000J0D01*
G01*
X28034000Y7098000D01*
G75*
G02*
X27874000Y7258000I0J160000D01*
G01*
X27874000Y7653000D01*
G75*
G02*
X28034000Y7813000I160000J0D01*
G01*
G37*
G04 #@! TD*
G04 #@! TO.C,R207*
G36*
G01*
X30595000Y5174000D02*
X30595000Y5494000D01*
G75*
G02*
X30755000Y5654000I160000J0D01*
G01*
X31150000Y5654000D01*
G75*
G02*
X31310000Y5494000I0J-160000D01*
G01*
X31310000Y5174000D01*
G75*
G02*
X31150000Y5014000I-160000J0D01*
G01*
X30755000Y5014000D01*
G75*
G02*
X30595000Y5174000I0J160000D01*
G01*
G37*
G36*
G01*
X29400000Y5174000D02*
X29400000Y5494000D01*
G75*
G02*
X29560000Y5654000I160000J0D01*
G01*
X29955000Y5654000D01*
G75*
G02*
X30115000Y5494000I0J-160000D01*
G01*
X30115000Y5174000D01*
G75*
G02*
X29955000Y5014000I-160000J0D01*
G01*
X29560000Y5014000D01*
G75*
G02*
X29400000Y5174000I0J160000D01*
G01*
G37*
G04 #@! TD*
G04 #@! TO.C,R205*
G36*
G01*
X29196000Y15080000D02*
X29196000Y15400000D01*
G75*
G02*
X29356000Y15560000I160000J0D01*
G01*
X29751000Y15560000D01*
G75*
G02*
X29911000Y15400000I0J-160000D01*
G01*
X29911000Y15080000D01*
G75*
G02*
X29751000Y14920000I-160000J0D01*
G01*
X29356000Y14920000D01*
G75*
G02*
X29196000Y15080000I0J160000D01*
G01*
G37*
G36*
G01*
X28001000Y15080000D02*
X28001000Y15400000D01*
G75*
G02*
X28161000Y15560000I160000J0D01*
G01*
X28556000Y15560000D01*
G75*
G02*
X28716000Y15400000I0J-160000D01*
G01*
X28716000Y15080000D01*
G75*
G02*
X28556000Y14920000I-160000J0D01*
G01*
X28161000Y14920000D01*
G75*
G02*
X28001000Y15080000I0J160000D01*
G01*
G37*
G04 #@! TD*
G04 #@! TO.C,R208*
G36*
G01*
X30593000Y6698000D02*
X30593000Y7018000D01*
G75*
G02*
X30753000Y7178000I160000J0D01*
G01*
X31148000Y7178000D01*
G75*
G02*
X31308000Y7018000I0J-160000D01*
G01*
X31308000Y6698000D01*
G75*
G02*
X31148000Y6538000I-160000J0D01*
G01*
X30753000Y6538000D01*
G75*
G02*
X30593000Y6698000I0J160000D01*
G01*
G37*
G36*
G01*
X29398000Y6698000D02*
X29398000Y7018000D01*
G75*
G02*
X29558000Y7178000I160000J0D01*
G01*
X29953000Y7178000D01*
G75*
G02*
X30113000Y7018000I0J-160000D01*
G01*
X30113000Y6698000D01*
G75*
G02*
X29953000Y6538000I-160000J0D01*
G01*
X29558000Y6538000D01*
G75*
G02*
X29398000Y6698000I0J160000D01*
G01*
G37*
G04 #@! TD*
G04 #@! TO.C,R206*
G36*
G01*
X29878000Y9638000D02*
X29558000Y9638000D01*
G75*
G02*
X29398000Y9798000I0J160000D01*
G01*
X29398000Y10193000D01*
G75*
G02*
X29558000Y10353000I160000J0D01*
G01*
X29878000Y10353000D01*
G75*
G02*
X30038000Y10193000I0J-160000D01*
G01*
X30038000Y9798000D01*
G75*
G02*
X29878000Y9638000I-160000J0D01*
G01*
G37*
G36*
G01*
X29878000Y8443000D02*
X29558000Y8443000D01*
G75*
G02*
X29398000Y8603000I0J160000D01*
G01*
X29398000Y8998000D01*
G75*
G02*
X29558000Y9158000I160000J0D01*
G01*
X29878000Y9158000D01*
G75*
G02*
X30038000Y8998000I0J-160000D01*
G01*
X30038000Y8603000D01*
G75*
G02*
X29878000Y8443000I-160000J0D01*
G01*
G37*
G04 #@! TD*
G04 #@! TO.C,R204*
G36*
G01*
X18782000Y21938000D02*
X18782000Y22258000D01*
G75*
G02*
X18942000Y22418000I160000J0D01*
G01*
X19337000Y22418000D01*
G75*
G02*
X19497000Y22258000I0J-160000D01*
G01*
X19497000Y21938000D01*
G75*
G02*
X19337000Y21778000I-160000J0D01*
G01*
X18942000Y21778000D01*
G75*
G02*
X18782000Y21938000I0J160000D01*
G01*
G37*
G36*
G01*
X17587000Y21938000D02*
X17587000Y22258000D01*
G75*
G02*
X17747000Y22418000I160000J0D01*
G01*
X18142000Y22418000D01*
G75*
G02*
X18302000Y22258000I0J-160000D01*
G01*
X18302000Y21938000D01*
G75*
G02*
X18142000Y21778000I-160000J0D01*
G01*
X17747000Y21778000D01*
G75*
G02*
X17587000Y21938000I0J160000D01*
G01*
G37*
G04 #@! TD*
G04 #@! TO.C,R203*
G36*
G01*
X22846000Y23462000D02*
X22846000Y23782000D01*
G75*
G02*
X23006000Y23942000I160000J0D01*
G01*
X23401000Y23942000D01*
G75*
G02*
X23561000Y23782000I0J-160000D01*
G01*
X23561000Y23462000D01*
G75*
G02*
X23401000Y23302000I-160000J0D01*
G01*
X23006000Y23302000D01*
G75*
G02*
X22846000Y23462000I0J160000D01*
G01*
G37*
G36*
G01*
X21651000Y23462000D02*
X21651000Y23782000D01*
G75*
G02*
X21811000Y23942000I160000J0D01*
G01*
X22206000Y23942000D01*
G75*
G02*
X22366000Y23782000I0J-160000D01*
G01*
X22366000Y23462000D01*
G75*
G02*
X22206000Y23302000I-160000J0D01*
G01*
X21811000Y23302000D01*
G75*
G02*
X21651000Y23462000I0J160000D01*
G01*
G37*
G04 #@! TD*
G04 #@! TO.C,R202*
G36*
G01*
X14826000Y16778000D02*
X15146000Y16778000D01*
G75*
G02*
X15306000Y16618000I0J-160000D01*
G01*
X15306000Y16223000D01*
G75*
G02*
X15146000Y16063000I-160000J0D01*
G01*
X14826000Y16063000D01*
G75*
G02*
X14666000Y16223000I0J160000D01*
G01*
X14666000Y16618000D01*
G75*
G02*
X14826000Y16778000I160000J0D01*
G01*
G37*
G36*
G01*
X14826000Y17973000D02*
X15146000Y17973000D01*
G75*
G02*
X15306000Y17813000I0J-160000D01*
G01*
X15306000Y17418000D01*
G75*
G02*
X15146000Y17258000I-160000J0D01*
G01*
X14826000Y17258000D01*
G75*
G02*
X14666000Y17418000I0J160000D01*
G01*
X14666000Y17813000D01*
G75*
G02*
X14826000Y17973000I160000J0D01*
G01*
G37*
G04 #@! TD*
G04 #@! TO.C,R201*
G36*
G01*
X18302000Y23782000D02*
X18302000Y23462000D01*
G75*
G02*
X18142000Y23302000I-160000J0D01*
G01*
X17747000Y23302000D01*
G75*
G02*
X17587000Y23462000I0J160000D01*
G01*
X17587000Y23782000D01*
G75*
G02*
X17747000Y23942000I160000J0D01*
G01*
X18142000Y23942000D01*
G75*
G02*
X18302000Y23782000I0J-160000D01*
G01*
G37*
G36*
G01*
X19497000Y23782000D02*
X19497000Y23462000D01*
G75*
G02*
X19337000Y23302000I-160000J0D01*
G01*
X18942000Y23302000D01*
G75*
G02*
X18782000Y23462000I0J160000D01*
G01*
X18782000Y23782000D01*
G75*
G02*
X18942000Y23942000I160000J0D01*
G01*
X19337000Y23942000D01*
G75*
G02*
X19497000Y23782000I0J-160000D01*
G01*
G37*
G04 #@! TD*
D19*
G04 #@! TO.C,CN401*
X13938000Y40572000D03*
X11938000Y40572000D03*
X13938000Y42572000D03*
G36*
G01*
X11338000Y41996999D02*
X11338000Y43147001D01*
G75*
G02*
X11587999Y43397000I249999J0D01*
G01*
X12288001Y43397000D01*
G75*
G02*
X12538000Y43147001I0J-249999D01*
G01*
X12538000Y41996999D01*
G75*
G02*
X12288001Y41747000I-249999J0D01*
G01*
X11587999Y41747000D01*
G75*
G02*
X11338000Y41996999I0J249999D01*
G01*
G37*
G04 #@! TD*
D34*
G04 #@! TO.C,CN207*
X43148000Y14192000D03*
X43148000Y12192000D03*
X41148000Y14192000D03*
G36*
G01*
X41723001Y11592000D02*
X40572999Y11592000D01*
G75*
G02*
X40323000Y11841999I0J249999D01*
G01*
X40323000Y12542001D01*
G75*
G02*
X40572999Y12792000I249999J0D01*
G01*
X41723001Y12792000D01*
G75*
G02*
X41973000Y12542001I0J-249999D01*
G01*
X41973000Y11841999D01*
G75*
G02*
X41723001Y11592000I-249999J0D01*
G01*
G37*
G04 #@! TD*
G04 #@! TO.C,CN206*
X41942000Y30004000D03*
X41942000Y32004000D03*
X43942000Y30004000D03*
G36*
G01*
X43366999Y32604000D02*
X44517001Y32604000D01*
G75*
G02*
X44767000Y32354001I0J-249999D01*
G01*
X44767000Y31653999D01*
G75*
G02*
X44517001Y31404000I-249999J0D01*
G01*
X43366999Y31404000D01*
G75*
G02*
X43117000Y31653999I0J249999D01*
G01*
X43117000Y32354001D01*
G75*
G02*
X43366999Y32604000I249999J0D01*
G01*
G37*
G04 #@! TD*
G04 #@! TO.C,CN203*
X24300000Y5302000D03*
X24300000Y3302000D03*
X22300000Y5302000D03*
G36*
G01*
X22875001Y2702000D02*
X21724999Y2702000D01*
G75*
G02*
X21475000Y2951999I0J249999D01*
G01*
X21475000Y3652001D01*
G75*
G02*
X21724999Y3902000I249999J0D01*
G01*
X22875001Y3902000D01*
G75*
G02*
X23125000Y3652001I0J-249999D01*
G01*
X23125000Y2951999D01*
G75*
G02*
X22875001Y2702000I-249999J0D01*
G01*
G37*
G04 #@! TD*
D19*
G04 #@! TO.C,CN202*
X11716000Y32428000D03*
X13716000Y32428000D03*
X11716000Y30428000D03*
G36*
G01*
X14316000Y31003001D02*
X14316000Y29852999D01*
G75*
G02*
X14066001Y29603000I-249999J0D01*
G01*
X13365999Y29603000D01*
G75*
G02*
X13116000Y29852999I0J249999D01*
G01*
X13116000Y31003001D01*
G75*
G02*
X13365999Y31253000I249999J0D01*
G01*
X14066001Y31253000D01*
G75*
G02*
X14316000Y31003001I0J-249999D01*
G01*
G37*
G04 #@! TD*
D35*
G04 #@! TO.C,Y201*
X12530000Y19686000D03*
X12530000Y16786000D03*
X10330000Y16786000D03*
X10330000Y19686000D03*
G04 #@! TD*
G04 #@! TO.C,C212*
G36*
G01*
X27785000Y18088000D02*
X28095000Y18088000D01*
G75*
G02*
X28250000Y17933000I0J-155000D01*
G01*
X28250000Y17508000D01*
G75*
G02*
X28095000Y17353000I-155000J0D01*
G01*
X27785000Y17353000D01*
G75*
G02*
X27630000Y17508000I0J155000D01*
G01*
X27630000Y17933000D01*
G75*
G02*
X27785000Y18088000I155000J0D01*
G01*
G37*
G36*
G01*
X27785000Y19223000D02*
X28095000Y19223000D01*
G75*
G02*
X28250000Y19068000I0J-155000D01*
G01*
X28250000Y18643000D01*
G75*
G02*
X28095000Y18488000I-155000J0D01*
G01*
X27785000Y18488000D01*
G75*
G02*
X27630000Y18643000I0J155000D01*
G01*
X27630000Y19068000D01*
G75*
G02*
X27785000Y19223000I155000J0D01*
G01*
G37*
G04 #@! TD*
G04 #@! TO.C,C407*
G36*
G01*
X12855000Y49630000D02*
X12545000Y49630000D01*
G75*
G02*
X12390000Y49785000I0J155000D01*
G01*
X12390000Y50210000D01*
G75*
G02*
X12545000Y50365000I155000J0D01*
G01*
X12855000Y50365000D01*
G75*
G02*
X13010000Y50210000I0J-155000D01*
G01*
X13010000Y49785000D01*
G75*
G02*
X12855000Y49630000I-155000J0D01*
G01*
G37*
G36*
G01*
X12855000Y48495000D02*
X12545000Y48495000D01*
G75*
G02*
X12390000Y48650000I0J155000D01*
G01*
X12390000Y49075000D01*
G75*
G02*
X12545000Y49230000I155000J0D01*
G01*
X12855000Y49230000D01*
G75*
G02*
X13010000Y49075000I0J-155000D01*
G01*
X13010000Y48650000D01*
G75*
G02*
X12855000Y48495000I-155000J0D01*
G01*
G37*
G04 #@! TD*
G04 #@! TO.C,C409*
G36*
G01*
X47145000Y56996000D02*
X46835000Y56996000D01*
G75*
G02*
X46680000Y57151000I0J155000D01*
G01*
X46680000Y57576000D01*
G75*
G02*
X46835000Y57731000I155000J0D01*
G01*
X47145000Y57731000D01*
G75*
G02*
X47300000Y57576000I0J-155000D01*
G01*
X47300000Y57151000D01*
G75*
G02*
X47145000Y56996000I-155000J0D01*
G01*
G37*
G36*
G01*
X47145000Y55861000D02*
X46835000Y55861000D01*
G75*
G02*
X46680000Y56016000I0J155000D01*
G01*
X46680000Y56441000D01*
G75*
G02*
X46835000Y56596000I155000J0D01*
G01*
X47145000Y56596000D01*
G75*
G02*
X47300000Y56441000I0J-155000D01*
G01*
X47300000Y56016000D01*
G75*
G02*
X47145000Y55861000I-155000J0D01*
G01*
G37*
G04 #@! TD*
G04 #@! TO.C,C408*
G36*
G01*
X48822000Y65333000D02*
X48822000Y65023000D01*
G75*
G02*
X48667000Y64868000I-155000J0D01*
G01*
X48242000Y64868000D01*
G75*
G02*
X48087000Y65023000I0J155000D01*
G01*
X48087000Y65333000D01*
G75*
G02*
X48242000Y65488000I155000J0D01*
G01*
X48667000Y65488000D01*
G75*
G02*
X48822000Y65333000I0J-155000D01*
G01*
G37*
G36*
G01*
X49957000Y65333000D02*
X49957000Y65023000D01*
G75*
G02*
X49802000Y64868000I-155000J0D01*
G01*
X49377000Y64868000D01*
G75*
G02*
X49222000Y65023000I0J155000D01*
G01*
X49222000Y65333000D01*
G75*
G02*
X49377000Y65488000I155000J0D01*
G01*
X49802000Y65488000D01*
G75*
G02*
X49957000Y65333000I0J-155000D01*
G01*
G37*
G04 #@! TD*
G04 #@! TO.C,C412*
G36*
G01*
X13561000Y61930000D02*
X13871000Y61930000D01*
G75*
G02*
X14026000Y61775000I0J-155000D01*
G01*
X14026000Y61350000D01*
G75*
G02*
X13871000Y61195000I-155000J0D01*
G01*
X13561000Y61195000D01*
G75*
G02*
X13406000Y61350000I0J155000D01*
G01*
X13406000Y61775000D01*
G75*
G02*
X13561000Y61930000I155000J0D01*
G01*
G37*
G36*
G01*
X13561000Y63065000D02*
X13871000Y63065000D01*
G75*
G02*
X14026000Y62910000I0J-155000D01*
G01*
X14026000Y62485000D01*
G75*
G02*
X13871000Y62330000I-155000J0D01*
G01*
X13561000Y62330000D01*
G75*
G02*
X13406000Y62485000I0J155000D01*
G01*
X13406000Y62910000D01*
G75*
G02*
X13561000Y63065000I155000J0D01*
G01*
G37*
G04 #@! TD*
G04 #@! TO.C,C406*
G36*
G01*
X27200000Y64677000D02*
X27200000Y64987000D01*
G75*
G02*
X27355000Y65142000I155000J0D01*
G01*
X27780000Y65142000D01*
G75*
G02*
X27935000Y64987000I0J-155000D01*
G01*
X27935000Y64677000D01*
G75*
G02*
X27780000Y64522000I-155000J0D01*
G01*
X27355000Y64522000D01*
G75*
G02*
X27200000Y64677000I0J155000D01*
G01*
G37*
G36*
G01*
X26065000Y64677000D02*
X26065000Y64987000D01*
G75*
G02*
X26220000Y65142000I155000J0D01*
G01*
X26645000Y65142000D01*
G75*
G02*
X26800000Y64987000I0J-155000D01*
G01*
X26800000Y64677000D01*
G75*
G02*
X26645000Y64522000I-155000J0D01*
G01*
X26220000Y64522000D01*
G75*
G02*
X26065000Y64677000I0J155000D01*
G01*
G37*
G04 #@! TD*
G04 #@! TO.C,C402*
G36*
G01*
X31118000Y57723000D02*
X31118000Y57413000D01*
G75*
G02*
X30963000Y57258000I-155000J0D01*
G01*
X30538000Y57258000D01*
G75*
G02*
X30383000Y57413000I0J155000D01*
G01*
X30383000Y57723000D01*
G75*
G02*
X30538000Y57878000I155000J0D01*
G01*
X30963000Y57878000D01*
G75*
G02*
X31118000Y57723000I0J-155000D01*
G01*
G37*
G36*
G01*
X32253000Y57723000D02*
X32253000Y57413000D01*
G75*
G02*
X32098000Y57258000I-155000J0D01*
G01*
X31673000Y57258000D01*
G75*
G02*
X31518000Y57413000I0J155000D01*
G01*
X31518000Y57723000D01*
G75*
G02*
X31673000Y57878000I155000J0D01*
G01*
X32098000Y57878000D01*
G75*
G02*
X32253000Y57723000I0J-155000D01*
G01*
G37*
G04 #@! TD*
D21*
G04 #@! TO.C,REF\u002A\u002A*
X43000000Y21000000D03*
G04 #@! TD*
D36*
G04 #@! TO.C,SW201*
X10492000Y2147000D03*
X10492000Y6997000D03*
X13892000Y6997000D03*
X13892000Y2147000D03*
G04 #@! TD*
D21*
G04 #@! TO.C,REF\u002A\u002A*
X4000000Y4000000D03*
G04 #@! TD*
G04 #@! TO.C,REF\u002A\u002A*
X4000000Y31000000D03*
G04 #@! TD*
G04 #@! TO.C,C213*
G36*
G01*
X31692000Y17813000D02*
X31692000Y18763000D01*
G75*
G02*
X31942000Y19013000I250000J0D01*
G01*
X32617000Y19013000D01*
G75*
G02*
X32867000Y18763000I0J-250000D01*
G01*
X32867000Y17813000D01*
G75*
G02*
X32617000Y17563000I-250000J0D01*
G01*
X31942000Y17563000D01*
G75*
G02*
X31692000Y17813000I0J250000D01*
G01*
G37*
G36*
G01*
X29617000Y17813000D02*
X29617000Y18763000D01*
G75*
G02*
X29867000Y19013000I250000J0D01*
G01*
X30542000Y19013000D01*
G75*
G02*
X30792000Y18763000I0J-250000D01*
G01*
X30792000Y17813000D01*
G75*
G02*
X30542000Y17563000I-250000J0D01*
G01*
X29867000Y17563000D01*
G75*
G02*
X29617000Y17813000I0J250000D01*
G01*
G37*
G04 #@! TD*
G04 #@! TO.C,C211*
G36*
G01*
X24442000Y26891000D02*
X24442000Y25941000D01*
G75*
G02*
X24192000Y25691000I-250000J0D01*
G01*
X23517000Y25691000D01*
G75*
G02*
X23267000Y25941000I0J250000D01*
G01*
X23267000Y26891000D01*
G75*
G02*
X23517000Y27141000I250000J0D01*
G01*
X24192000Y27141000D01*
G75*
G02*
X24442000Y26891000I0J-250000D01*
G01*
G37*
G36*
G01*
X26517000Y26891000D02*
X26517000Y25941000D01*
G75*
G02*
X26267000Y25691000I-250000J0D01*
G01*
X25592000Y25691000D01*
G75*
G02*
X25342000Y25941000I0J250000D01*
G01*
X25342000Y26891000D01*
G75*
G02*
X25592000Y27141000I250000J0D01*
G01*
X26267000Y27141000D01*
G75*
G02*
X26517000Y26891000I0J-250000D01*
G01*
G37*
G04 #@! TD*
G04 #@! TO.C,R424*
G36*
G01*
X42401500Y53157000D02*
X41926500Y53157000D01*
G75*
G02*
X41689000Y53394500I0J237500D01*
G01*
X41689000Y53894500D01*
G75*
G02*
X41926500Y54132000I237500J0D01*
G01*
X42401500Y54132000D01*
G75*
G02*
X42639000Y53894500I0J-237500D01*
G01*
X42639000Y53394500D01*
G75*
G02*
X42401500Y53157000I-237500J0D01*
G01*
G37*
G36*
G01*
X42401500Y51332000D02*
X41926500Y51332000D01*
G75*
G02*
X41689000Y51569500I0J237500D01*
G01*
X41689000Y52069500D01*
G75*
G02*
X41926500Y52307000I237500J0D01*
G01*
X42401500Y52307000D01*
G75*
G02*
X42639000Y52069500I0J-237500D01*
G01*
X42639000Y51569500D01*
G75*
G02*
X42401500Y51332000I-237500J0D01*
G01*
G37*
G04 #@! TD*
G04 #@! TO.C,R426*
G36*
G01*
X53765000Y61892500D02*
X53765000Y62367500D01*
G75*
G02*
X54002500Y62605000I237500J0D01*
G01*
X54502500Y62605000D01*
G75*
G02*
X54740000Y62367500I0J-237500D01*
G01*
X54740000Y61892500D01*
G75*
G02*
X54502500Y61655000I-237500J0D01*
G01*
X54002500Y61655000D01*
G75*
G02*
X53765000Y61892500I0J237500D01*
G01*
G37*
G36*
G01*
X51940000Y61892500D02*
X51940000Y62367500D01*
G75*
G02*
X52177500Y62605000I237500J0D01*
G01*
X52677500Y62605000D01*
G75*
G02*
X52915000Y62367500I0J-237500D01*
G01*
X52915000Y61892500D01*
G75*
G02*
X52677500Y61655000I-237500J0D01*
G01*
X52177500Y61655000D01*
G75*
G02*
X51940000Y61892500I0J237500D01*
G01*
G37*
G04 #@! TD*
D37*
G04 #@! TO.C,CN403*
X36198000Y41058000D03*
X33698000Y41058000D03*
X31198000Y41058000D03*
X28698000Y41058000D03*
X26198000Y41058000D03*
G36*
G01*
X22848000Y40383000D02*
X22848000Y41733000D01*
G75*
G02*
X23098000Y41983000I250000J0D01*
G01*
X24298000Y41983000D01*
G75*
G02*
X24548000Y41733000I0J-250000D01*
G01*
X24548000Y40383000D01*
G75*
G02*
X24298000Y40133000I-250000J0D01*
G01*
X23098000Y40133000D01*
G75*
G02*
X22848000Y40383000I0J250000D01*
G01*
G37*
G04 #@! TD*
D38*
G04 #@! TO.C,Q401*
X54086000Y54256000D03*
X52086000Y53606000D03*
X52086000Y54906000D03*
G04 #@! TD*
D39*
G04 #@! TO.C,Q202*
X30226000Y1667000D03*
X29576000Y3667000D03*
X30876000Y3667000D03*
G04 #@! TD*
G04 #@! TO.C,Q201*
X28956000Y13446000D03*
X29606000Y11446000D03*
X28306000Y11446000D03*
G04 #@! TD*
G04 #@! TO.C,C401*
G36*
G01*
X36723000Y51488500D02*
X36723000Y51963500D01*
G75*
G02*
X36960500Y52201000I237500J0D01*
G01*
X37560500Y52201000D01*
G75*
G02*
X37798000Y51963500I0J-237500D01*
G01*
X37798000Y51488500D01*
G75*
G02*
X37560500Y51251000I-237500J0D01*
G01*
X36960500Y51251000D01*
G75*
G02*
X36723000Y51488500I0J237500D01*
G01*
G37*
G36*
G01*
X34998000Y51488500D02*
X34998000Y51963500D01*
G75*
G02*
X35235500Y52201000I237500J0D01*
G01*
X35835500Y52201000D01*
G75*
G02*
X36073000Y51963500I0J-237500D01*
G01*
X36073000Y51488500D01*
G75*
G02*
X35835500Y51251000I-237500J0D01*
G01*
X35235500Y51251000D01*
G75*
G02*
X34998000Y51488500I0J237500D01*
G01*
G37*
G04 #@! TD*
G04 #@! TO.C,U408*
G36*
G01*
X50008000Y47031000D02*
X50008000Y46831000D01*
G75*
G02*
X49908000Y46731000I-100000J0D01*
G01*
X48483000Y46731000D01*
G75*
G02*
X48383000Y46831000I0J100000D01*
G01*
X48383000Y47031000D01*
G75*
G02*
X48483000Y47131000I100000J0D01*
G01*
X49908000Y47131000D01*
G75*
G02*
X50008000Y47031000I0J-100000D01*
G01*
G37*
G36*
G01*
X50008000Y47681000D02*
X50008000Y47481000D01*
G75*
G02*
X49908000Y47381000I-100000J0D01*
G01*
X48483000Y47381000D01*
G75*
G02*
X48383000Y47481000I0J100000D01*
G01*
X48383000Y47681000D01*
G75*
G02*
X48483000Y47781000I100000J0D01*
G01*
X49908000Y47781000D01*
G75*
G02*
X50008000Y47681000I0J-100000D01*
G01*
G37*
G36*
G01*
X50008000Y48331000D02*
X50008000Y48131000D01*
G75*
G02*
X49908000Y48031000I-100000J0D01*
G01*
X48483000Y48031000D01*
G75*
G02*
X48383000Y48131000I0J100000D01*
G01*
X48383000Y48331000D01*
G75*
G02*
X48483000Y48431000I100000J0D01*
G01*
X49908000Y48431000D01*
G75*
G02*
X50008000Y48331000I0J-100000D01*
G01*
G37*
G36*
G01*
X50008000Y48981000D02*
X50008000Y48781000D01*
G75*
G02*
X49908000Y48681000I-100000J0D01*
G01*
X48483000Y48681000D01*
G75*
G02*
X48383000Y48781000I0J100000D01*
G01*
X48383000Y48981000D01*
G75*
G02*
X48483000Y49081000I100000J0D01*
G01*
X49908000Y49081000D01*
G75*
G02*
X50008000Y48981000I0J-100000D01*
G01*
G37*
G36*
G01*
X54233000Y48981000D02*
X54233000Y48781000D01*
G75*
G02*
X54133000Y48681000I-100000J0D01*
G01*
X52708000Y48681000D01*
G75*
G02*
X52608000Y48781000I0J100000D01*
G01*
X52608000Y48981000D01*
G75*
G02*
X52708000Y49081000I100000J0D01*
G01*
X54133000Y49081000D01*
G75*
G02*
X54233000Y48981000I0J-100000D01*
G01*
G37*
G36*
G01*
X54233000Y48331000D02*
X54233000Y48131000D01*
G75*
G02*
X54133000Y48031000I-100000J0D01*
G01*
X52708000Y48031000D01*
G75*
G02*
X52608000Y48131000I0J100000D01*
G01*
X52608000Y48331000D01*
G75*
G02*
X52708000Y48431000I100000J0D01*
G01*
X54133000Y48431000D01*
G75*
G02*
X54233000Y48331000I0J-100000D01*
G01*
G37*
G36*
G01*
X54233000Y47681000D02*
X54233000Y47481000D01*
G75*
G02*
X54133000Y47381000I-100000J0D01*
G01*
X52708000Y47381000D01*
G75*
G02*
X52608000Y47481000I0J100000D01*
G01*
X52608000Y47681000D01*
G75*
G02*
X52708000Y47781000I100000J0D01*
G01*
X54133000Y47781000D01*
G75*
G02*
X54233000Y47681000I0J-100000D01*
G01*
G37*
G36*
G01*
X54233000Y47031000D02*
X54233000Y46831000D01*
G75*
G02*
X54133000Y46731000I-100000J0D01*
G01*
X52708000Y46731000D01*
G75*
G02*
X52608000Y46831000I0J100000D01*
G01*
X52608000Y47031000D01*
G75*
G02*
X52708000Y47131000I100000J0D01*
G01*
X54133000Y47131000D01*
G75*
G02*
X54233000Y47031000I0J-100000D01*
G01*
G37*
G04 #@! TD*
D40*
G04 #@! TO.C,U401*
X31868000Y55739000D03*
X31868000Y55089000D03*
X31868000Y54439000D03*
X31868000Y53789000D03*
X27568000Y53789000D03*
X27568000Y54439000D03*
X27568000Y55089000D03*
X27568000Y55739000D03*
G04 #@! TD*
D41*
G04 #@! TO.C,D402*
X35198000Y48424000D03*
X37598000Y49374000D03*
X37598000Y47474000D03*
G04 #@! TD*
G04 #@! TO.C,D401*
X24390000Y48424000D03*
X21990000Y47474000D03*
X21990000Y49374000D03*
G04 #@! TD*
G04 #@! TO.C,R403*
G36*
G01*
X27083000Y47899500D02*
X27083000Y47424500D01*
G75*
G02*
X26845500Y47187000I-237500J0D01*
G01*
X26345500Y47187000D01*
G75*
G02*
X26108000Y47424500I0J237500D01*
G01*
X26108000Y47899500D01*
G75*
G02*
X26345500Y48137000I237500J0D01*
G01*
X26845500Y48137000D01*
G75*
G02*
X27083000Y47899500I0J-237500D01*
G01*
G37*
G36*
G01*
X28908000Y47899500D02*
X28908000Y47424500D01*
G75*
G02*
X28670500Y47187000I-237500J0D01*
G01*
X28170500Y47187000D01*
G75*
G02*
X27933000Y47424500I0J237500D01*
G01*
X27933000Y47899500D01*
G75*
G02*
X28170500Y48137000I237500J0D01*
G01*
X28670500Y48137000D01*
G75*
G02*
X28908000Y47899500I0J-237500D01*
G01*
G37*
G04 #@! TD*
G04 #@! TO.C,R401*
G36*
G01*
X32505000Y47424500D02*
X32505000Y47899500D01*
G75*
G02*
X32742500Y48137000I237500J0D01*
G01*
X33242500Y48137000D01*
G75*
G02*
X33480000Y47899500I0J-237500D01*
G01*
X33480000Y47424500D01*
G75*
G02*
X33242500Y47187000I-237500J0D01*
G01*
X32742500Y47187000D01*
G75*
G02*
X32505000Y47424500I0J237500D01*
G01*
G37*
G36*
G01*
X30680000Y47424500D02*
X30680000Y47899500D01*
G75*
G02*
X30917500Y48137000I237500J0D01*
G01*
X31417500Y48137000D01*
G75*
G02*
X31655000Y47899500I0J-237500D01*
G01*
X31655000Y47424500D01*
G75*
G02*
X31417500Y47187000I-237500J0D01*
G01*
X30917500Y47187000D01*
G75*
G02*
X30680000Y47424500I0J237500D01*
G01*
G37*
G04 #@! TD*
G04 #@! TO.C,R425*
G36*
G01*
X36493000Y58082500D02*
X36493000Y58557500D01*
G75*
G02*
X36730500Y58795000I237500J0D01*
G01*
X37230500Y58795000D01*
G75*
G02*
X37468000Y58557500I0J-237500D01*
G01*
X37468000Y58082500D01*
G75*
G02*
X37230500Y57845000I-237500J0D01*
G01*
X36730500Y57845000D01*
G75*
G02*
X36493000Y58082500I0J237500D01*
G01*
G37*
G36*
G01*
X34668000Y58082500D02*
X34668000Y58557500D01*
G75*
G02*
X34905500Y58795000I237500J0D01*
G01*
X35405500Y58795000D01*
G75*
G02*
X35643000Y58557500I0J-237500D01*
G01*
X35643000Y58082500D01*
G75*
G02*
X35405500Y57845000I-237500J0D01*
G01*
X34905500Y57845000D01*
G75*
G02*
X34668000Y58082500I0J237500D01*
G01*
G37*
G04 #@! TD*
G04 #@! TO.C,R423*
G36*
G01*
X36493000Y60876500D02*
X36493000Y61351500D01*
G75*
G02*
X36730500Y61589000I237500J0D01*
G01*
X37230500Y61589000D01*
G75*
G02*
X37468000Y61351500I0J-237500D01*
G01*
X37468000Y60876500D01*
G75*
G02*
X37230500Y60639000I-237500J0D01*
G01*
X36730500Y60639000D01*
G75*
G02*
X36493000Y60876500I0J237500D01*
G01*
G37*
G36*
G01*
X34668000Y60876500D02*
X34668000Y61351500D01*
G75*
G02*
X34905500Y61589000I237500J0D01*
G01*
X35405500Y61589000D01*
G75*
G02*
X35643000Y61351500I0J-237500D01*
G01*
X35643000Y60876500D01*
G75*
G02*
X35405500Y60639000I-237500J0D01*
G01*
X34905500Y60639000D01*
G75*
G02*
X34668000Y60876500I0J237500D01*
G01*
G37*
G04 #@! TD*
G04 #@! TO.C,R422*
G36*
G01*
X6521000Y47668500D02*
X6521000Y48143500D01*
G75*
G02*
X6758500Y48381000I237500J0D01*
G01*
X7258500Y48381000D01*
G75*
G02*
X7496000Y48143500I0J-237500D01*
G01*
X7496000Y47668500D01*
G75*
G02*
X7258500Y47431000I-237500J0D01*
G01*
X6758500Y47431000D01*
G75*
G02*
X6521000Y47668500I0J237500D01*
G01*
G37*
G36*
G01*
X4696000Y47668500D02*
X4696000Y48143500D01*
G75*
G02*
X4933500Y48381000I237500J0D01*
G01*
X5433500Y48381000D01*
G75*
G02*
X5671000Y48143500I0J-237500D01*
G01*
X5671000Y47668500D01*
G75*
G02*
X5433500Y47431000I-237500J0D01*
G01*
X4933500Y47431000D01*
G75*
G02*
X4696000Y47668500I0J237500D01*
G01*
G37*
G04 #@! TD*
G04 #@! TO.C,R418*
G36*
G01*
X44466500Y52307000D02*
X44941500Y52307000D01*
G75*
G02*
X45179000Y52069500I0J-237500D01*
G01*
X45179000Y51569500D01*
G75*
G02*
X44941500Y51332000I-237500J0D01*
G01*
X44466500Y51332000D01*
G75*
G02*
X44229000Y51569500I0J237500D01*
G01*
X44229000Y52069500D01*
G75*
G02*
X44466500Y52307000I237500J0D01*
G01*
G37*
G36*
G01*
X44466500Y54132000D02*
X44941500Y54132000D01*
G75*
G02*
X45179000Y53894500I0J-237500D01*
G01*
X45179000Y53394500D01*
G75*
G02*
X44941500Y53157000I-237500J0D01*
G01*
X44466500Y53157000D01*
G75*
G02*
X44229000Y53394500I0J237500D01*
G01*
X44229000Y53894500D01*
G75*
G02*
X44466500Y54132000I237500J0D01*
G01*
G37*
G04 #@! TD*
G04 #@! TO.C,R417*
G36*
G01*
X49259500Y55189000D02*
X48784500Y55189000D01*
G75*
G02*
X48547000Y55426500I0J237500D01*
G01*
X48547000Y55926500D01*
G75*
G02*
X48784500Y56164000I237500J0D01*
G01*
X49259500Y56164000D01*
G75*
G02*
X49497000Y55926500I0J-237500D01*
G01*
X49497000Y55426500D01*
G75*
G02*
X49259500Y55189000I-237500J0D01*
G01*
G37*
G36*
G01*
X49259500Y53364000D02*
X48784500Y53364000D01*
G75*
G02*
X48547000Y53601500I0J237500D01*
G01*
X48547000Y54101500D01*
G75*
G02*
X48784500Y54339000I237500J0D01*
G01*
X49259500Y54339000D01*
G75*
G02*
X49497000Y54101500I0J-237500D01*
G01*
X49497000Y53601500D01*
G75*
G02*
X49259500Y53364000I-237500J0D01*
G01*
G37*
G04 #@! TD*
G04 #@! TO.C,R416*
G36*
G01*
X52915000Y64653500D02*
X52915000Y64178500D01*
G75*
G02*
X52677500Y63941000I-237500J0D01*
G01*
X52177500Y63941000D01*
G75*
G02*
X51940000Y64178500I0J237500D01*
G01*
X51940000Y64653500D01*
G75*
G02*
X52177500Y64891000I237500J0D01*
G01*
X52677500Y64891000D01*
G75*
G02*
X52915000Y64653500I0J-237500D01*
G01*
G37*
G36*
G01*
X54740000Y64653500D02*
X54740000Y64178500D01*
G75*
G02*
X54502500Y63941000I-237500J0D01*
G01*
X54002500Y63941000D01*
G75*
G02*
X53765000Y64178500I0J237500D01*
G01*
X53765000Y64653500D01*
G75*
G02*
X54002500Y64891000I237500J0D01*
G01*
X54502500Y64891000D01*
G75*
G02*
X54740000Y64653500I0J-237500D01*
G01*
G37*
G04 #@! TD*
G04 #@! TO.C,R414*
G36*
G01*
X30905000Y59352500D02*
X30905000Y59827500D01*
G75*
G02*
X31142500Y60065000I237500J0D01*
G01*
X31642500Y60065000D01*
G75*
G02*
X31880000Y59827500I0J-237500D01*
G01*
X31880000Y59352500D01*
G75*
G02*
X31642500Y59115000I-237500J0D01*
G01*
X31142500Y59115000D01*
G75*
G02*
X30905000Y59352500I0J237500D01*
G01*
G37*
G36*
G01*
X29080000Y59352500D02*
X29080000Y59827500D01*
G75*
G02*
X29317500Y60065000I237500J0D01*
G01*
X29817500Y60065000D01*
G75*
G02*
X30055000Y59827500I0J-237500D01*
G01*
X30055000Y59352500D01*
G75*
G02*
X29817500Y59115000I-237500J0D01*
G01*
X29317500Y59115000D01*
G75*
G02*
X29080000Y59352500I0J237500D01*
G01*
G37*
G04 #@! TD*
G04 #@! TO.C,R413*
G36*
G01*
X48343000Y51445500D02*
X48343000Y50970500D01*
G75*
G02*
X48105500Y50733000I-237500J0D01*
G01*
X47605500Y50733000D01*
G75*
G02*
X47368000Y50970500I0J237500D01*
G01*
X47368000Y51445500D01*
G75*
G02*
X47605500Y51683000I237500J0D01*
G01*
X48105500Y51683000D01*
G75*
G02*
X48343000Y51445500I0J-237500D01*
G01*
G37*
G36*
G01*
X50168000Y51445500D02*
X50168000Y50970500D01*
G75*
G02*
X49930500Y50733000I-237500J0D01*
G01*
X49430500Y50733000D01*
G75*
G02*
X49193000Y50970500I0J237500D01*
G01*
X49193000Y51445500D01*
G75*
G02*
X49430500Y51683000I237500J0D01*
G01*
X49930500Y51683000D01*
G75*
G02*
X50168000Y51445500I0J-237500D01*
G01*
G37*
G04 #@! TD*
G04 #@! TO.C,R412*
G36*
G01*
X30905000Y63416500D02*
X30905000Y63891500D01*
G75*
G02*
X31142500Y64129000I237500J0D01*
G01*
X31642500Y64129000D01*
G75*
G02*
X31880000Y63891500I0J-237500D01*
G01*
X31880000Y63416500D01*
G75*
G02*
X31642500Y63179000I-237500J0D01*
G01*
X31142500Y63179000D01*
G75*
G02*
X30905000Y63416500I0J237500D01*
G01*
G37*
G36*
G01*
X29080000Y63416500D02*
X29080000Y63891500D01*
G75*
G02*
X29317500Y64129000I237500J0D01*
G01*
X29817500Y64129000D01*
G75*
G02*
X30055000Y63891500I0J-237500D01*
G01*
X30055000Y63416500D01*
G75*
G02*
X29817500Y63179000I-237500J0D01*
G01*
X29317500Y63179000D01*
G75*
G02*
X29080000Y63416500I0J237500D01*
G01*
G37*
G04 #@! TD*
G04 #@! TO.C,R411*
G36*
G01*
X30055000Y61859500D02*
X30055000Y61384500D01*
G75*
G02*
X29817500Y61147000I-237500J0D01*
G01*
X29317500Y61147000D01*
G75*
G02*
X29080000Y61384500I0J237500D01*
G01*
X29080000Y61859500D01*
G75*
G02*
X29317500Y62097000I237500J0D01*
G01*
X29817500Y62097000D01*
G75*
G02*
X30055000Y61859500I0J-237500D01*
G01*
G37*
G36*
G01*
X31880000Y61859500D02*
X31880000Y61384500D01*
G75*
G02*
X31642500Y61147000I-237500J0D01*
G01*
X31142500Y61147000D01*
G75*
G02*
X30905000Y61384500I0J237500D01*
G01*
X30905000Y61859500D01*
G75*
G02*
X31142500Y62097000I237500J0D01*
G01*
X31642500Y62097000D01*
G75*
G02*
X31880000Y61859500I0J-237500D01*
G01*
G37*
G04 #@! TD*
G04 #@! TO.C,R410*
G36*
G01*
X24631000Y53520500D02*
X24631000Y53995500D01*
G75*
G02*
X24868500Y54233000I237500J0D01*
G01*
X25368500Y54233000D01*
G75*
G02*
X25606000Y53995500I0J-237500D01*
G01*
X25606000Y53520500D01*
G75*
G02*
X25368500Y53283000I-237500J0D01*
G01*
X24868500Y53283000D01*
G75*
G02*
X24631000Y53520500I0J237500D01*
G01*
G37*
G36*
G01*
X22806000Y53520500D02*
X22806000Y53995500D01*
G75*
G02*
X23043500Y54233000I237500J0D01*
G01*
X23543500Y54233000D01*
G75*
G02*
X23781000Y53995500I0J-237500D01*
G01*
X23781000Y53520500D01*
G75*
G02*
X23543500Y53283000I-237500J0D01*
G01*
X23043500Y53283000D01*
G75*
G02*
X22806000Y53520500I0J237500D01*
G01*
G37*
G04 #@! TD*
G04 #@! TO.C,R409*
G36*
G01*
X36084500Y54339000D02*
X36559500Y54339000D01*
G75*
G02*
X36797000Y54101500I0J-237500D01*
G01*
X36797000Y53601500D01*
G75*
G02*
X36559500Y53364000I-237500J0D01*
G01*
X36084500Y53364000D01*
G75*
G02*
X35847000Y53601500I0J237500D01*
G01*
X35847000Y54101500D01*
G75*
G02*
X36084500Y54339000I237500J0D01*
G01*
G37*
G36*
G01*
X36084500Y56164000D02*
X36559500Y56164000D01*
G75*
G02*
X36797000Y55926500I0J-237500D01*
G01*
X36797000Y55426500D01*
G75*
G02*
X36559500Y55189000I-237500J0D01*
G01*
X36084500Y55189000D01*
G75*
G02*
X35847000Y55426500I0J237500D01*
G01*
X35847000Y55926500D01*
G75*
G02*
X36084500Y56164000I237500J0D01*
G01*
G37*
G04 #@! TD*
G04 #@! TO.C,R408*
G36*
G01*
X34052500Y54339000D02*
X34527500Y54339000D01*
G75*
G02*
X34765000Y54101500I0J-237500D01*
G01*
X34765000Y53601500D01*
G75*
G02*
X34527500Y53364000I-237500J0D01*
G01*
X34052500Y53364000D01*
G75*
G02*
X33815000Y53601500I0J237500D01*
G01*
X33815000Y54101500D01*
G75*
G02*
X34052500Y54339000I237500J0D01*
G01*
G37*
G36*
G01*
X34052500Y56164000D02*
X34527500Y56164000D01*
G75*
G02*
X34765000Y55926500I0J-237500D01*
G01*
X34765000Y55426500D01*
G75*
G02*
X34527500Y55189000I-237500J0D01*
G01*
X34052500Y55189000D01*
G75*
G02*
X33815000Y55426500I0J237500D01*
G01*
X33815000Y55926500D01*
G75*
G02*
X34052500Y56164000I237500J0D01*
G01*
G37*
G04 #@! TD*
G04 #@! TO.C,R407*
G36*
G01*
X24631000Y55552500D02*
X24631000Y56027500D01*
G75*
G02*
X24868500Y56265000I237500J0D01*
G01*
X25368500Y56265000D01*
G75*
G02*
X25606000Y56027500I0J-237500D01*
G01*
X25606000Y55552500D01*
G75*
G02*
X25368500Y55315000I-237500J0D01*
G01*
X24868500Y55315000D01*
G75*
G02*
X24631000Y55552500I0J237500D01*
G01*
G37*
G36*
G01*
X22806000Y55552500D02*
X22806000Y56027500D01*
G75*
G02*
X23043500Y56265000I237500J0D01*
G01*
X23543500Y56265000D01*
G75*
G02*
X23781000Y56027500I0J-237500D01*
G01*
X23781000Y55552500D01*
G75*
G02*
X23543500Y55315000I-237500J0D01*
G01*
X23043500Y55315000D01*
G75*
G02*
X22806000Y55552500I0J237500D01*
G01*
G37*
G04 #@! TD*
G04 #@! TO.C,R406*
G36*
G01*
X32505000Y51488500D02*
X32505000Y51963500D01*
G75*
G02*
X32742500Y52201000I237500J0D01*
G01*
X33242500Y52201000D01*
G75*
G02*
X33480000Y51963500I0J-237500D01*
G01*
X33480000Y51488500D01*
G75*
G02*
X33242500Y51251000I-237500J0D01*
G01*
X32742500Y51251000D01*
G75*
G02*
X32505000Y51488500I0J237500D01*
G01*
G37*
G36*
G01*
X30680000Y51488500D02*
X30680000Y51963500D01*
G75*
G02*
X30917500Y52201000I237500J0D01*
G01*
X31417500Y52201000D01*
G75*
G02*
X31655000Y51963500I0J-237500D01*
G01*
X31655000Y51488500D01*
G75*
G02*
X31417500Y51251000I-237500J0D01*
G01*
X30917500Y51251000D01*
G75*
G02*
X30680000Y51488500I0J237500D01*
G01*
G37*
G04 #@! TD*
G04 #@! TO.C,R405*
G36*
G01*
X27083000Y51963500D02*
X27083000Y51488500D01*
G75*
G02*
X26845500Y51251000I-237500J0D01*
G01*
X26345500Y51251000D01*
G75*
G02*
X26108000Y51488500I0J237500D01*
G01*
X26108000Y51963500D01*
G75*
G02*
X26345500Y52201000I237500J0D01*
G01*
X26845500Y52201000D01*
G75*
G02*
X27083000Y51963500I0J-237500D01*
G01*
G37*
G36*
G01*
X28908000Y51963500D02*
X28908000Y51488500D01*
G75*
G02*
X28670500Y51251000I-237500J0D01*
G01*
X28170500Y51251000D01*
G75*
G02*
X27933000Y51488500I0J237500D01*
G01*
X27933000Y51963500D01*
G75*
G02*
X28170500Y52201000I237500J0D01*
G01*
X28670500Y52201000D01*
G75*
G02*
X28908000Y51963500I0J-237500D01*
G01*
G37*
G04 #@! TD*
G04 #@! TO.C,R404*
G36*
G01*
X27083000Y49931500D02*
X27083000Y49456500D01*
G75*
G02*
X26845500Y49219000I-237500J0D01*
G01*
X26345500Y49219000D01*
G75*
G02*
X26108000Y49456500I0J237500D01*
G01*
X26108000Y49931500D01*
G75*
G02*
X26345500Y50169000I237500J0D01*
G01*
X26845500Y50169000D01*
G75*
G02*
X27083000Y49931500I0J-237500D01*
G01*
G37*
G36*
G01*
X28908000Y49931500D02*
X28908000Y49456500D01*
G75*
G02*
X28670500Y49219000I-237500J0D01*
G01*
X28170500Y49219000D01*
G75*
G02*
X27933000Y49456500I0J237500D01*
G01*
X27933000Y49931500D01*
G75*
G02*
X28170500Y50169000I237500J0D01*
G01*
X28670500Y50169000D01*
G75*
G02*
X28908000Y49931500I0J-237500D01*
G01*
G37*
G04 #@! TD*
G04 #@! TO.C,R402*
G36*
G01*
X31655000Y49931500D02*
X31655000Y49456500D01*
G75*
G02*
X31417500Y49219000I-237500J0D01*
G01*
X30917500Y49219000D01*
G75*
G02*
X30680000Y49456500I0J237500D01*
G01*
X30680000Y49931500D01*
G75*
G02*
X30917500Y50169000I237500J0D01*
G01*
X31417500Y50169000D01*
G75*
G02*
X31655000Y49931500I0J-237500D01*
G01*
G37*
G36*
G01*
X33480000Y49931500D02*
X33480000Y49456500D01*
G75*
G02*
X33242500Y49219000I-237500J0D01*
G01*
X32742500Y49219000D01*
G75*
G02*
X32505000Y49456500I0J237500D01*
G01*
X32505000Y49931500D01*
G75*
G02*
X32742500Y50169000I237500J0D01*
G01*
X33242500Y50169000D01*
G75*
G02*
X33480000Y49931500I0J-237500D01*
G01*
G37*
G04 #@! TD*
G04 #@! TO.C,R415*
G36*
G01*
X52915000Y59827500D02*
X52915000Y59352500D01*
G75*
G02*
X52677500Y59115000I-237500J0D01*
G01*
X52177500Y59115000D01*
G75*
G02*
X51940000Y59352500I0J237500D01*
G01*
X51940000Y59827500D01*
G75*
G02*
X52177500Y60065000I237500J0D01*
G01*
X52677500Y60065000D01*
G75*
G02*
X52915000Y59827500I0J-237500D01*
G01*
G37*
G36*
G01*
X54740000Y59827500D02*
X54740000Y59352500D01*
G75*
G02*
X54502500Y59115000I-237500J0D01*
G01*
X54002500Y59115000D01*
G75*
G02*
X53765000Y59352500I0J237500D01*
G01*
X53765000Y59827500D01*
G75*
G02*
X54002500Y60065000I237500J0D01*
G01*
X54502500Y60065000D01*
G75*
G02*
X54740000Y59827500I0J-237500D01*
G01*
G37*
G04 #@! TD*
G04 #@! TO.C,R420*
G36*
G01*
X52915000Y57795500D02*
X52915000Y57320500D01*
G75*
G02*
X52677500Y57083000I-237500J0D01*
G01*
X52177500Y57083000D01*
G75*
G02*
X51940000Y57320500I0J237500D01*
G01*
X51940000Y57795500D01*
G75*
G02*
X52177500Y58033000I237500J0D01*
G01*
X52677500Y58033000D01*
G75*
G02*
X52915000Y57795500I0J-237500D01*
G01*
G37*
G36*
G01*
X54740000Y57795500D02*
X54740000Y57320500D01*
G75*
G02*
X54502500Y57083000I-237500J0D01*
G01*
X54002500Y57083000D01*
G75*
G02*
X53765000Y57320500I0J237500D01*
G01*
X53765000Y57795500D01*
G75*
G02*
X54002500Y58033000I237500J0D01*
G01*
X54502500Y58033000D01*
G75*
G02*
X54740000Y57795500I0J-237500D01*
G01*
G37*
G04 #@! TD*
G04 #@! TO.C,R431*
G36*
G01*
X3285500Y51125000D02*
X2810500Y51125000D01*
G75*
G02*
X2573000Y51362500I0J237500D01*
G01*
X2573000Y51862500D01*
G75*
G02*
X2810500Y52100000I237500J0D01*
G01*
X3285500Y52100000D01*
G75*
G02*
X3523000Y51862500I0J-237500D01*
G01*
X3523000Y51362500D01*
G75*
G02*
X3285500Y51125000I-237500J0D01*
G01*
G37*
G36*
G01*
X3285500Y49300000D02*
X2810500Y49300000D01*
G75*
G02*
X2573000Y49537500I0J237500D01*
G01*
X2573000Y50037500D01*
G75*
G02*
X2810500Y50275000I237500J0D01*
G01*
X3285500Y50275000D01*
G75*
G02*
X3523000Y50037500I0J-237500D01*
G01*
X3523000Y49537500D01*
G75*
G02*
X3285500Y49300000I-237500J0D01*
G01*
G37*
G04 #@! TD*
G04 #@! TO.C,R430*
G36*
G01*
X12937500Y53665000D02*
X12462500Y53665000D01*
G75*
G02*
X12225000Y53902500I0J237500D01*
G01*
X12225000Y54402500D01*
G75*
G02*
X12462500Y54640000I237500J0D01*
G01*
X12937500Y54640000D01*
G75*
G02*
X13175000Y54402500I0J-237500D01*
G01*
X13175000Y53902500D01*
G75*
G02*
X12937500Y53665000I-237500J0D01*
G01*
G37*
G36*
G01*
X12937500Y51840000D02*
X12462500Y51840000D01*
G75*
G02*
X12225000Y52077500I0J237500D01*
G01*
X12225000Y52577500D01*
G75*
G02*
X12462500Y52815000I237500J0D01*
G01*
X12937500Y52815000D01*
G75*
G02*
X13175000Y52577500I0J-237500D01*
G01*
X13175000Y52077500D01*
G75*
G02*
X12937500Y51840000I-237500J0D01*
G01*
G37*
G04 #@! TD*
G04 #@! TO.C,R429*
G36*
G01*
X53257000Y50970500D02*
X53257000Y51445500D01*
G75*
G02*
X53494500Y51683000I237500J0D01*
G01*
X53994500Y51683000D01*
G75*
G02*
X54232000Y51445500I0J-237500D01*
G01*
X54232000Y50970500D01*
G75*
G02*
X53994500Y50733000I-237500J0D01*
G01*
X53494500Y50733000D01*
G75*
G02*
X53257000Y50970500I0J237500D01*
G01*
G37*
G36*
G01*
X51432000Y50970500D02*
X51432000Y51445500D01*
G75*
G02*
X51669500Y51683000I237500J0D01*
G01*
X52169500Y51683000D01*
G75*
G02*
X52407000Y51445500I0J-237500D01*
G01*
X52407000Y50970500D01*
G75*
G02*
X52169500Y50733000I-237500J0D01*
G01*
X51669500Y50733000D01*
G75*
G02*
X51432000Y50970500I0J237500D01*
G01*
G37*
G04 #@! TD*
G04 #@! TO.C,R428*
G36*
G01*
X53690500Y44376500D02*
X53690500Y44851500D01*
G75*
G02*
X53928000Y45089000I237500J0D01*
G01*
X54428000Y45089000D01*
G75*
G02*
X54665500Y44851500I0J-237500D01*
G01*
X54665500Y44376500D01*
G75*
G02*
X54428000Y44139000I-237500J0D01*
G01*
X53928000Y44139000D01*
G75*
G02*
X53690500Y44376500I0J237500D01*
G01*
G37*
G36*
G01*
X51865500Y44376500D02*
X51865500Y44851500D01*
G75*
G02*
X52103000Y45089000I237500J0D01*
G01*
X52603000Y45089000D01*
G75*
G02*
X52840500Y44851500I0J-237500D01*
G01*
X52840500Y44376500D01*
G75*
G02*
X52603000Y44139000I-237500J0D01*
G01*
X52103000Y44139000D01*
G75*
G02*
X51865500Y44376500I0J237500D01*
G01*
G37*
G04 #@! TD*
G04 #@! TO.C,C413*
G36*
G01*
X46973500Y48231000D02*
X46498500Y48231000D01*
G75*
G02*
X46261000Y48468500I0J237500D01*
G01*
X46261000Y49068500D01*
G75*
G02*
X46498500Y49306000I237500J0D01*
G01*
X46973500Y49306000D01*
G75*
G02*
X47211000Y49068500I0J-237500D01*
G01*
X47211000Y48468500D01*
G75*
G02*
X46973500Y48231000I-237500J0D01*
G01*
G37*
G36*
G01*
X46973500Y46506000D02*
X46498500Y46506000D01*
G75*
G02*
X46261000Y46743500I0J237500D01*
G01*
X46261000Y47343500D01*
G75*
G02*
X46498500Y47581000I237500J0D01*
G01*
X46973500Y47581000D01*
G75*
G02*
X47211000Y47343500I0J-237500D01*
G01*
X47211000Y46743500D01*
G75*
G02*
X46973500Y46506000I-237500J0D01*
G01*
G37*
G04 #@! TD*
G04 #@! TO.C,R427*
G36*
G01*
X52030000Y40490999D02*
X52030000Y42641001D01*
G75*
G02*
X52279999Y42891000I249999J0D01*
G01*
X53080001Y42891000D01*
G75*
G02*
X53330000Y42641001I0J-249999D01*
G01*
X53330000Y40490999D01*
G75*
G02*
X53080001Y40241000I-249999J0D01*
G01*
X52279999Y40241000D01*
G75*
G02*
X52030000Y40490999I0J249999D01*
G01*
G37*
G36*
G01*
X48930000Y40490999D02*
X48930000Y42641001D01*
G75*
G02*
X49179999Y42891000I249999J0D01*
G01*
X49980001Y42891000D01*
G75*
G02*
X50230000Y42641001I0J-249999D01*
G01*
X50230000Y40490999D01*
G75*
G02*
X49980001Y40241000I-249999J0D01*
G01*
X49179999Y40241000D01*
G75*
G02*
X48930000Y40490999I0J249999D01*
G01*
G37*
G04 #@! TD*
D42*
G04 #@! TO.C,R419*
X42494000Y42226000D03*
D43*
X42494000Y47306000D03*
G04 #@! TD*
G04 #@! TO.C,U407*
G36*
G01*
X44722500Y57094000D02*
X44947500Y57094000D01*
G75*
G02*
X45060000Y56981500I0J-112500D01*
G01*
X45060000Y55506500D01*
G75*
G02*
X44947500Y55394000I-112500J0D01*
G01*
X44722500Y55394000D01*
G75*
G02*
X44610000Y55506500I0J112500D01*
G01*
X44610000Y56981500D01*
G75*
G02*
X44722500Y57094000I112500J0D01*
G01*
G37*
G36*
G01*
X44072500Y57094000D02*
X44297500Y57094000D01*
G75*
G02*
X44410000Y56981500I0J-112500D01*
G01*
X44410000Y55506500D01*
G75*
G02*
X44297500Y55394000I-112500J0D01*
G01*
X44072500Y55394000D01*
G75*
G02*
X43960000Y55506500I0J112500D01*
G01*
X43960000Y56981500D01*
G75*
G02*
X44072500Y57094000I112500J0D01*
G01*
G37*
G36*
G01*
X43422500Y57094000D02*
X43647500Y57094000D01*
G75*
G02*
X43760000Y56981500I0J-112500D01*
G01*
X43760000Y55506500D01*
G75*
G02*
X43647500Y55394000I-112500J0D01*
G01*
X43422500Y55394000D01*
G75*
G02*
X43310000Y55506500I0J112500D01*
G01*
X43310000Y56981500D01*
G75*
G02*
X43422500Y57094000I112500J0D01*
G01*
G37*
G36*
G01*
X42772500Y57094000D02*
X42997500Y57094000D01*
G75*
G02*
X43110000Y56981500I0J-112500D01*
G01*
X43110000Y55506500D01*
G75*
G02*
X42997500Y55394000I-112500J0D01*
G01*
X42772500Y55394000D01*
G75*
G02*
X42660000Y55506500I0J112500D01*
G01*
X42660000Y56981500D01*
G75*
G02*
X42772500Y57094000I112500J0D01*
G01*
G37*
G36*
G01*
X42122500Y57094000D02*
X42347500Y57094000D01*
G75*
G02*
X42460000Y56981500I0J-112500D01*
G01*
X42460000Y55506500D01*
G75*
G02*
X42347500Y55394000I-112500J0D01*
G01*
X42122500Y55394000D01*
G75*
G02*
X42010000Y55506500I0J112500D01*
G01*
X42010000Y56981500D01*
G75*
G02*
X42122500Y57094000I112500J0D01*
G01*
G37*
G36*
G01*
X41472500Y57094000D02*
X41697500Y57094000D01*
G75*
G02*
X41810000Y56981500I0J-112500D01*
G01*
X41810000Y55506500D01*
G75*
G02*
X41697500Y55394000I-112500J0D01*
G01*
X41472500Y55394000D01*
G75*
G02*
X41360000Y55506500I0J112500D01*
G01*
X41360000Y56981500D01*
G75*
G02*
X41472500Y57094000I112500J0D01*
G01*
G37*
G36*
G01*
X40822500Y57094000D02*
X41047500Y57094000D01*
G75*
G02*
X41160000Y56981500I0J-112500D01*
G01*
X41160000Y55506500D01*
G75*
G02*
X41047500Y55394000I-112500J0D01*
G01*
X40822500Y55394000D01*
G75*
G02*
X40710000Y55506500I0J112500D01*
G01*
X40710000Y56981500D01*
G75*
G02*
X40822500Y57094000I112500J0D01*
G01*
G37*
G36*
G01*
X40172500Y57094000D02*
X40397500Y57094000D01*
G75*
G02*
X40510000Y56981500I0J-112500D01*
G01*
X40510000Y55506500D01*
G75*
G02*
X40397500Y55394000I-112500J0D01*
G01*
X40172500Y55394000D01*
G75*
G02*
X40060000Y55506500I0J112500D01*
G01*
X40060000Y56981500D01*
G75*
G02*
X40172500Y57094000I112500J0D01*
G01*
G37*
G36*
G01*
X39522500Y57094000D02*
X39747500Y57094000D01*
G75*
G02*
X39860000Y56981500I0J-112500D01*
G01*
X39860000Y55506500D01*
G75*
G02*
X39747500Y55394000I-112500J0D01*
G01*
X39522500Y55394000D01*
G75*
G02*
X39410000Y55506500I0J112500D01*
G01*
X39410000Y56981500D01*
G75*
G02*
X39522500Y57094000I112500J0D01*
G01*
G37*
G36*
G01*
X38872500Y57094000D02*
X39097500Y57094000D01*
G75*
G02*
X39210000Y56981500I0J-112500D01*
G01*
X39210000Y55506500D01*
G75*
G02*
X39097500Y55394000I-112500J0D01*
G01*
X38872500Y55394000D01*
G75*
G02*
X38760000Y55506500I0J112500D01*
G01*
X38760000Y56981500D01*
G75*
G02*
X38872500Y57094000I112500J0D01*
G01*
G37*
G36*
G01*
X38872500Y64294000D02*
X39097500Y64294000D01*
G75*
G02*
X39210000Y64181500I0J-112500D01*
G01*
X39210000Y62706500D01*
G75*
G02*
X39097500Y62594000I-112500J0D01*
G01*
X38872500Y62594000D01*
G75*
G02*
X38760000Y62706500I0J112500D01*
G01*
X38760000Y64181500D01*
G75*
G02*
X38872500Y64294000I112500J0D01*
G01*
G37*
G36*
G01*
X39522500Y64294000D02*
X39747500Y64294000D01*
G75*
G02*
X39860000Y64181500I0J-112500D01*
G01*
X39860000Y62706500D01*
G75*
G02*
X39747500Y62594000I-112500J0D01*
G01*
X39522500Y62594000D01*
G75*
G02*
X39410000Y62706500I0J112500D01*
G01*
X39410000Y64181500D01*
G75*
G02*
X39522500Y64294000I112500J0D01*
G01*
G37*
G36*
G01*
X40172500Y64294000D02*
X40397500Y64294000D01*
G75*
G02*
X40510000Y64181500I0J-112500D01*
G01*
X40510000Y62706500D01*
G75*
G02*
X40397500Y62594000I-112500J0D01*
G01*
X40172500Y62594000D01*
G75*
G02*
X40060000Y62706500I0J112500D01*
G01*
X40060000Y64181500D01*
G75*
G02*
X40172500Y64294000I112500J0D01*
G01*
G37*
G36*
G01*
X40822500Y64294000D02*
X41047500Y64294000D01*
G75*
G02*
X41160000Y64181500I0J-112500D01*
G01*
X41160000Y62706500D01*
G75*
G02*
X41047500Y62594000I-112500J0D01*
G01*
X40822500Y62594000D01*
G75*
G02*
X40710000Y62706500I0J112500D01*
G01*
X40710000Y64181500D01*
G75*
G02*
X40822500Y64294000I112500J0D01*
G01*
G37*
G36*
G01*
X41472500Y64294000D02*
X41697500Y64294000D01*
G75*
G02*
X41810000Y64181500I0J-112500D01*
G01*
X41810000Y62706500D01*
G75*
G02*
X41697500Y62594000I-112500J0D01*
G01*
X41472500Y62594000D01*
G75*
G02*
X41360000Y62706500I0J112500D01*
G01*
X41360000Y64181500D01*
G75*
G02*
X41472500Y64294000I112500J0D01*
G01*
G37*
G36*
G01*
X42122500Y64294000D02*
X42347500Y64294000D01*
G75*
G02*
X42460000Y64181500I0J-112500D01*
G01*
X42460000Y62706500D01*
G75*
G02*
X42347500Y62594000I-112500J0D01*
G01*
X42122500Y62594000D01*
G75*
G02*
X42010000Y62706500I0J112500D01*
G01*
X42010000Y64181500D01*
G75*
G02*
X42122500Y64294000I112500J0D01*
G01*
G37*
G36*
G01*
X42772500Y64294000D02*
X42997500Y64294000D01*
G75*
G02*
X43110000Y64181500I0J-112500D01*
G01*
X43110000Y62706500D01*
G75*
G02*
X42997500Y62594000I-112500J0D01*
G01*
X42772500Y62594000D01*
G75*
G02*
X42660000Y62706500I0J112500D01*
G01*
X42660000Y64181500D01*
G75*
G02*
X42772500Y64294000I112500J0D01*
G01*
G37*
G36*
G01*
X43422500Y64294000D02*
X43647500Y64294000D01*
G75*
G02*
X43760000Y64181500I0J-112500D01*
G01*
X43760000Y62706500D01*
G75*
G02*
X43647500Y62594000I-112500J0D01*
G01*
X43422500Y62594000D01*
G75*
G02*
X43310000Y62706500I0J112500D01*
G01*
X43310000Y64181500D01*
G75*
G02*
X43422500Y64294000I112500J0D01*
G01*
G37*
G36*
G01*
X44072500Y64294000D02*
X44297500Y64294000D01*
G75*
G02*
X44410000Y64181500I0J-112500D01*
G01*
X44410000Y62706500D01*
G75*
G02*
X44297500Y62594000I-112500J0D01*
G01*
X44072500Y62594000D01*
G75*
G02*
X43960000Y62706500I0J112500D01*
G01*
X43960000Y64181500D01*
G75*
G02*
X44072500Y64294000I112500J0D01*
G01*
G37*
G36*
G01*
X44722500Y64294000D02*
X44947500Y64294000D01*
G75*
G02*
X45060000Y64181500I0J-112500D01*
G01*
X45060000Y62706500D01*
G75*
G02*
X44947500Y62594000I-112500J0D01*
G01*
X44722500Y62594000D01*
G75*
G02*
X44610000Y62706500I0J112500D01*
G01*
X44610000Y64181500D01*
G75*
G02*
X44722500Y64294000I112500J0D01*
G01*
G37*
G04 #@! TD*
G04 #@! TO.C,U405*
G36*
G01*
X6399000Y50029000D02*
X6399000Y49879000D01*
G75*
G02*
X6324000Y49804000I-75000J0D01*
G01*
X5024000Y49804000D01*
G75*
G02*
X4949000Y49879000I0J75000D01*
G01*
X4949000Y50029000D01*
G75*
G02*
X5024000Y50104000I75000J0D01*
G01*
X6324000Y50104000D01*
G75*
G02*
X6399000Y50029000I0J-75000D01*
G01*
G37*
G36*
G01*
X6399000Y50529000D02*
X6399000Y50379000D01*
G75*
G02*
X6324000Y50304000I-75000J0D01*
G01*
X5024000Y50304000D01*
G75*
G02*
X4949000Y50379000I0J75000D01*
G01*
X4949000Y50529000D01*
G75*
G02*
X5024000Y50604000I75000J0D01*
G01*
X6324000Y50604000D01*
G75*
G02*
X6399000Y50529000I0J-75000D01*
G01*
G37*
G36*
G01*
X6399000Y51029000D02*
X6399000Y50879000D01*
G75*
G02*
X6324000Y50804000I-75000J0D01*
G01*
X5024000Y50804000D01*
G75*
G02*
X4949000Y50879000I0J75000D01*
G01*
X4949000Y51029000D01*
G75*
G02*
X5024000Y51104000I75000J0D01*
G01*
X6324000Y51104000D01*
G75*
G02*
X6399000Y51029000I0J-75000D01*
G01*
G37*
G36*
G01*
X6399000Y51529000D02*
X6399000Y51379000D01*
G75*
G02*
X6324000Y51304000I-75000J0D01*
G01*
X5024000Y51304000D01*
G75*
G02*
X4949000Y51379000I0J75000D01*
G01*
X4949000Y51529000D01*
G75*
G02*
X5024000Y51604000I75000J0D01*
G01*
X6324000Y51604000D01*
G75*
G02*
X6399000Y51529000I0J-75000D01*
G01*
G37*
G36*
G01*
X6399000Y52029000D02*
X6399000Y51879000D01*
G75*
G02*
X6324000Y51804000I-75000J0D01*
G01*
X5024000Y51804000D01*
G75*
G02*
X4949000Y51879000I0J75000D01*
G01*
X4949000Y52029000D01*
G75*
G02*
X5024000Y52104000I75000J0D01*
G01*
X6324000Y52104000D01*
G75*
G02*
X6399000Y52029000I0J-75000D01*
G01*
G37*
G36*
G01*
X10799000Y52029000D02*
X10799000Y51879000D01*
G75*
G02*
X10724000Y51804000I-75000J0D01*
G01*
X9424000Y51804000D01*
G75*
G02*
X9349000Y51879000I0J75000D01*
G01*
X9349000Y52029000D01*
G75*
G02*
X9424000Y52104000I75000J0D01*
G01*
X10724000Y52104000D01*
G75*
G02*
X10799000Y52029000I0J-75000D01*
G01*
G37*
G36*
G01*
X10799000Y51529000D02*
X10799000Y51379000D01*
G75*
G02*
X10724000Y51304000I-75000J0D01*
G01*
X9424000Y51304000D01*
G75*
G02*
X9349000Y51379000I0J75000D01*
G01*
X9349000Y51529000D01*
G75*
G02*
X9424000Y51604000I75000J0D01*
G01*
X10724000Y51604000D01*
G75*
G02*
X10799000Y51529000I0J-75000D01*
G01*
G37*
G36*
G01*
X10799000Y51029000D02*
X10799000Y50879000D01*
G75*
G02*
X10724000Y50804000I-75000J0D01*
G01*
X9424000Y50804000D01*
G75*
G02*
X9349000Y50879000I0J75000D01*
G01*
X9349000Y51029000D01*
G75*
G02*
X9424000Y51104000I75000J0D01*
G01*
X10724000Y51104000D01*
G75*
G02*
X10799000Y51029000I0J-75000D01*
G01*
G37*
G36*
G01*
X10799000Y50529000D02*
X10799000Y50379000D01*
G75*
G02*
X10724000Y50304000I-75000J0D01*
G01*
X9424000Y50304000D01*
G75*
G02*
X9349000Y50379000I0J75000D01*
G01*
X9349000Y50529000D01*
G75*
G02*
X9424000Y50604000I75000J0D01*
G01*
X10724000Y50604000D01*
G75*
G02*
X10799000Y50529000I0J-75000D01*
G01*
G37*
G36*
G01*
X10799000Y50029000D02*
X10799000Y49879000D01*
G75*
G02*
X10724000Y49804000I-75000J0D01*
G01*
X9424000Y49804000D01*
G75*
G02*
X9349000Y49879000I0J75000D01*
G01*
X9349000Y50029000D01*
G75*
G02*
X9424000Y50104000I75000J0D01*
G01*
X10724000Y50104000D01*
G75*
G02*
X10799000Y50029000I0J-75000D01*
G01*
G37*
G04 #@! TD*
D26*
G04 #@! TO.C,U409*
X57988000Y41464000D03*
X57988000Y44004000D03*
X57988000Y49084000D03*
X57988000Y51624000D03*
X57988000Y54164000D03*
X57988000Y56704000D03*
X57988000Y59244000D03*
X57988000Y61784000D03*
X73228000Y54164000D03*
X73228000Y56704000D03*
X73228000Y61784000D03*
X73228000Y49084000D03*
X73228000Y46544000D03*
X73228000Y59244000D03*
X73228000Y51624000D03*
X73228000Y44004000D03*
D27*
X73228000Y41464000D03*
G04 #@! TD*
G04 #@! TO.C,U402*
G36*
G01*
X9408000Y62361000D02*
X9408000Y62661000D01*
G75*
G02*
X9558000Y62811000I150000J0D01*
G01*
X11158000Y62811000D01*
G75*
G02*
X11308000Y62661000I0J-150000D01*
G01*
X11308000Y62361000D01*
G75*
G02*
X11158000Y62211000I-150000J0D01*
G01*
X9558000Y62211000D01*
G75*
G02*
X9408000Y62361000I0J150000D01*
G01*
G37*
G36*
G01*
X9408000Y61091000D02*
X9408000Y61391000D01*
G75*
G02*
X9558000Y61541000I150000J0D01*
G01*
X11158000Y61541000D01*
G75*
G02*
X11308000Y61391000I0J-150000D01*
G01*
X11308000Y61091000D01*
G75*
G02*
X11158000Y60941000I-150000J0D01*
G01*
X9558000Y60941000D01*
G75*
G02*
X9408000Y61091000I0J150000D01*
G01*
G37*
G36*
G01*
X9408000Y59821000D02*
X9408000Y60121000D01*
G75*
G02*
X9558000Y60271000I150000J0D01*
G01*
X11158000Y60271000D01*
G75*
G02*
X11308000Y60121000I0J-150000D01*
G01*
X11308000Y59821000D01*
G75*
G02*
X11158000Y59671000I-150000J0D01*
G01*
X9558000Y59671000D01*
G75*
G02*
X9408000Y59821000I0J150000D01*
G01*
G37*
G36*
G01*
X9408000Y58551000D02*
X9408000Y58851000D01*
G75*
G02*
X9558000Y59001000I150000J0D01*
G01*
X11158000Y59001000D01*
G75*
G02*
X11308000Y58851000I0J-150000D01*
G01*
X11308000Y58551000D01*
G75*
G02*
X11158000Y58401000I-150000J0D01*
G01*
X9558000Y58401000D01*
G75*
G02*
X9408000Y58551000I0J150000D01*
G01*
G37*
G36*
G01*
X2408000Y58551000D02*
X2408000Y58851000D01*
G75*
G02*
X2558000Y59001000I150000J0D01*
G01*
X4158000Y59001000D01*
G75*
G02*
X4308000Y58851000I0J-150000D01*
G01*
X4308000Y58551000D01*
G75*
G02*
X4158000Y58401000I-150000J0D01*
G01*
X2558000Y58401000D01*
G75*
G02*
X2408000Y58551000I0J150000D01*
G01*
G37*
G36*
G01*
X2408000Y59821000D02*
X2408000Y60121000D01*
G75*
G02*
X2558000Y60271000I150000J0D01*
G01*
X4158000Y60271000D01*
G75*
G02*
X4308000Y60121000I0J-150000D01*
G01*
X4308000Y59821000D01*
G75*
G02*
X4158000Y59671000I-150000J0D01*
G01*
X2558000Y59671000D01*
G75*
G02*
X2408000Y59821000I0J150000D01*
G01*
G37*
G36*
G01*
X2408000Y61091000D02*
X2408000Y61391000D01*
G75*
G02*
X2558000Y61541000I150000J0D01*
G01*
X4158000Y61541000D01*
G75*
G02*
X4308000Y61391000I0J-150000D01*
G01*
X4308000Y61091000D01*
G75*
G02*
X4158000Y60941000I-150000J0D01*
G01*
X2558000Y60941000D01*
G75*
G02*
X2408000Y61091000I0J150000D01*
G01*
G37*
G36*
G01*
X2408000Y62361000D02*
X2408000Y62661000D01*
G75*
G02*
X2558000Y62811000I150000J0D01*
G01*
X4158000Y62811000D01*
G75*
G02*
X4308000Y62661000I0J-150000D01*
G01*
X4308000Y62361000D01*
G75*
G02*
X4158000Y62211000I-150000J0D01*
G01*
X2558000Y62211000D01*
G75*
G02*
X2408000Y62361000I0J150000D01*
G01*
G37*
G04 #@! TD*
D44*
G04 #@! TO.C,U404*
X18476000Y52906000D03*
X16576000Y52906000D03*
X16576000Y55606000D03*
X17526000Y55606000D03*
X18476000Y55606000D03*
G04 #@! TD*
G04 #@! TO.C,L402*
G36*
G01*
X19969500Y58622000D02*
X19114500Y58622000D01*
G75*
G02*
X19067000Y58669500I0J47500D01*
G01*
X19067000Y59824500D01*
G75*
G02*
X19114500Y59872000I47500J0D01*
G01*
X19969500Y59872000D01*
G75*
G02*
X20017000Y59824500I0J-47500D01*
G01*
X20017000Y58669500D01*
G75*
G02*
X19969500Y58622000I-47500J0D01*
G01*
G37*
G36*
G01*
X19969500Y63372000D02*
X19114500Y63372000D01*
G75*
G02*
X19067000Y63419500I0J47500D01*
G01*
X19067000Y64574500D01*
G75*
G02*
X19114500Y64622000I47500J0D01*
G01*
X19969500Y64622000D01*
G75*
G02*
X20017000Y64574500I0J-47500D01*
G01*
X20017000Y63419500D01*
G75*
G02*
X19969500Y63372000I-47500J0D01*
G01*
G37*
G36*
G01*
X17969500Y63372000D02*
X17114500Y63372000D01*
G75*
G02*
X17067000Y63419500I0J47500D01*
G01*
X17067000Y64574500D01*
G75*
G02*
X17114500Y64622000I47500J0D01*
G01*
X17969500Y64622000D01*
G75*
G02*
X18017000Y64574500I0J-47500D01*
G01*
X18017000Y63419500D01*
G75*
G02*
X17969500Y63372000I-47500J0D01*
G01*
G37*
G36*
G01*
X17969500Y58622000D02*
X17114500Y58622000D01*
G75*
G02*
X17067000Y58669500I0J47500D01*
G01*
X17067000Y59824500D01*
G75*
G02*
X17114500Y59872000I47500J0D01*
G01*
X17969500Y59872000D01*
G75*
G02*
X18017000Y59824500I0J-47500D01*
G01*
X18017000Y58669500D01*
G75*
G02*
X17969500Y58622000I-47500J0D01*
G01*
G37*
G04 #@! TD*
G04 #@! TO.C,L401*
G36*
G01*
X68862000Y69815500D02*
X68862000Y68960500D01*
G75*
G02*
X68814500Y68913000I-47500J0D01*
G01*
X67659500Y68913000D01*
G75*
G02*
X67612000Y68960500I0J47500D01*
G01*
X67612000Y69815500D01*
G75*
G02*
X67659500Y69863000I47500J0D01*
G01*
X68814500Y69863000D01*
G75*
G02*
X68862000Y69815500I0J-47500D01*
G01*
G37*
G36*
G01*
X64112000Y69815500D02*
X64112000Y68960500D01*
G75*
G02*
X64064500Y68913000I-47500J0D01*
G01*
X62909500Y68913000D01*
G75*
G02*
X62862000Y68960500I0J47500D01*
G01*
X62862000Y69815500D01*
G75*
G02*
X62909500Y69863000I47500J0D01*
G01*
X64064500Y69863000D01*
G75*
G02*
X64112000Y69815500I0J-47500D01*
G01*
G37*
G36*
G01*
X64112000Y67815500D02*
X64112000Y66960500D01*
G75*
G02*
X64064500Y66913000I-47500J0D01*
G01*
X62909500Y66913000D01*
G75*
G02*
X62862000Y66960500I0J47500D01*
G01*
X62862000Y67815500D01*
G75*
G02*
X62909500Y67863000I47500J0D01*
G01*
X64064500Y67863000D01*
G75*
G02*
X64112000Y67815500I0J-47500D01*
G01*
G37*
G36*
G01*
X68862000Y67815500D02*
X68862000Y66960500D01*
G75*
G02*
X68814500Y66913000I-47500J0D01*
G01*
X67659500Y66913000D01*
G75*
G02*
X67612000Y66960500I0J47500D01*
G01*
X67612000Y67815500D01*
G75*
G02*
X67659500Y67863000I47500J0D01*
G01*
X68814500Y67863000D01*
G75*
G02*
X68862000Y67815500I0J-47500D01*
G01*
G37*
G04 #@! TD*
D19*
G04 #@! TO.C,CN402*
X10427000Y70109000D03*
X12427000Y70109000D03*
X14427000Y70109000D03*
X16427000Y70109000D03*
X10427000Y68109000D03*
X12427000Y68109000D03*
X14427000Y68109000D03*
G36*
G01*
X17027000Y68684001D02*
X17027000Y67533999D01*
G75*
G02*
X16777001Y67284000I-249999J0D01*
G01*
X16076999Y67284000D01*
G75*
G02*
X15827000Y67533999I0J249999D01*
G01*
X15827000Y68684001D01*
G75*
G02*
X16076999Y68934000I249999J0D01*
G01*
X16777001Y68934000D01*
G75*
G02*
X17027000Y68684001I0J-249999D01*
G01*
G37*
G04 #@! TD*
D28*
G04 #@! TO.C,C410*
X34112000Y69847000D03*
D29*
X34112000Y67347000D03*
G04 #@! TD*
G04 #@! TO.C,U203*
G36*
G01*
X33710000Y8221000D02*
X33510000Y8221000D01*
G75*
G02*
X33410000Y8321000I0J100000D01*
G01*
X33410000Y9596000D01*
G75*
G02*
X33510000Y9696000I100000J0D01*
G01*
X33710000Y9696000D01*
G75*
G02*
X33810000Y9596000I0J-100000D01*
G01*
X33810000Y8321000D01*
G75*
G02*
X33710000Y8221000I-100000J0D01*
G01*
G37*
G36*
G01*
X34360000Y8221000D02*
X34160000Y8221000D01*
G75*
G02*
X34060000Y8321000I0J100000D01*
G01*
X34060000Y9596000D01*
G75*
G02*
X34160000Y9696000I100000J0D01*
G01*
X34360000Y9696000D01*
G75*
G02*
X34460000Y9596000I0J-100000D01*
G01*
X34460000Y8321000D01*
G75*
G02*
X34360000Y8221000I-100000J0D01*
G01*
G37*
G36*
G01*
X35010000Y8221000D02*
X34810000Y8221000D01*
G75*
G02*
X34710000Y8321000I0J100000D01*
G01*
X34710000Y9596000D01*
G75*
G02*
X34810000Y9696000I100000J0D01*
G01*
X35010000Y9696000D01*
G75*
G02*
X35110000Y9596000I0J-100000D01*
G01*
X35110000Y8321000D01*
G75*
G02*
X35010000Y8221000I-100000J0D01*
G01*
G37*
G36*
G01*
X35660000Y8221000D02*
X35460000Y8221000D01*
G75*
G02*
X35360000Y8321000I0J100000D01*
G01*
X35360000Y9596000D01*
G75*
G02*
X35460000Y9696000I100000J0D01*
G01*
X35660000Y9696000D01*
G75*
G02*
X35760000Y9596000I0J-100000D01*
G01*
X35760000Y8321000D01*
G75*
G02*
X35660000Y8221000I-100000J0D01*
G01*
G37*
G36*
G01*
X36310000Y8221000D02*
X36110000Y8221000D01*
G75*
G02*
X36010000Y8321000I0J100000D01*
G01*
X36010000Y9596000D01*
G75*
G02*
X36110000Y9696000I100000J0D01*
G01*
X36310000Y9696000D01*
G75*
G02*
X36410000Y9596000I0J-100000D01*
G01*
X36410000Y8321000D01*
G75*
G02*
X36310000Y8221000I-100000J0D01*
G01*
G37*
G36*
G01*
X36960000Y8221000D02*
X36760000Y8221000D01*
G75*
G02*
X36660000Y8321000I0J100000D01*
G01*
X36660000Y9596000D01*
G75*
G02*
X36760000Y9696000I100000J0D01*
G01*
X36960000Y9696000D01*
G75*
G02*
X37060000Y9596000I0J-100000D01*
G01*
X37060000Y8321000D01*
G75*
G02*
X36960000Y8221000I-100000J0D01*
G01*
G37*
G36*
G01*
X37610000Y8221000D02*
X37410000Y8221000D01*
G75*
G02*
X37310000Y8321000I0J100000D01*
G01*
X37310000Y9596000D01*
G75*
G02*
X37410000Y9696000I100000J0D01*
G01*
X37610000Y9696000D01*
G75*
G02*
X37710000Y9596000I0J-100000D01*
G01*
X37710000Y8321000D01*
G75*
G02*
X37610000Y8221000I-100000J0D01*
G01*
G37*
G36*
G01*
X37610000Y2496000D02*
X37410000Y2496000D01*
G75*
G02*
X37310000Y2596000I0J100000D01*
G01*
X37310000Y3871000D01*
G75*
G02*
X37410000Y3971000I100000J0D01*
G01*
X37610000Y3971000D01*
G75*
G02*
X37710000Y3871000I0J-100000D01*
G01*
X37710000Y2596000D01*
G75*
G02*
X37610000Y2496000I-100000J0D01*
G01*
G37*
G36*
G01*
X36960000Y2496000D02*
X36760000Y2496000D01*
G75*
G02*
X36660000Y2596000I0J100000D01*
G01*
X36660000Y3871000D01*
G75*
G02*
X36760000Y3971000I100000J0D01*
G01*
X36960000Y3971000D01*
G75*
G02*
X37060000Y3871000I0J-100000D01*
G01*
X37060000Y2596000D01*
G75*
G02*
X36960000Y2496000I-100000J0D01*
G01*
G37*
G36*
G01*
X36310000Y2496000D02*
X36110000Y2496000D01*
G75*
G02*
X36010000Y2596000I0J100000D01*
G01*
X36010000Y3871000D01*
G75*
G02*
X36110000Y3971000I100000J0D01*
G01*
X36310000Y3971000D01*
G75*
G02*
X36410000Y3871000I0J-100000D01*
G01*
X36410000Y2596000D01*
G75*
G02*
X36310000Y2496000I-100000J0D01*
G01*
G37*
G36*
G01*
X35660000Y2496000D02*
X35460000Y2496000D01*
G75*
G02*
X35360000Y2596000I0J100000D01*
G01*
X35360000Y3871000D01*
G75*
G02*
X35460000Y3971000I100000J0D01*
G01*
X35660000Y3971000D01*
G75*
G02*
X35760000Y3871000I0J-100000D01*
G01*
X35760000Y2596000D01*
G75*
G02*
X35660000Y2496000I-100000J0D01*
G01*
G37*
G36*
G01*
X35010000Y2496000D02*
X34810000Y2496000D01*
G75*
G02*
X34710000Y2596000I0J100000D01*
G01*
X34710000Y3871000D01*
G75*
G02*
X34810000Y3971000I100000J0D01*
G01*
X35010000Y3971000D01*
G75*
G02*
X35110000Y3871000I0J-100000D01*
G01*
X35110000Y2596000D01*
G75*
G02*
X35010000Y2496000I-100000J0D01*
G01*
G37*
G36*
G01*
X34360000Y2496000D02*
X34160000Y2496000D01*
G75*
G02*
X34060000Y2596000I0J100000D01*
G01*
X34060000Y3871000D01*
G75*
G02*
X34160000Y3971000I100000J0D01*
G01*
X34360000Y3971000D01*
G75*
G02*
X34460000Y3871000I0J-100000D01*
G01*
X34460000Y2596000D01*
G75*
G02*
X34360000Y2496000I-100000J0D01*
G01*
G37*
G36*
G01*
X33710000Y2496000D02*
X33510000Y2496000D01*
G75*
G02*
X33410000Y2596000I0J100000D01*
G01*
X33410000Y3871000D01*
G75*
G02*
X33510000Y3971000I100000J0D01*
G01*
X33710000Y3971000D01*
G75*
G02*
X33810000Y3871000I0J-100000D01*
G01*
X33810000Y2596000D01*
G75*
G02*
X33710000Y2496000I-100000J0D01*
G01*
G37*
G04 #@! TD*
D45*
G04 #@! TO.C,D201*
X40894000Y6588000D03*
X41844000Y4588000D03*
X39944000Y4588000D03*
G04 #@! TD*
D44*
G04 #@! TO.C,U204*
X29906000Y21002000D03*
X28006000Y21002000D03*
X28006000Y23702000D03*
X28956000Y23702000D03*
X29906000Y23702000D03*
G04 #@! TD*
D19*
G04 #@! TO.C,CN205*
X20416000Y32428000D03*
X22416000Y32428000D03*
X24416000Y32428000D03*
X26416000Y32428000D03*
X20416000Y30428000D03*
X22416000Y30428000D03*
X24416000Y30428000D03*
G36*
G01*
X27016000Y31003001D02*
X27016000Y29852999D01*
G75*
G02*
X26766001Y29603000I-249999J0D01*
G01*
X26065999Y29603000D01*
G75*
G02*
X25816000Y29852999I0J249999D01*
G01*
X25816000Y31003001D01*
G75*
G02*
X26065999Y31253000I249999J0D01*
G01*
X26766001Y31253000D01*
G75*
G02*
X27016000Y31003001I0J-249999D01*
G01*
G37*
G04 #@! TD*
G04 #@! TO.C,U201*
G36*
G01*
X18286000Y19298000D02*
X18286000Y20548000D01*
G75*
G02*
X18411000Y20673000I125000J0D01*
G01*
X18661000Y20673000D01*
G75*
G02*
X18786000Y20548000I0J-125000D01*
G01*
X18786000Y19298000D01*
G75*
G02*
X18661000Y19173000I-125000J0D01*
G01*
X18411000Y19173000D01*
G75*
G02*
X18286000Y19298000I0J125000D01*
G01*
G37*
G36*
G01*
X19086000Y19298000D02*
X19086000Y20548000D01*
G75*
G02*
X19211000Y20673000I125000J0D01*
G01*
X19461000Y20673000D01*
G75*
G02*
X19586000Y20548000I0J-125000D01*
G01*
X19586000Y19298000D01*
G75*
G02*
X19461000Y19173000I-125000J0D01*
G01*
X19211000Y19173000D01*
G75*
G02*
X19086000Y19298000I0J125000D01*
G01*
G37*
G36*
G01*
X19886000Y19298000D02*
X19886000Y20548000D01*
G75*
G02*
X20011000Y20673000I125000J0D01*
G01*
X20261000Y20673000D01*
G75*
G02*
X20386000Y20548000I0J-125000D01*
G01*
X20386000Y19298000D01*
G75*
G02*
X20261000Y19173000I-125000J0D01*
G01*
X20011000Y19173000D01*
G75*
G02*
X19886000Y19298000I0J125000D01*
G01*
G37*
G36*
G01*
X20686000Y19298000D02*
X20686000Y20548000D01*
G75*
G02*
X20811000Y20673000I125000J0D01*
G01*
X21061000Y20673000D01*
G75*
G02*
X21186000Y20548000I0J-125000D01*
G01*
X21186000Y19298000D01*
G75*
G02*
X21061000Y19173000I-125000J0D01*
G01*
X20811000Y19173000D01*
G75*
G02*
X20686000Y19298000I0J125000D01*
G01*
G37*
G36*
G01*
X21486000Y19298000D02*
X21486000Y20548000D01*
G75*
G02*
X21611000Y20673000I125000J0D01*
G01*
X21861000Y20673000D01*
G75*
G02*
X21986000Y20548000I0J-125000D01*
G01*
X21986000Y19298000D01*
G75*
G02*
X21861000Y19173000I-125000J0D01*
G01*
X21611000Y19173000D01*
G75*
G02*
X21486000Y19298000I0J125000D01*
G01*
G37*
G36*
G01*
X22286000Y19298000D02*
X22286000Y20548000D01*
G75*
G02*
X22411000Y20673000I125000J0D01*
G01*
X22661000Y20673000D01*
G75*
G02*
X22786000Y20548000I0J-125000D01*
G01*
X22786000Y19298000D01*
G75*
G02*
X22661000Y19173000I-125000J0D01*
G01*
X22411000Y19173000D01*
G75*
G02*
X22286000Y19298000I0J125000D01*
G01*
G37*
G36*
G01*
X23086000Y19298000D02*
X23086000Y20548000D01*
G75*
G02*
X23211000Y20673000I125000J0D01*
G01*
X23461000Y20673000D01*
G75*
G02*
X23586000Y20548000I0J-125000D01*
G01*
X23586000Y19298000D01*
G75*
G02*
X23461000Y19173000I-125000J0D01*
G01*
X23211000Y19173000D01*
G75*
G02*
X23086000Y19298000I0J125000D01*
G01*
G37*
G36*
G01*
X23886000Y19298000D02*
X23886000Y20548000D01*
G75*
G02*
X24011000Y20673000I125000J0D01*
G01*
X24261000Y20673000D01*
G75*
G02*
X24386000Y20548000I0J-125000D01*
G01*
X24386000Y19298000D01*
G75*
G02*
X24261000Y19173000I-125000J0D01*
G01*
X24011000Y19173000D01*
G75*
G02*
X23886000Y19298000I0J125000D01*
G01*
G37*
G36*
G01*
X24761000Y18423000D02*
X24761000Y18673000D01*
G75*
G02*
X24886000Y18798000I125000J0D01*
G01*
X26136000Y18798000D01*
G75*
G02*
X26261000Y18673000I0J-125000D01*
G01*
X26261000Y18423000D01*
G75*
G02*
X26136000Y18298000I-125000J0D01*
G01*
X24886000Y18298000D01*
G75*
G02*
X24761000Y18423000I0J125000D01*
G01*
G37*
G36*
G01*
X24761000Y17623000D02*
X24761000Y17873000D01*
G75*
G02*
X24886000Y17998000I125000J0D01*
G01*
X26136000Y17998000D01*
G75*
G02*
X26261000Y17873000I0J-125000D01*
G01*
X26261000Y17623000D01*
G75*
G02*
X26136000Y17498000I-125000J0D01*
G01*
X24886000Y17498000D01*
G75*
G02*
X24761000Y17623000I0J125000D01*
G01*
G37*
G36*
G01*
X24761000Y16823000D02*
X24761000Y17073000D01*
G75*
G02*
X24886000Y17198000I125000J0D01*
G01*
X26136000Y17198000D01*
G75*
G02*
X26261000Y17073000I0J-125000D01*
G01*
X26261000Y16823000D01*
G75*
G02*
X26136000Y16698000I-125000J0D01*
G01*
X24886000Y16698000D01*
G75*
G02*
X24761000Y16823000I0J125000D01*
G01*
G37*
G36*
G01*
X24761000Y16023000D02*
X24761000Y16273000D01*
G75*
G02*
X24886000Y16398000I125000J0D01*
G01*
X26136000Y16398000D01*
G75*
G02*
X26261000Y16273000I0J-125000D01*
G01*
X26261000Y16023000D01*
G75*
G02*
X26136000Y15898000I-125000J0D01*
G01*
X24886000Y15898000D01*
G75*
G02*
X24761000Y16023000I0J125000D01*
G01*
G37*
G36*
G01*
X24761000Y15223000D02*
X24761000Y15473000D01*
G75*
G02*
X24886000Y15598000I125000J0D01*
G01*
X26136000Y15598000D01*
G75*
G02*
X26261000Y15473000I0J-125000D01*
G01*
X26261000Y15223000D01*
G75*
G02*
X26136000Y15098000I-125000J0D01*
G01*
X24886000Y15098000D01*
G75*
G02*
X24761000Y15223000I0J125000D01*
G01*
G37*
G36*
G01*
X24761000Y14423000D02*
X24761000Y14673000D01*
G75*
G02*
X24886000Y14798000I125000J0D01*
G01*
X26136000Y14798000D01*
G75*
G02*
X26261000Y14673000I0J-125000D01*
G01*
X26261000Y14423000D01*
G75*
G02*
X26136000Y14298000I-125000J0D01*
G01*
X24886000Y14298000D01*
G75*
G02*
X24761000Y14423000I0J125000D01*
G01*
G37*
G36*
G01*
X24761000Y13623000D02*
X24761000Y13873000D01*
G75*
G02*
X24886000Y13998000I125000J0D01*
G01*
X26136000Y13998000D01*
G75*
G02*
X26261000Y13873000I0J-125000D01*
G01*
X26261000Y13623000D01*
G75*
G02*
X26136000Y13498000I-125000J0D01*
G01*
X24886000Y13498000D01*
G75*
G02*
X24761000Y13623000I0J125000D01*
G01*
G37*
G36*
G01*
X24761000Y12823000D02*
X24761000Y13073000D01*
G75*
G02*
X24886000Y13198000I125000J0D01*
G01*
X26136000Y13198000D01*
G75*
G02*
X26261000Y13073000I0J-125000D01*
G01*
X26261000Y12823000D01*
G75*
G02*
X26136000Y12698000I-125000J0D01*
G01*
X24886000Y12698000D01*
G75*
G02*
X24761000Y12823000I0J125000D01*
G01*
G37*
G36*
G01*
X23886000Y10948000D02*
X23886000Y12198000D01*
G75*
G02*
X24011000Y12323000I125000J0D01*
G01*
X24261000Y12323000D01*
G75*
G02*
X24386000Y12198000I0J-125000D01*
G01*
X24386000Y10948000D01*
G75*
G02*
X24261000Y10823000I-125000J0D01*
G01*
X24011000Y10823000D01*
G75*
G02*
X23886000Y10948000I0J125000D01*
G01*
G37*
G36*
G01*
X23086000Y10948000D02*
X23086000Y12198000D01*
G75*
G02*
X23211000Y12323000I125000J0D01*
G01*
X23461000Y12323000D01*
G75*
G02*
X23586000Y12198000I0J-125000D01*
G01*
X23586000Y10948000D01*
G75*
G02*
X23461000Y10823000I-125000J0D01*
G01*
X23211000Y10823000D01*
G75*
G02*
X23086000Y10948000I0J125000D01*
G01*
G37*
G36*
G01*
X22286000Y10948000D02*
X22286000Y12198000D01*
G75*
G02*
X22411000Y12323000I125000J0D01*
G01*
X22661000Y12323000D01*
G75*
G02*
X22786000Y12198000I0J-125000D01*
G01*
X22786000Y10948000D01*
G75*
G02*
X22661000Y10823000I-125000J0D01*
G01*
X22411000Y10823000D01*
G75*
G02*
X22286000Y10948000I0J125000D01*
G01*
G37*
G36*
G01*
X21486000Y10948000D02*
X21486000Y12198000D01*
G75*
G02*
X21611000Y12323000I125000J0D01*
G01*
X21861000Y12323000D01*
G75*
G02*
X21986000Y12198000I0J-125000D01*
G01*
X21986000Y10948000D01*
G75*
G02*
X21861000Y10823000I-125000J0D01*
G01*
X21611000Y10823000D01*
G75*
G02*
X21486000Y10948000I0J125000D01*
G01*
G37*
G36*
G01*
X20686000Y10948000D02*
X20686000Y12198000D01*
G75*
G02*
X20811000Y12323000I125000J0D01*
G01*
X21061000Y12323000D01*
G75*
G02*
X21186000Y12198000I0J-125000D01*
G01*
X21186000Y10948000D01*
G75*
G02*
X21061000Y10823000I-125000J0D01*
G01*
X20811000Y10823000D01*
G75*
G02*
X20686000Y10948000I0J125000D01*
G01*
G37*
G36*
G01*
X19886000Y10948000D02*
X19886000Y12198000D01*
G75*
G02*
X20011000Y12323000I125000J0D01*
G01*
X20261000Y12323000D01*
G75*
G02*
X20386000Y12198000I0J-125000D01*
G01*
X20386000Y10948000D01*
G75*
G02*
X20261000Y10823000I-125000J0D01*
G01*
X20011000Y10823000D01*
G75*
G02*
X19886000Y10948000I0J125000D01*
G01*
G37*
G36*
G01*
X19086000Y10948000D02*
X19086000Y12198000D01*
G75*
G02*
X19211000Y12323000I125000J0D01*
G01*
X19461000Y12323000D01*
G75*
G02*
X19586000Y12198000I0J-125000D01*
G01*
X19586000Y10948000D01*
G75*
G02*
X19461000Y10823000I-125000J0D01*
G01*
X19211000Y10823000D01*
G75*
G02*
X19086000Y10948000I0J125000D01*
G01*
G37*
G36*
G01*
X18286000Y10948000D02*
X18286000Y12198000D01*
G75*
G02*
X18411000Y12323000I125000J0D01*
G01*
X18661000Y12323000D01*
G75*
G02*
X18786000Y12198000I0J-125000D01*
G01*
X18786000Y10948000D01*
G75*
G02*
X18661000Y10823000I-125000J0D01*
G01*
X18411000Y10823000D01*
G75*
G02*
X18286000Y10948000I0J125000D01*
G01*
G37*
G36*
G01*
X16411000Y12823000D02*
X16411000Y13073000D01*
G75*
G02*
X16536000Y13198000I125000J0D01*
G01*
X17786000Y13198000D01*
G75*
G02*
X17911000Y13073000I0J-125000D01*
G01*
X17911000Y12823000D01*
G75*
G02*
X17786000Y12698000I-125000J0D01*
G01*
X16536000Y12698000D01*
G75*
G02*
X16411000Y12823000I0J125000D01*
G01*
G37*
G36*
G01*
X16411000Y13623000D02*
X16411000Y13873000D01*
G75*
G02*
X16536000Y13998000I125000J0D01*
G01*
X17786000Y13998000D01*
G75*
G02*
X17911000Y13873000I0J-125000D01*
G01*
X17911000Y13623000D01*
G75*
G02*
X17786000Y13498000I-125000J0D01*
G01*
X16536000Y13498000D01*
G75*
G02*
X16411000Y13623000I0J125000D01*
G01*
G37*
G36*
G01*
X16411000Y14423000D02*
X16411000Y14673000D01*
G75*
G02*
X16536000Y14798000I125000J0D01*
G01*
X17786000Y14798000D01*
G75*
G02*
X17911000Y14673000I0J-125000D01*
G01*
X17911000Y14423000D01*
G75*
G02*
X17786000Y14298000I-125000J0D01*
G01*
X16536000Y14298000D01*
G75*
G02*
X16411000Y14423000I0J125000D01*
G01*
G37*
G36*
G01*
X16411000Y15223000D02*
X16411000Y15473000D01*
G75*
G02*
X16536000Y15598000I125000J0D01*
G01*
X17786000Y15598000D01*
G75*
G02*
X17911000Y15473000I0J-125000D01*
G01*
X17911000Y15223000D01*
G75*
G02*
X17786000Y15098000I-125000J0D01*
G01*
X16536000Y15098000D01*
G75*
G02*
X16411000Y15223000I0J125000D01*
G01*
G37*
G36*
G01*
X16411000Y16023000D02*
X16411000Y16273000D01*
G75*
G02*
X16536000Y16398000I125000J0D01*
G01*
X17786000Y16398000D01*
G75*
G02*
X17911000Y16273000I0J-125000D01*
G01*
X17911000Y16023000D01*
G75*
G02*
X17786000Y15898000I-125000J0D01*
G01*
X16536000Y15898000D01*
G75*
G02*
X16411000Y16023000I0J125000D01*
G01*
G37*
G36*
G01*
X16411000Y16823000D02*
X16411000Y17073000D01*
G75*
G02*
X16536000Y17198000I125000J0D01*
G01*
X17786000Y17198000D01*
G75*
G02*
X17911000Y17073000I0J-125000D01*
G01*
X17911000Y16823000D01*
G75*
G02*
X17786000Y16698000I-125000J0D01*
G01*
X16536000Y16698000D01*
G75*
G02*
X16411000Y16823000I0J125000D01*
G01*
G37*
G36*
G01*
X16411000Y17623000D02*
X16411000Y17873000D01*
G75*
G02*
X16536000Y17998000I125000J0D01*
G01*
X17786000Y17998000D01*
G75*
G02*
X17911000Y17873000I0J-125000D01*
G01*
X17911000Y17623000D01*
G75*
G02*
X17786000Y17498000I-125000J0D01*
G01*
X16536000Y17498000D01*
G75*
G02*
X16411000Y17623000I0J125000D01*
G01*
G37*
G36*
G01*
X16411000Y18423000D02*
X16411000Y18673000D01*
G75*
G02*
X16536000Y18798000I125000J0D01*
G01*
X17786000Y18798000D01*
G75*
G02*
X17911000Y18673000I0J-125000D01*
G01*
X17911000Y18423000D01*
G75*
G02*
X17786000Y18298000I-125000J0D01*
G01*
X16536000Y18298000D01*
G75*
G02*
X16411000Y18423000I0J125000D01*
G01*
G37*
G04 #@! TD*
G04 #@! TO.C,L201*
G36*
G01*
X11842000Y12448250D02*
X11842000Y11935750D01*
G75*
G02*
X11623250Y11717000I-218750J0D01*
G01*
X11185750Y11717000D01*
G75*
G02*
X10967000Y11935750I0J218750D01*
G01*
X10967000Y12448250D01*
G75*
G02*
X11185750Y12667000I218750J0D01*
G01*
X11623250Y12667000D01*
G75*
G02*
X11842000Y12448250I0J-218750D01*
G01*
G37*
G36*
G01*
X13417000Y12448250D02*
X13417000Y11935750D01*
G75*
G02*
X13198250Y11717000I-218750J0D01*
G01*
X12760750Y11717000D01*
G75*
G02*
X12542000Y11935750I0J218750D01*
G01*
X12542000Y12448250D01*
G75*
G02*
X12760750Y12667000I218750J0D01*
G01*
X13198250Y12667000D01*
G75*
G02*
X13417000Y12448250I0J-218750D01*
G01*
G37*
G04 #@! TD*
G04 #@! TO.C,C404*
G36*
G01*
X18304500Y48064000D02*
X18779500Y48064000D01*
G75*
G02*
X19017000Y47826500I0J-237500D01*
G01*
X19017000Y47251500D01*
G75*
G02*
X18779500Y47014000I-237500J0D01*
G01*
X18304500Y47014000D01*
G75*
G02*
X18067000Y47251500I0J237500D01*
G01*
X18067000Y47826500D01*
G75*
G02*
X18304500Y48064000I237500J0D01*
G01*
G37*
G36*
G01*
X18304500Y49814000D02*
X18779500Y49814000D01*
G75*
G02*
X19017000Y49576500I0J-237500D01*
G01*
X19017000Y49001500D01*
G75*
G02*
X18779500Y48764000I-237500J0D01*
G01*
X18304500Y48764000D01*
G75*
G02*
X18067000Y49001500I0J237500D01*
G01*
X18067000Y49576500D01*
G75*
G02*
X18304500Y49814000I237500J0D01*
G01*
G37*
G04 #@! TD*
G04 #@! TO.C,C403*
G36*
G01*
X22840000Y51963500D02*
X22840000Y51488500D01*
G75*
G02*
X22602500Y51251000I-237500J0D01*
G01*
X22027500Y51251000D01*
G75*
G02*
X21790000Y51488500I0J237500D01*
G01*
X21790000Y51963500D01*
G75*
G02*
X22027500Y52201000I237500J0D01*
G01*
X22602500Y52201000D01*
G75*
G02*
X22840000Y51963500I0J-237500D01*
G01*
G37*
G36*
G01*
X24590000Y51963500D02*
X24590000Y51488500D01*
G75*
G02*
X24352500Y51251000I-237500J0D01*
G01*
X23777500Y51251000D01*
G75*
G02*
X23540000Y51488500I0J237500D01*
G01*
X23540000Y51963500D01*
G75*
G02*
X23777500Y52201000I237500J0D01*
G01*
X24352500Y52201000D01*
G75*
G02*
X24590000Y51963500I0J-237500D01*
G01*
G37*
G04 #@! TD*
D46*
X64516000Y3456000D03*
X51816000Y3456000D03*
X51816000Y4853000D03*
X51816000Y2059000D03*
X64516000Y2059000D03*
X61595000Y7266000D03*
D47*
X56134000Y11330000D03*
X56134000Y9806000D03*
D48*
X80772000Y24792000D03*
X80772000Y21744000D03*
X80772000Y18696000D03*
D47*
X80772000Y1424000D03*
X81788000Y1424000D03*
X82804000Y1424000D03*
X83820000Y1424000D03*
X84836000Y1424000D03*
X98044000Y1424000D03*
X99060000Y1424000D03*
X100076000Y1424000D03*
X101092000Y1424000D03*
X102108000Y1424000D03*
X103124000Y1424000D03*
X85852000Y1424000D03*
X86868000Y1424000D03*
X87884000Y1424000D03*
X88900000Y1424000D03*
X19050000Y16002000D03*
X8382000Y15748000D03*
D48*
X16256000Y20320000D03*
X26162000Y10922000D03*
X18034000Y24638000D03*
X24384000Y23622000D03*
X9906000Y12192000D03*
X31496000Y20066000D03*
X30838627Y12498627D03*
X29210000Y16510000D03*
D47*
X18796000Y17526000D03*
X20320000Y14732000D03*
X20320000Y16002000D03*
D48*
X29972000Y27432000D03*
X43180000Y4572000D03*
X35814000Y14313500D03*
D47*
X27178000Y13462000D03*
X23622000Y13462000D03*
X21844000Y9906000D03*
X28702000Y5334000D03*
X23622000Y15494000D03*
X35052000Y4774000D03*
X23622000Y14478000D03*
X33528000Y12446000D03*
X24130000Y21844000D03*
X21590000Y59844000D03*
X28778000Y56958000D03*
X33096000Y56450000D03*
X34366000Y63816000D03*
X15494000Y59844000D03*
X15494000Y58828000D03*
X15494000Y57812000D03*
X16510000Y57812000D03*
X39624000Y60860000D03*
X40894000Y60860000D03*
X42164000Y60860000D03*
X43434000Y60860000D03*
X21590000Y58828000D03*
X20066000Y55018000D03*
X20066000Y54002000D03*
X20066000Y52986000D03*
X33020000Y59082000D03*
X29718000Y50700000D03*
X37592000Y54256000D03*
X37592000Y53240000D03*
X36322000Y45366000D03*
X37338000Y45366000D03*
X35560000Y63816000D03*
X36830000Y63816000D03*
X16510000Y45620000D03*
X17780000Y45620000D03*
X19050000Y45620000D03*
X29718000Y49430000D03*
X29718000Y48160000D03*
X26416000Y52986000D03*
X25146000Y52478000D03*
X30104798Y55717112D03*
X23367988Y47473974D03*
D46*
X19558000Y57304000D03*
D47*
X34290000Y50446000D03*
X61092012Y69347988D03*
X44196000Y65686000D03*
X23876000Y65178000D03*
X7861567Y58696658D03*
X24892000Y64416000D03*
X45720000Y64924000D03*
X12436000Y64416000D03*
X5588000Y52986000D03*
X8609951Y59969421D03*
X46228000Y62130000D03*
X28194000Y58320000D03*
X35306000Y56288000D03*
X53848000Y52478000D03*
X32842000Y61530000D03*
X28448000Y60606000D03*
X46482000Y51208000D03*
X39624000Y58320000D03*
D46*
X65862000Y62546000D03*
D47*
X51000000Y49000000D03*
X51000000Y50000000D03*
X45000000Y46000000D03*
X45000000Y47000000D03*
X45000000Y48000000D03*
X45000000Y49000000D03*
X53340000Y56288000D03*
X55372000Y63146000D03*
X51054000Y64416000D03*
X51130000Y59590000D03*
X55626000Y59590000D03*
X55372000Y54256000D03*
X12522000Y62292000D03*
X25400000Y61622000D03*
X50038000Y64162000D03*
X12700000Y50954000D03*
D46*
X18542000Y50954000D03*
D47*
X4317988Y49938000D03*
X44835000Y58443000D03*
X33782000Y62130000D03*
X63119000Y11584000D03*
X63119000Y10060000D03*
X69596000Y13870000D03*
X69596000Y18442000D03*
X64770000Y24538000D03*
X64008000Y8282000D03*
X65532000Y20474000D03*
X56409498Y14864502D03*
X57912000Y25300000D03*
X58928000Y24538000D03*
X58927984Y17426000D03*
X59436000Y21744000D03*
X59436000Y18696000D03*
X59436000Y20728000D03*
X59436000Y19712000D03*
X55372000Y21236000D03*
X55372000Y20220000D03*
X55372000Y19204000D03*
X56387962Y22633013D03*
X56388000Y20093000D03*
X56388000Y17426000D03*
X65532000Y15394000D03*
X57747500Y13018500D03*
X79756000Y14632024D03*
X58550001Y6754999D03*
X59436000Y15940010D03*
X57531000Y6758000D03*
X58801000Y13616000D03*
M02*
